<?xml version="1.0" encoding="utf-8"?>
<!-- Generator: Adobe Illustrator 23.0.3, SVG Export Plug-In . SVG Version: 6.00 Build 0)  -->
<svg version="1.1" id="Layer_1" xmlns="http://www.w3.org/2000/svg" xmlns:xlink="http://www.w3.org/1999/xlink" x="0px" y="0px"
	 viewBox="0 0 196.4 515" style="enable-background:new 0 0 196.4 515;" xml:space="preserve">
<style type="text/css">
	.st0{fill:#010101;}
</style>
<path class="st0" d="M192.97,355.61c0,0,0.44-11.36-5.24-12.81c0,0-4.37-4.22-5.39-5.82c-1.02-1.6-1.89-3.5-1.89-4.22
	c0-0.73,0-0.73,0-0.73l0.58-0.58c0,0-1.6-9.32-4.8-15.43h-0.73l-1.31-4.95l2.47-6.26l-2.04-0.43v-2.62l1.75-1.75l0.29-4.22
	l-1.02-1.16c0,0,0.29-8.3,1.31-9.9c1.02-1.6-2.18-2.33-2.91-2.33l2.03-2.48c0,0-7.28-19.22-7.42-28.97c0,0,13.54-8.59-4.22-30.28
	c0,0,2.33-6.7-0.15-12.08c-2.48-5.38-1.75-4.51-0.73-5.82c1.02-1.31,0.73-3.35,0.73-3.35s2.33-42.21,3.64-47.02l3.5,0.29
	c0,0,1.6-2.18,1.6-3.93l5.09-0.87c0,0,3.21-9.17,2.92-18.78c0,0-1.46-2.77-6.12-4.51l5.24-2.76l0.88-5.97h-1.89l0.15-1.31l1.17-0.43
	l-1.02-4.95l-2.18-0.44l-0.29-3.05l-4.37-1.31c0,0-2.77-5.82-17.32-2.77l-1.17-1.6c0,0-1.02-17.18-7.57-17.61
	c-6.55-0.43-10.77,10.34-10.77,10.34s-4.51-0.73-6.55,1.31c0,0-2.79-10.89-7.97-15.58c1.07-7.19,5.4-22.1,22.69-37.57l-5.59,0.35
	c0,0,0.48-7.68-0.82-11.95l-1.68,0.47c0,0-7.14-14.79-21.51-29.75l2.4,9.73c0,0-19.21-3.04-31.03-1.47c0,0-17.34,19.58-23.66,31.54
	c0,0-9.51,21.72-14.53,29.05c0,0,18.4-16.7,29.86-21.2c0,0-5.12,6.92-10.98,11.03c0,0,0.15,1.92,4.8,3.4l-0.03-0.01
	c-4.78,4.81-12.02,10.97-18.23,11.65c0,0,9.64,1.71,23.03-5.09c0,0-3.07,4.99-4.73,8.48l8.76-2.43c0,0-4.28,5.29-8.28,7.61
	c0,0,11.99-3.46,13.23-4.25c0,0-12.76,8.26-17.95,9.22c0,0,12.91,0.53,26.66-3.5l-0.81,9c0,0-13.1-3.93-21.4-3.28
	c0,0,0.22,7.86,1.53,11.79l1.31,0.66c0,0-1.53,6.33-3.93,4.58c-2.4-1.74-3.28-2.18-3.49-0.44c-0.22,1.75-6.55-1.09-8.3,0.22
	c-1.29,0.96-0.56,2.87-0.09,3.82c-0.19-0.11-0.46,0.12-0.79,1.42c-0.66,2.62-18.78,50.44-25.11,61.14l-2.4-1.75l-0.44,5.02
	l-1.96-0.87c0,0-6.99,5.02-7.86,12.01c0,0,2.18,5.24,2.83,7.2c0.66,1.97,0.44,1.97-0.87,1.53c0,0-3.06-1.31,1.53,3.93
	c0,0-0.44,1.53-1.31,3.5c-0.87,1.96-15.72,22.7-18.56,55.67c0,0-1.31,14.2-2.18,23.59c-0.87,9.39-1.96,23.8-0.87,27.73l5.46,4.15
	c0,0,3.49,8.29,4.15,8.95l4.58,1.53l3.5-8.3c0,0,1.31-1.53,1.96-2.84c0.66-1.31,3.06-3.49,3.71-3.71c0.66-0.22,2.84,0.22,3.5-1.53
	c0.65-1.75,2.62-10.48,2.62-10.48s-14.2-10.48-15.5-19.43c-1.31-8.95,1.96-25.33,8.08-35.37c6.11-10.04,9.82-11.79,10.92-15.07
	c1.09-3.28,1.09-17.9,4.59-24.45c0,0,0,0.43,1.2-0.22c1.2-0.66,4.59,0.43,7.42-2.95c2.84-3.38,1.75-5.57,1.42-9.17
	c-0.33-3.61-0.98-7.75-0.76-8.85c0.21-1.09,2.07,0.22,2.07,0.22s8.96-29.59,13.21-39.52l3.6,13.64c0,0-2.62,1.65-3.17,2.95
	c-0.54,1.31,0.55,1.64,1.1,2.73c0.54,1.09-1.13,14.01-1.71,25.51c-0.59,11.51-0.73,19.66-0.73,22.27c0,2.62-0.73-0.18-1.6,5.61
	c-0.87,5.79,0.66,3.6-1.09,7.32c-1.74,3.71-4.25,3.93-3.93,5.78c0.33,1.86,1.2,6.77,1.2,6.77l-1.2,0.11l2.84,10.04l0.98,0.33
	c0,0-3.93,4.59-3.82,5.46c0.11,0.87,0.33-0.33,2.29,0.87l1.31,0.44l-1.53,0.87c0,0,2.73,59.39,8.84,80.13c0,0,0.22,2.18,0.37,3.79
	c0.14,1.6,0.14,9.75-0.73,12.08c-0.88,2.33-0.58,6.99,2.03,9.61c0,0,1.17,16.67,4.22,39.38c3.06,22.71,4.59,49.13,3.93,57.43
	c-0.66,8.3-1.75,15.72-3.06,16.38c0,0,2.33,1.23,0.58,1.09c-1.75-0.15-2.62-2.76-3.49-1.74c-0.88,1.02-1.31,3.05-1.89,3.78
	c-0.59,0.73-0.44,0-1.89,0.59c-1.46,0.58-1.75-0.44-1.6,1.16c0.15,1.6,0.88,1.16,0.15,1.6c-0.72,0.44-1.89,0.58-1.89,0.58
	l-0.43,3.05l-3.35,0.3l-0.29,1.45l-4.08,0.29l-2.77,3.5c0,0-9.9,4.66-11.21,12.95c-1.31,8.3,21.98,14.12,34.65,5.09
	c0,0,3.79-1.16,8.29-9.17c0,0,1.17-2.91,5.68-5.53c0,0,1.75,0.15,3.49-0.87c1.75-1.02,0.88,1.16,2.91-0.73
	c2.04-1.89,3.64-0.58,2.04-2.62c-1.6-2.04-0.73-1.02-2.18-2.62c-1.45-1.6,0.14-4.37,0.14-4.37l-1.89-2.62c0,0,1.96-42.94-1.31-71.11
	c-3.27-28.17-4.58-32.1-5.67-39.53c-1.09-7.42-1.97-10.04-1.53-12.44c0,0-0.95,1.24,0.51-1.67c1.46-2.92,3.2-2.19,1.31-3.79
	c-1.89-1.6-2.04-1.31-2.62-1.6c-0.58-0.29,1.16-1.75,1.16-1.75l-1.74-1.45c0,0,0.73-2.62,1.6-5.83c0.88-3.2,0.44-19.07-0.58-35.81
	c-1.02-16.74-1.02-30.27,0-36.39c1.02-6.12,2.04-5.24,3.49-6.26c1.46-1.02,3.06-1.45,3.06-1.45s6.7,4.36,8.01,6.26
	c1.31,1.89,8.59,22.13,11.5,31.44c2.91,9.32,9.61,27.37,10.48,29.55c0,0-0.29,0,0.29,3.2c0.59,3.21,0.88,2.18,0.59,7.13
	c-0.3,4.95-1.6,4.8,0.44,6.99c2.04,2.18,2.04,2.18,2.04,2.18s6.4,17.76,8.15,22.13c1.75,4.37,11.71,38.77,14.33,54.49
	c2.62,15.72,3.61,25.55,4.59,33.4c0.98,7.86,0.98,23.26,0,25.55c-0.98,2.29-3.2,2-4.22,2c-1.02,0-0.87-0.15-1.16,1.16
	c-0.29,1.31-0.15,2.18-0.15,2.18l-1.17,1.16l-2.03-0.29l-0.3,1.6l-4.07,0.58v2.33l-4.95,0.29l-1.46,3.5c0,0-19.21,13.24-6.41,17.61
	c12.81,4.37,36.83-0.14,42.66-6.11c5.82-5.97,4.51-5.97,4.51-5.97s3.79,0,3.79-0.73c0-0.73-1.89-1.17-1.46-2.04
	c0.44-0.88,2.33,1.6,1.75-2.19c-0.58-3.79-3.21-3.2-3.79-7.86c-0.58-4.66-2.91-2.33-0.29-6.26c2.62-3.93,3.5-3.05,0.87-6.7
	c-2.61-3.64-4.65-20.82-5.68-33.19c-1.02-12.37-3.2-50.22-9.17-62.01c0,0,0.73-1.75,0.88-3.06c0.14-1.31-2.47-3.79-2.91-5.1
	c-0.44-1.31-3.21-6.55-3.64-9.6c-0.44-3.06-0.44-4.95-0.44-4.95s4.66,3.93,6.11,5.54c1.46,1.6,5.24,8.29,5.24,8.29
	s-0.29,0,1.45,1.46c1.75,1.45,3.2,1.31,5.09,2.19c1.89,0.87,3.93,1.89,3.93,1.89s3.64-2.04,4.51-2.62c0.87-0.58,1.89-0.87,1.89-0.87
	l4.51,1.02l6.99-3.93c0,0,2.91-10.92,3.64-11.36C197.04,358.66,192.97,355.61,192.97,355.61z M114.11,84.29
	c4.01,5.64,8.94,10.46,8.94,10.46c-1.31-2.44-1.83-7.23-2.03-9.92c2.05,2.4,4.22,6.28,4.66,12.2l-0.11,1.86l-1.64,0.21l-1.53-1.31
	c-1.74-1.74-1.31-0.11-1.74-1.74c-0.44-1.64,0.33-2.08-1.09-2.08c-1.42,0-0.98,1.42-1.42-1.09c-0.44-2.51-1.2-3.6-4.15-3.49
	C114,89.4,113.9,86.71,114.11,84.29z M112.47,160.58l4.04-3.28c0,0,5.68,3.82,7.86,1.63c2.19-2.18,1.31-7.42,3.16-8.84l3.93,1.31
	c0,0-1.31-5.57-0.87-9.28c0,0,4.37,1.96,5.89,1.96c0,0-4.47,5.35-4.7,14.95c-0.21,9.61-5.13,8.3-7.64,7.97
	c-2.51-0.32-9.71-2.18-11.79-2.29L112.47,160.58z M147.73,346.18l-4.04-7.86l0.55-2.62l-2.33-0.85c-0.05,0.07-0.07-0.02-0.07-0.02
	l0.07,0.02c0.05-0.08,0.14-0.38,0.26-1.33c0.22-1.75,0.22-3.05,0.22-3.05s-1.2,0.11,1.09-0.88c2.29-0.98,2.29-0.98-0.88-1.75
	c-3.16-0.76-1.53-1.09-3.38-8.51c-1.85-7.43-9.06-39.85-10.15-45.09c-1.09-5.24-6.12-23.91-6.34-26.53
	c-0.21-2.62-1.09-3.71-1.53-5.46c-0.44-1.75-0.66-1.2-0.22-2.29c0.44-1.09,0.54-0.76,0.98-2.08c0.43-1.31,1.53-2.29,0.11-2.84
	c-1.42-0.55-2.18-0.76-2.29-1.85c-0.11-1.09-2.41-0.33,0.65-1.21c3.06-0.87,1.85-0.21,4.04-1.2c2.18-0.98,2.62-0.87-0.21-2.07
	c-2.84-1.21-4.59-2.51-2.18-5.02c2.4-2.51,5.24-2.29,4.25-4.26c-0.98-1.96-0.44-1.2-4.58-2.4c-4.15-1.2-5.9-1.64-7.21-2.62
	c-1.31-0.98-2.83-6.88-3.6-16.6c0,0,1.53-1.42,1.53-2.4c0-0.99-1.31,0-1.86-2.52c-0.55-2.51,1.31-21.06,1.42-22.82
	c0,0,9.39,0.55,15.72,0.88c6.33,0.33,7.86-1.2,8.3-7.75c0.44-6.55-0.36-10.05,2.77-15.18l3.49,0.58c0,0,0.58,35.37,1.31,46.29
	c0.73,10.92,0.15,12.52,0.15,12.96s1.46,2.33,1.46,2.33l-1.53,1.89c0,0-0.8,11.07-0.44,12.95c0.36,1.89,1.17,1.68,1.17,1.68
	s-2.26,2.11-1.68,4.44c0,0-1.53,12.88,3.21,13.69c0,0-0.44,5.67-2.33,14.84c-1.89,9.17-3.93,23.15-1.02,33.63l0.14,4l0.37,0.8
	l-0.66,1.38l1.75,2.84l0.66,3.71l0.51,2.11l-0.88,1.46l2.7,6.99l-1.31,1.53l3.86,9.03l0.29,7.86l2.83,7.28
	C152.87,342.29,149.59,345.64,147.73,346.18z"/>
</svg>
