<?xml version="1.0" encoding="utf-8"?>
<!-- Generator: Adobe Illustrator 23.0.3, SVG Export Plug-In . SVG Version: 6.00 Build 0)  -->
<svg version="1.1" id="Layer_1" xmlns="http://www.w3.org/2000/svg" xmlns:xlink="http://www.w3.org/1999/xlink" x="0px" y="0px"
	 viewBox="0 0 382.29 464.36" style="enable-background:new 0 0 382.29 464.36;" xml:space="preserve">
<style type="text/css">
	.st0{fill:none;}
	.st1{fill:#010101;}
</style>
<g>
	<path class="st0" d="M175.75,168.18c0,0,7.47,4.98,13.77,3.37c0,0,2.2-2.64-11.43-8.79L175.75,168.18z"/>
	<path class="st0" d="M110.47,457.8c-1.6,1.44-2.4,6.08-2.4,6.08c-0.01,0.16-0.03,0.32-0.04,0.48h7.08
		C112.1,461.66,110.47,457.8,110.47,457.8z"/>
	<path class="st1" d="M118.07,225.1c0,0,19.92-2.16,15.36-22.8c0,0-2.4-2.16,6.24-8.64c0,0-6.96,5.04-7.68,7.2
		c0,0-0.96,8.64-9.6,8.16c0,0-15.36,6.24-12.24,18.48C110.15,227.5,114.47,224.38,118.07,225.1z"/>
	<path class="st1" d="M102.79,233.66c0.04,0.28,0.04,0.54,0.03,0.81C102.87,233.95,102.79,233.66,102.79,233.66z"/>
	<path class="st1" d="M74.47,234.3c0,0-6.88,7.36-3.04,13.92c0,0,2.88,5.92,10.88,6.4c0,0,7.2-0.48,12.16-10.56
		c0,0,0.16-1.28,2.08-2.24c0,0,6.13-2.86,6.27-7.35c-0.15,1.53-1.45,5.04-9.47,8.63c0,0-6.56,1.92-9.76-3.04c0,0-4-4.96-7.36-4.8
		c0,0-0.8-4.32,0.32-7.2c0,0,0.64-9.12-8.16-9.28C68.39,218.78,78.95,222.94,74.47,234.3z"/>
	<path class="st1" d="M77.67,335.89c0,0,9.92-2.08,5.44-15.52c0,0-6.08-14.72,3.36-20c0,0-4.64,0.64-7.04,13.44
		c0,0-1.6,4.16-6.88,8.16c0,0-9.44,6.24-3.36,21.44C69.19,343.41,71.91,337.81,77.67,335.89z"/>
	<path class="st1" d="M21.18,347.47c0.03-0.54,0.02-0.86,0.02-0.86C21.21,346.89,21.2,347.18,21.18,347.47z"/>
	<path class="st1" d="M17.36,382.29c8.96-5.92,3.52-16.16,3.52-16.16c-2.88-3.68-1.92-10.88-1.92-10.88
		c1.61-2.57,2.07-5.57,2.19-7.28c-0.6,5.9-6.51,12.23-6.51,12.23c-7.2,12.16-6.72,19.68-6.72,19.68c0.26,5.9-0.87,12.54-1.29,14.75
		C7.96,390.12,17.36,382.29,17.36,382.29z"/>
	<path class="st1" d="M6.63,394.64c-0.08,0.27-0.13,0.53-0.15,0.77C6.48,395.41,6.54,395.13,6.63,394.64z"/>
	<path class="st1" d="M9.84,170.98c0,0-5.16,14.88,6.36,19.08c0,0,5.16,1.08,8.76,3.96c0,0,1.21,5.44,6.9,5.72
		c0,0-7.75-1.09-5.06-9.53c0,0,7.05-9.73,4.17-15.79c0,0-3.08,7.55-8.34,3.67c0,0-4.51-4.83,4.97-9.03c0,0-4.44-8.16-14.04-9.12
		c0,0-9-1.44-13.56,7.8C0,167.75,11.76,162.47,9.84,170.98z"/>
	<path class="st1" d="M382.29,353.49c0,0-22.08-4.8-68.15,3.36c0,0,4.32-6.24,11.04-10.08c0,0-22.08,5.28-28.32,11.04
		c0,0,10.56-18.24,13.92-20.16c0,0-18.24,9.6-24.48,14.88c0,0,21.12-36.96,36.96-51.36c0,0-26.96,20.53-43.67,45.36
		c-0.11-2.18-0.7-4.63-2.17-7.21c0,0-1.68,0.96,0.72-6c0,0,22.08-59.84,9.6-80.95c0,0-22.4-46.39-10.56-92.79
		c0,0,4.8,12.16,2.88,26.88c0,0,0,12.16,0.64,17.28c0,0-0.48,2.56,4,2.56c0,0,4.16,9.76,5.92,11.52c0,0,1.92,2.24,7.36-0.8
		c0,0,0.32-1.28,0-2.4c0,0,3.2-2.4,4.8-5.92c0,0,0.48-0.64-0.32-2.24c0,0,2.88-5.12,3.84-5.28c0,0,1.92-0.64,3.36-2.56l1.28-0.16
		c0,0-12.32,17.44-11.04,32.32c0,0-17.6,20.96-4.64,25.92c0,0-0.16,8,7.84,6.72c0,0,0.16,7.52,12.8,8c0,0,9.92,0.32,13.76-7.36
		c0,0,6.72,5.28,11.2-0.8c0,0,3.2-4.32-1.28-8.96c0,0,7.84-4,7.52-11.84c0,0-0.48-4.32-13.44-5.12c0,0-9.92-1.6-10.08-5.12
		c0,0,10.72-2.08,11.52-16.96c0,0,3.2,5.28,4.48,8c0,0,3.68,8.64,8.32,4.96c0,0,7.04,0.16,9.6-13.28c0,0-6.4-9.12-16.96-16.8
		c0,0-2.88-5.12-7.84-5.6c0,0-5.12,1.6-15.52-8c0,0-7.2-5.28-19.52,3.36c0,0-5.44-0.48-7.04-11.68c0,0-4.96-31.04-8.32-38.88
		c0,0,10.24-32.72,11.44-40.4c0,0,2.64-11.04-4.8-18.96c0,0-15.36-15.6-20.16-21.84c0,0-11.28-14.16-5.04-42l-3.84,3.12
		c0,0-3.6-5.76-6.72-8.16l-0.96,1.2c0,0-12.72-6.96-30.72-10.32l6.72,5.76c0,0-15.36,7.68-23.04,14.88c0,0-2.4,22.96-0.8,34.8
		c0,0,4.32,20.48,4.48,28.32c0,0,4.64-21.44,10.56-30.56c0,0,1.72,3.92,0.52,6.8c0,0,0.48,0.48,3.24-0.12c0,0-1.08,18.48-7.92,24.6
		c0,0,7.8-3.72,13.92-15.48c0,0,0.36,5.16,0.96,8.52l5.04-6.24c0,0-0.36,6-2.04,9.72c0,0,6.84-8.64,7.32-9.84
		c0,0-4.92,12.48-8.16,15.84c0,0,10.08-6.6,18-17.04c0,0,2.4,6.84-0.36,9.72c0,0-24.96,21-30.12,26.04c0,0-8.4,9.96-14.52,12
		c0,0-30.84,12.12-39,41.4c0,0-6.4,0.8-2.24,5.6c0,0,1.04,1.96-0.88,3.52c0,0-7.68,8.64-5.04,16.44c0,0,2.64,8.04,2.64,9
		c0,0,0.84,2.88-0.12,4.56l1.56,1.2c0,0,1.08-0.48,2.04-1.92c0,0,1.08,4.44,1.2,5.76c0,0,0,5.52,1.92,5.76c0,0,2.04,1.44,1.32-4.56
		c0,0-0.24-5.04-0.24-6.72c0,0-0.72-6.84,0.72-8.52c0,0,0.96,0.12,1.8,5.4c0,0,3,13.56,4.32,16.08c0,0,0.84,2.88,2.52,2.04
		c0,0,1.2-0.6,0.72-3.6c0,0,1.68,0.12,1.44-2.04c0,0-0.48-4.8-0.48-7.56c0,0-0.48-7.32,0-9.12c0,0,1.56,2.88,3.12,4.08
		c0,0,2.52,3.6,0.48-5.88c0,0-0.72-2.04-0.84-4.32c0,0-2.16-7.56-3-9.72c0,0,3.96,0.96,6.96,1.2c0,0,4.2,0.72,5.88-2.16
		c0,0,1.56-2.76-3-6.12l-10.2-6.48c0,0,6.76-20.32,27.88-30.4c0,0,7.68-0.96,11.84-8.32c0,0,2.08-4.96,9.6-6.4
		c0,0,5.92-2.56,12.16-8.64c0,0,4.48,5.6,11.52,8.32c0,0,3.44,16.4-0.88,27.44c0,0-27.12,68.63-30.24,77.27
		c0,0-17.76,30-68.39,38.16c0,0-47.76,6.24-44.16,26.4c0,0,8.16-16.08,114.95-14.64c0,0,18.72,3.36,42.24-3.12
		c0,0,10.8,54.72-4.08,69.35c0,0-0.26,0.07-0.72,0.19c-3.57-3.95-7.35-8.01-10.8-11.47c0,0,3.78,6.02,7.03,12.5
		c-1.92,0.54-4.31,1.24-6.89,2.06l-7.34-6.39l4.44,7.33c-3.4,1.13-6.91,2.42-9.94,3.76c-0.51-1.45-0.94-3.06-1.22-4.86
		c0,0-0.54,2.16-0.85,5.71c-0.82,0.27-2.38,0.81-4.03,1.59l-2.33-3.94l-1.28,6.13c-0.92,0.76-1.62,1.6-1.84,2.51
		c0,0-0.07,0.96,0.87,2.17l-0.15,0.71c0,0-5.28-10.56-3.84-16.32c0,0-1.92,8.16-1.44,16.32c0,0-12.96-26.88-14.4-36.48
		c0,0,3.36,24.48,7.2,36c0,0-19.68-7.2-23.52-7.68l7.68,12.96l-31.68-8.16l10.08,11.52c0,0-12.96-0.48-16.8,2.4l5.28,2.88
		c0,0-12,26.4-12.48,30.72c0,0,12.48-6.24,15.36-5.76c0,0-6.24,16.8-4.8,25.44c0,0,8.64-1.92,10.08-1.92c0,0-4.32,5.28-1.44,14.88
		c0,0,3.84,12.96-0.48,33.12h211.18V353.49z M189.52,171.55c-6.3,1.61-13.77-3.37-13.77-3.37l2.34-5.42
		C191.72,168.92,189.52,171.55,189.52,171.55z"/>
	<path class="st1" d="M104.62,374.92l-0.01,0.06c0,0-4.64,20.89,16.78,31.09c1.07,0.51,2.47,0.75,3.64,0.78
		c2.43,0.06,5.39-0.63,7.19-2.33c0.93-0.88,1.72-1.93,2.27-3.09c0.13-0.22,0.25-0.45,0.38-0.69c0,0,2.73-5.91-7.72-7.94
		c0,0-3.39-0.31-2.54-2.06c0,0,0.74-5.39-5.75-8.09c-0.15-0.06-0.3-0.13-0.45-0.2c1.93,0.57,3.3,0.63,3.66,0.02
		c0.77-1.31-3.31-5.15-9.13-8.58c-3.24-1.91-6.33-3.29-8.57-3.91c-0.07-0.05-0.14-0.1-0.22-0.15c-1.5-0.89-3.44-0.39-4.32,1.12
		c-0.89,1.5-0.39,3.44,1.11,4.32C102.14,375.98,103.62,375.79,104.62,374.92z"/>
	<path class="st1" d="M101.42,375.56l-1.66-0.31c0.77,0.04,1.17,0.02,1.17,0.02l-25.83-7.35c5.24,2.54,9.8,4.2,13.57,5.29
		l-28.45-5.23C88.11,380.29,101.42,375.56,101.42,375.56z"/>
	<path class="st1" d="M108.07,463.88c0,0,0.8-4.64,2.4-6.08c0,0,1.63,3.86,4.64,6.56h12.44c0.74-0.58,1.5-1.27,2.29-2.08
		c0,0,9.28-8.16,3.84-14.08c0,0-11.52-7.04-16.16-7.68l-0.09-0.06c0.25-0.46,0.41-0.98,0.41-1.54c0-0.87-0.35-1.66-0.91-2.23
		l25.23-15.04c-16.14,5.29-23.69,13-25.38,14.91c-0.44-0.4-0.99-0.68-1.6-0.78l9.87-19.73c-5.13,4.44-9.06,16.57-10.01,19.72
		c-0.13-0.02-0.25-0.04-0.39-0.04c-0.92,0-1.75,0.4-2.33,1.02c-0.64-1.78-4.77-12.43-12.39-14.78c0,0-11.2,2.56-13.12,15.68
		c0,0,2.08,6.24,4.32,8.8c0,0,0.8,3.36-3.2,8c0,0-7.07,6.27-0.49,9.92h20.6C108.04,464.2,108.06,464.04,108.07,463.88z"/>
	<path class="st1" d="M115.91,370.53c0.29-1.17,1.67-3.34,3.19-5.5c-1.36,2.54-2.23,4.78-2.23,4.78c1.92,7.92,10.8,8.16,10.8,8.16
		c4.42,0.12,5.33-3.44,5.13-7.05c0.55,2.89,0.87,4.89,0.87,4.89c6.72,5.52,14.16-2.88,14.16-2.88c0.48-1.44,2.16-5.28,2.16-5.28
		c1.53-3.76-2.42-6.46-6.02-8.08l3.86,1.36c6-3.36,3.36-9.12,3.36-9.12c-2.16-2.16-3.6-5.04-3.6-5.04
		c-4.8-4.56-12.96,1.92-12.96,1.92c4.8-15.12,20.16-14.4,20.16-14.4c-2.16,3.36,0.24,7.2,0.24,7.2c0.72,2.4-2.4,4.8-2.4,4.8
		c8.4-0.48,5.52-11.04,5.52-11.04c12.24,3.36,14.64,16.32,14.64,16.32l1.2,0.96c-1.92-13.92-15.84-20.88-15.84-20.88
		c-9.36-14.64-20.16-13.2-20.16-13.2c3.6,5.52,12.96,11.28,12.96,11.28c-17.28,5.04-18.48,18.48-18.48,18.48
		c-1.68-6-8.88-11.28-8.88-11.28c-0.96,0.96-4.56,2.4-4.56,2.4c-3.6,0.72-5.76,8.64-5.76,8.64c-0.22,2.49,1.76,4.58,4,6.14
		c0,0,0,0-0.01,0.01c-2.07-1.41-3.75-2.78-3.75-2.78c-5.76-0.72-7.2,2.88-7.2,2.88C102.23,372.21,115.91,370.53,115.91,370.53z"/>
</g>
</svg>
