<?xml version="1.0" encoding="utf-8"?>
<!-- Generator: Adobe Illustrator 23.0.3, SVG Export Plug-In . SVG Version: 6.00 Build 0)  -->
<svg version="1.1" id="Layer_1" xmlns="http://www.w3.org/2000/svg" xmlns:xlink="http://www.w3.org/1999/xlink" x="0px" y="0px"
	 viewBox="0 0 90.19 100.29" style="enable-background:new 0 0 90.19 100.29;" xml:space="preserve">
<style type="text/css">
	.st0{fill:#010101;}
</style>
<path class="st0" d="M75.19,49.79l10.8-14.7c2.8-3.9,4.2-8.5,4.2-13.2c0-12.3-10.3-21.8-22.4-21.8c-7.1,0-14.1,3.5-18.5,9.5
	l-5.4,7.3C41.9,7.1,33.3,0,22.4,0C9.8,0,0,10,0,22.3v55.69c0,12.3,9.9,22.3,22.4,22.3c10.8,0,19.2-6.6,21.4-16.3l4.7,6.6
	c4.4,6.3,11.6,9.6,18.7,9.6c12.8,0.2,23-10.1,23-22.4c0-4.7-1.3-9.1-4.2-13.1L75.19,49.79z"/>
</svg>
