<?xml version="1.0" encoding="utf-8"?>
<!-- Generator: Adobe Illustrator 23.0.3, SVG Export Plug-In . SVG Version: 6.00 Build 0)  -->
<svg version="1.1" id="Layer_1" xmlns="http://www.w3.org/2000/svg" xmlns:xlink="http://www.w3.org/1999/xlink" x="0px" y="0px"
	 viewBox="0 0 640 536.95" style="enable-background:new 0 0 640 536.95;" xml:space="preserve">
<style type="text/css">
	.st0{fill-rule:evenodd;clip-rule:evenodd;fill:#010101;}
</style>
<path class="st0" d="M553.98,361.85c2.55-11.73,3.99-23.27,4.56-34.51c21.11,11.1,42.94,23.41,65.4,37.1
	c0,0-16.07-249.04-190.13-364.18c0,0-166.03-8.03-318.66,64.27L98.49,20.59L42.84,144.87L0,160.93l42.84,26.78l16.07,26.78
	c0,0,16.07,141.92,85.69,273.14l2.43-38.4c29.78,36.91,70.46,64.37,114.54,77.62c55.9,17.06,115.81,11.84,164.57-10.59
	c32.09-14.43,59.15-35.71,80.13-60.14l50.7,36.87v-42.84l83.01-8.03C618.78,410.28,572.35,375.09,553.98,361.85z M498.99,450.8
	c-9.18,9.9-18.73,18.49-28.02,25.54c7.21-6.07,21.91-20.29,29.59-29.77c-1.57,2.29-2.47,3.57-2.47,3.57L498.99,450.8z
	 M546.28,356.42c-2.02,22.27-28.55,64.45-41.36,83.7c-15.14,19.09-41.87,41.92-57.86,49.47c6.61-4.22,20.39-16.35,28.56-21.75
	c-3.85,3.62-9.89,8.01-10.09,8.94c8.8-6.75,21.57-17.95,33.42-32.28c12.02-14.18,22.51-31.76,29.39-48.18
	c-13.4,27.69-36.24,57.39-65.8,79.22c-29.33,22.14-64.51,35.74-95.49,40.53c5.28-2.2,23.01-6.35,33.45-11.08
	c-46.44,14.74-99.42,13.51-146.51-5.47c-42.87-16.91-80.39-48.75-104.52-89.05l8.51-134.39l32.62,19.57
	c-3.29,21.65,0.65,44.56,11.61,63.67c12.41,22.09,33.5,38.66,56.92,45.67c23.46,7.11,48.42,4.6,68.72-4.81
	c20.46-9.36,35.58-25.62,44.24-42.67c8.17-16.6,8.8-32.96,6.66-46.82c0.04,12.96-3.81,27.5-10.75,39.67
	c-6.78,12.33-16.55,21.99-25.42,28.28c3.12-3.55,12.02-11.27,12.52-14.73c-6.11,7.06-16.22,16.12-22.81,18.27
	c2.48-1.73,6.97-7.21,10.67-8.48c-1.36,1.49-3.78,2.98-3.64,3.62c6.76-4.9,19.14-17.84,22.73-31.14
	c-9.41,21.47-37.03,41.73-60.53,43.92c1.81-1.68,8.26-3.37,11.87-5.58c-34.34,9.93-75.16-6.58-91.5-39.88
	c-5.9-10.85-8.52-23.03-8.28-35.17l24.71,14.83l4.14-73.81c1.27-0.97,2.57-1.92,3.92-2.8c9.5-6.45,20.37-11.95,32.7-13.5
	c9.59-1.1,19.08,0.52,27.87,2.38c8.49,1.77,17.32,4.08,25.17,9.03c27.37,17.8,36.76,45.27,43.12,65.12
	c-0.64-24.81-4.01-40.78-17.78-59.84c13.79,13.03,21.91,31.26,24.84,50.23c0.13-12.84-3.6-25.22-13.24-42.23
	c-2.11-3.58-4.55-7.13-7.29-10.58c32.84,9.03,71.53,21.89,114.79,40.19c-9.81,5.84-16.88,15.63-18.95,25.18
	c-6.03,20.82,7.72,44.83,28.06,50.13c20.23,6.34,40.84-5.94,46.31-20.66c2.94-7.02,1.65-13.96-0.58-19.03
	c0.25,10.03-8.04,20.16-14.77,23.41c0.63-1.71,4.13-3.9,3.54-5.69c-2.34,2.05-5.48,5.32-8.13,5.23c0.71-0.78,1.36-3.39,3.2-2.98
	c-0.4,0.52-1.23,0.9-0.94,1.42c2.09-1.6,6.21-5.89,6.07-10.59c-3.18,6.45-11.79,11.94-18.59,12.33c0.35-1.56,2.1-2.11,2.87-3.31
	c-9.86,0.65-18.39-4.31-22.18-11.94c-3.96-7.49-1.98-17.88,5.21-23.28c2.19-1.67,4.59-3.97,7.84-4.42c2.53-0.3,4.89,0.79,7.14,0.98
	c2.18,0.18,4.95-0.18,7.23,1.04c7.83,4.53,11.39,10.99,18,17.8c-0.02-4.53,0.23-8.5-0.27-12.4c1.97,0.96,3.94,1.93,5.92,2.91
	c0.69,1.85,1.26,3.76,1.7,5.69c0.31-1.61,0.31-3.19,0.1-4.8c7.1,3.52,14.29,7.2,21.57,11.01c-1.31,10.85-3.49,21.89-6.51,32.8
	C547.77,357.44,546.28,356.42,546.28,356.42z"/>
</svg>
