<?xml version="1.0" encoding="utf-8"?>
<!-- Generator: Adobe Illustrator 23.0.3, SVG Export Plug-In . SVG Version: 6.00 Build 0)  -->
<svg version="1.1" id="Layer_1" xmlns="http://www.w3.org/2000/svg" xmlns:xlink="http://www.w3.org/1999/xlink" x="0px" y="0px"
	 viewBox="0 0 480 441.6" style="enable-background:new 0 0 480 441.6;" xml:space="preserve">
<style type="text/css">
	.st0{clip-path:url(#SVGID_2_);}
	.st1{fill:#EC2129;}
	.st2{fill:#F89621;}
	.st3{fill:#F3EB3B;}
	.st4{fill:#04A74E;}
	.st5{fill:#22AAE2;}
	.st6{fill:#912A8D;}
</style>
<g>
	<defs>
		<path id="SVGID_1_" d="M471.75,433.36c-11,11-28.82,11-39.82,0l-60.11-60.11l39.82-39.82l60.11,60.11
			C482.75,404.53,482.75,422.36,471.75,433.36z M428.48,223.24L205.24,0c-4.38,16.87-13.16,32.84-26.38,46.06
			c-39.55,39.55-103.68,39.55-143.23,0c-8.02-8.02-14.38-17.05-19.14-26.67C-10.41,64.65-4.39,124.05,34.55,162.99l227.09,227.09
			c12.74,12.74,33.6,12.74,46.34,0l120.5-120.5C441.22,256.84,441.22,235.98,428.48,223.24z"/>
	</defs>
	<clipPath id="SVGID_2_">
		<use xlink:href="#SVGID_1_"  style="overflow:visible;"/>
	</clipPath>
	<g class="st0">
		
			<rect x="-220.06" y="-41.88" transform="matrix(0.7071 -0.7071 0.7071 0.7071 -24.0092 100.7506)" class="st1" width="659.34" height="242.48"/>
		<path class="st2" d="M-75.02,360.95c0,0,162.04-249.75,453.55-478.91L483.24-13.24L17.01,452.98L-75.02,360.95z"/>
		<path class="st3" d="M-45.43,390.54c0,0,164.82-207.09,493.17-439.28l90.88,90.88L72.4,508.37L-45.43,390.54z"/>
		<path class="st4" d="M44.92,480.89c0,0,129.55-208.94,447.7-484.75L597.8,101.32L131.58,567.55L44.92,480.89z"/>
		<path class="st5" d="M99.87,535.84c0,0,182.64-281.97,438.22-494.23l156.4,156.4L228.27,664.24L99.87,535.84z"/>
		<path class="st6" d="M183.86,619.83c0,0,147.75-259.72,422.92-509.53L722.5,226.02L256.27,692.25L183.86,619.83z"/>
	</g>
</g>
</svg>
