<?xml version="1.0" encoding="utf-8"?>
<!-- Generator: Adobe Illustrator 23.0.3, SVG Export Plug-In . SVG Version: 6.00 Build 0)  -->
<svg version="1.1" id="Layer_1" xmlns="http://www.w3.org/2000/svg" xmlns:xlink="http://www.w3.org/1999/xlink" x="0px" y="0px"
	 viewBox="0 0 493 438.54" style="enable-background:new 0 0 493 438.54;" xml:space="preserve">
<style type="text/css">
	.st0{fill:#010101;}
</style>
<g>
	<path class="st0" d="M305.73,64.88c-11.32-11.72-0.25-26.56-0.25-26.56c8.07-9.01,10.68,8.19,10.68,8.19
		C318.49,61.89,305.73,64.88,305.73,64.88 M276.12,79.09c0,0-21.12-0.85-13.27-20.78c0,0,12.25-20.44,29.61-7.83
		C292.46,50.48,303.87,72.95,276.12,79.09 M263,93.28l0.13-3.65c6.51,0,15.62,2.23,15.62,2.23C267.54,90.95,263,93.28,263,93.28
		 M244.53,85.38c-2.96,0-5.36-2.4-5.36-5.36c0-2.96,2.4-5.36,5.36-5.36c2.96,0,5.36,2.4,5.36,5.36
		C249.89,82.98,247.49,85.38,244.53,85.38 M260.89,45.08l0.79,1.06l-15.1,7.92l-0.13-2.34L260.89,45.08z M82.04,153.54
		c0,0-2.41-2.19-3.93-1.79l4.81-2.19l3.44,0.33L82.04,153.54z M68.08,149.77l-3.62-1.65c0,0,4.04-2.07,8.58-4.18l5.14,0.54
		L68.08,149.77z M52.37,147.49c0,0-6.24-3.77-10.16-3.35c0,0,13.93-8.65,31.92-7.85l4.13,0.98
		C78.26,137.27,55.47,141.59,52.37,147.49 M436.59,186.84l24.91,1.28l-3.43,8.03l-21.79-2.37L436.59,186.84z M455.39,161.83
		l18.41,2.44l-2.14,5.14l-18.81-0.85L455.39,161.83z M463.64,178.41l-4.92-0.34l0.21-4.69l6.63,0.52L463.64,178.41z M450.59,204.39
		l-7.81-1.42l0.34-3.84l8.86,1.07L450.59,204.39z M493,274.97l-1.95-2.7c0,0-30.88,0.37-40.9,0l7.33-13.53l-22.67-10.36
		c0.24-0.04,1.24-0.97,4.92-8.91l10.42-1.18c0,0,24.32-62.53,37.04-81.06l-30.49-9.28c0,0,0.77-11.57-11.2-20.45l1.55-14.28
		c0,0-40.53-33.22-71.03-42.85c0,0-22.37,9.64-30.1,31.65l-8.1,1.16c0,0-3.1-4.65-8.49-3.47l-5.02-0.78l1.55-3.48l-5.03,0.77
		l8.1-10.8l-1.54-8.49l10.8,3.07l1.55-3.07h1.54c0,0,4.65-5.8,4.65-13.14l-2.71-3.08v-4.24l-15.43-16.59c0,0,0-10.83-9.28-11.98
		c0,0-4.23-1.92-12.72,7.33l-11.98-5.01c0,0-13.61,0.98-26.39,2.28l18.3-17.34l8.85,3.69l5.9-6.64l-0.88-0.73l-5.47,5.75l-8.56-3.83
		l4.14-2.22l-3.23-2.5l-1.19,0.73l2.65,1.62l-3.66,1.76l-6.81-4.41l3.83-2.79l1.94,1.33l0.58-0.76l-1.62-1.91l4.42-3.23L285.71,0
		l-4.27,3.53L279.8,2.8l-0.58,0.44l1.63,1.33l-5.6,3.08l8.4,6.49l-3.4,2.95l-2.35-1.77l-0.58,0.74l1.76,2.06l-3.23,3.26l-2.96-2.68
		l-0.58,0.75l2.5,3.1l-9.93,10.22c-8.76,0.91-16.64,1.95-18.92,2.86c0,0-9.65,30.5-10.44,35.52c0,0-11.19,4.63-3.08,17.77
		c0,0-52.5,3.07-60.61,12.74c0,0-1.55,14.27,0.39,18.9c0,0-18.91-1.55-29.33,1.53c0,0-3.1-10.8-22.79-15.04
		c0,0-14.3-0.77-21.63,10.82c0,0-36.27,5.41-72.18,32.42l8.12,25.08l1.53,1.18c0,0-18.14,21.61-29.34,25.46
		c0,0-5.78,1.94-6.58,13.51c0,0,28.21,28.19,30.91,37.07l4.25,3.86l2.71,0.77c0,0,12.35-1.92,33.2,18.53c0,0,15.82-11.2,20.45-14.28
		l13.9-4.65c0,0,2.71-22.37,12.35-24.29c0,0-13.12-21.63-9.64-30.12c0,0,12.33,0.77,23.16-1.94l6.55-11.57
		c0,0,11.59-8.51,65.62,11.2c0,0,10.04-7.36,19.69-22.01c0,0,29.73,23.92,64.87,18.9c0,0,27.39,18.16,29.73,12.73l8.1,1.95l1.92,2.7
		l-0.39,3.49l-0.39,3.84l2.32,8.5l-3.1,2.7l4.62,5.02c0,0-10.8,3.49-13.09,5.02l0.37,6.94c0,0-20.46-14.28-22.4-15.04
		c0,0-38.21,61.37-40.53,66.01l51.73,27.4l-39.38,9.65l33.1,100.64h144.11l21.61-110.68l-22.39-0.39
		C443.96,327.47,484.88,293.89,493,274.97"/>
</g>
</svg>
