<?xml version="1.0" encoding="utf-8"?>
<!-- Generator: Adobe Illustrator 23.0.3, SVG Export Plug-In . SVG Version: 6.00 Build 0)  -->
<svg version="1.1" id="Layer_1" xmlns="http://www.w3.org/2000/svg" xmlns:xlink="http://www.w3.org/1999/xlink" x="0px" y="0px"
	 viewBox="0 0 1024 356.75" style="enable-background:new 0 0 1024 356.75;" xml:space="preserve">
<style type="text/css">
	.st0{fill:#010101;}
</style>
<g>
	<path class="st0" d="M1023.79,275.51c-0.08-0.12-0.18-0.23-0.29-0.33c-1.53-1.36-2.07-2.8-1.16-4.9c0.96-2.21,0.42-3.27-1.56-4.69
		c-0.24-0.17-0.51-0.3-0.76-0.47c-0.36-0.24-0.73-0.47-0.77-0.53c-0.89-1.3-1.04-2.69-0.91-3.78c0.13-1.08,0.91-1.83,1.39-2.66
		c0.17-0.3,0.46-0.56,0.76-0.75c0.73-0.47,0.9-1.11,0.71-1.92c-0.12-0.5-0.25-1.02-0.21-1.52c0.09-1.09-0.24-2.03-0.76-2.96
		c-1.15-2.03-2-4.13-1.61-6.55c0.03-0.21-0.07-0.45-0.03-0.66c0.35-1.79-0.6-3.1-1.61-4.38c-0.23-0.29-0.55-0.51-0.62-0.71
		c-0.34-0.89,0.19-1.82-0.05-2.54c-0.24-0.72-1.24-1.15-1.38-1.91c-0.28-1.44-0.03-2.67-0.69-3.82c-0.4-0.7-0.56-1.34-0.36-2.1
		c0.3-1.13,0.73-2.25,0.86-3.41c0.11-0.99,0.54-1.65,1.25-2.23c0.33-0.27,0.87-0.41,0.98-0.85c0.3-1.17-0.57-2.26-1.31-3.13
		c-0.68-0.8-0.97-1.61-0.53-2.65c0.29-0.69,0.03-1.31-0.59-1.75c-1.08-0.75-1.46-1.88-0.96-2.88c0.36-0.73,1.34-0.99,1.5-1.7
		c0.23-1.02-0.93-1.9-0.8-2.89c0.1-0.73,0.69-1.31,1.14-1.88c0.25-0.32,0.74-0.46,1.11-0.69c0.52-0.33,0.65-0.87,0.44-1.36
		c-0.22-0.52-0.58-1.03-1-1.41c-0.49-0.44-1.12-0.72-1.66-1.1c-1.05-0.74-1-0.8-0.73-2c0.46-2.05,1.28-4.11,0.27-6.24
		c-0.05-0.1,0.02-0.29,0.1-0.41c0.08-0.12,0.23-0.19,0.35-0.25c1.71-0.9,2.09-1.77,1.56-3.57c-0.12-0.42-0.24-0.85-0.25-1.28
		c-0.01-0.56-0.2-1.01-0.61-1.37c-0.38-0.33-0.95-0.55-1.06-0.95c-0.35-1.18,0.97-1.96,1.81-2.61c0.28-0.22,0.63-0.53,0.68-0.84
		c0.2-1.33,0.36-2.75-0.75-3.75c-0.72-0.65-1.09-1.28-1.11-2.26c-0.01-0.54-0.6-0.97-0.43-1.65c0.36-1.45-0.31-2.86-0.15-4.1
		c0.18-1.39,1.44-2.14,2.05-3.14c0.66-1.09,0.53-1.67-0.49-2.46c-0.23-0.18-0.48-0.36-0.75-0.48c-1.02-0.46-1.98-0.97-2.78-1.79
		c-0.9-0.93-2.27-0.54-3.34-1.03c-0.13-0.06-0.25-0.15-0.39-0.21c-2.42-1.03-5.01-1.36-7.57-1.5c-1.51-0.08-2.88-0.29-4.24-0.95
		c-1.32-0.64-2.7-1.15-4.23-1.15c-1.47,0-2.26,0.63-2.15,2.09c0.11,1.4,0.38,2.78,0.61,4.17c0.14,0.85,0.71,2.9-0.36,3.27
		c-0.07,0.02-0.13-0.06-0.17-0.12c-0.13-0.18-0.29-0.35-0.38-0.55c-0.77-1.85-2.14-2.98-4.05-3.49c-3.15-0.83-6.23-1.86-9.32-2.88
		c-2.94-0.97-6-1.6-9.01-2.37c-0.57-0.14-1.17-0.31-1.74-0.28c-2.13,0.12-4.29-0.29-6.38,0.46c-0.39,0.14-0.88,0.05-1.32,0.02
		c-0.63-0.05-1.17,0.18-1.65,0.54c-1.05,0.78-1.84,1.7-1.81,3.13c0.01,0.5,0.26,1.18-0.18,1.6c-0.65,0.62-1.34,0.65-1.63,1.51
		c-0.84,2.45-1.73,4.88-2.65,7.3c-0.81,2.12-0.51,5.12-2.49,6.38c-0.59,0.37-1.28,0.03-1.89-0.42c-0.58-0.43-1.27-0.79-1.97-0.96
		c-1.29-0.31-2.61-0.56-3.93-0.63c-1.34-0.07-2.65,0.53-3.33,1.75c-1.11,1.99-1.15,4.49-2.2,6.63c-0.29,0.59-0.48,1.26-0.54,1.91
		c-0.09,0.93-0.43,1.72-0.95,2.45c-0.74,1.05-1.11,2.21-1.44,3.44c-0.99,3.71-1.69,7.51-3.07,11.12c-0.21,0.55-0.29,1.15-0.41,1.73
		c-0.7,3.56-1.4,7.11-2.09,10.67c-0.21,1.09-0.38,2.18-0.59,3.27c-0.08,0.43-0.18,0.87-0.33,1.28c-0.25,0.7-0.83,0.76-1.37,0.26
		c-0.34-0.32-0.44-1.57-1.18-0.97c-0.37,0.31-0.39,0.98-0.54,1.52c-1.02,3.7-1.77,7.47-2.55,11.23c-0.54,2.62-1.08,5.21-2,7.72
		c-0.11,0.3-0.14,0.79-0.45,0.86c-1.44,0.32-2.89-1.22-3.25-2.45c-0.21-0.72,0.63-1.3,0.69-1.93c0.09-0.98,0.63-1.63,1.28-2.24
		c0.26-0.25,0.6-0.44,0.71-0.67c0.78-1.68-2.07-2.09-2.3-3.4c-0.02-0.14-0.03-0.24,0-0.29c1.12-1.35,1.5-2.7,0.07-4.12
		c-0.34-0.34-0.33-0.84-0.03-1.23c0.9-1.15,2.27-2.03,2.78-3.47c1.33-3.68-1-2.92-2.91-5.98c-0.1-0.16-0.15-0.44-0.08-0.62
		c0.45-1.15,0.85-2.29,1.97-3.07c0.94-0.66,2.26-1.27,2.52-2.4c0.45-1.92-2.7-2.31-3.58-3.65c-0.45-0.69-0.02-1.34,0.41-1.8
		c0.7-0.76,0.54-1.46-0.07-2.16c-0.13-0.15-0.3-0.34-0.3-0.54c0-0.49,0.52-0.79,0.57-1.08c0.2-1.13-0.18-2.18-0.48-3.14
		c-0.25-0.77-0.16-1.41,0.04-2.14c0.37-1.38,1.3-2.33,2.34-3.15c0.57-0.45,0.98-0.85,1.01-1.59c0.01-0.2,0.13-0.43,0.26-0.6
		c0.82-1.03,0.44-1.92-0.25-2.81c-0.41-0.52-0.76-1.1-1.22-1.58c-0.49-0.51-1.36-0.73-1.59-1.35c-0.32-0.88,0.73-1.44,1.33-1.84
		c1.19-0.78,1.74-1.79,1.47-3.19c-0.25-1.32,0.41-2.1,1.52-2.63c0.47-0.22,0.96-0.41,1.38-0.7c1.08-0.75,1.24-1.86,0.42-2.86
		c-0.62-0.75-1.37-1.33-2.31-1.67c-0.33-0.12-0.81-0.32-0.87-0.56c-0.26-1.04-1.17-1.26-1.92-1.7c-1.73-1.02-3.5-1.89-5.55-2.12
		c-1.25-0.14-2.47-0.48-3.71-0.71c-0.51-0.1-1.05-0.3-1.52-0.2c-1.15,0.25-2.22-0.03-3.28-0.31c-1.73-0.46-3.43-0.67-5.24-0.61
		c-1.88,0.06-3.46,0.58-4.87,1.78c-0.38,0.32-0.84,0.71-1.3,0.74c-1.46,0.12-2.06,1.01-2.32,2.28c-0.5,2.45-1.7,4.55-3.24,6.49
		c-0.36,0.46-0.63,1-0.85,1.55c-0.59,1.51-1.12,3.04-1.71,4.55c-0.13,0.33-0.42,0.6-0.61,0.91c-0.7,1.13-1.41,2.25-2.06,3.41
		c-0.62,1.09-1.16,2.22-1.75,3.33c-0.45,0.85-0.92,1.69-1.36,2.53c-0.55,1.05-1,2.16-1.66,3.14c-2.04,3.02-3.14,6.52-5.06,9.6
		c-0.74,1.19-1.46,2.4-2.25,3.56c-0.47,0.69-0.95,0.77-1.75,0.48c-0.34-0.13-0.69-0.28-0.99-0.49c-0.71-0.47-0.91-1.42-0.44-2.16
		c0.19-0.3,0.51-0.52,0.77-0.78c0.61-0.62,1.06-1.54,0.75-2.2c-0.57-1.2-0.13-2.66-1.17-3.73c-0.7-0.72-0.58-1.63,0-2.45
		c0.17-0.24,0.32-0.5,0.44-0.77c0.38-0.87,0.99-1.46,1.94-1.66c0.14-0.03,0.29-0.05,0.43-0.11c0.95-0.39,1.19-1.1,0.56-1.93
		c-0.35-0.46-0.8-0.9-1.29-1.19c-1.04-0.61-1.45-1.46-1.23-2.6c0.26-1.38,0.39-2.77,0.39-4.18c0-0.51,0.11-1.04,0.29-1.52
		c0.28-0.74,0.21-1.42-0.03-2.16c-0.48-1.46-0.44-2.92,0.2-4.34c0.24-0.54,0.51-1.06,0.34-1.7c-0.38-1.44,0.2-2.6,1.14-3.64
		c0.29-0.33,0.57-0.68,0.79-1.06c0.29-0.51,0.21-1.07-0.24-1.41c-1.68-1.27-3.07-3.03-5.36-3.33c-0.65-0.09-1.3-0.23-1.94-0.4
		c-0.85-0.23-1.8-0.34-2.52-0.79c-1.78-1.12-3.71-1.13-5.38-0.32c-1.12,0.55-2.03,0.66-3.14,0.48c-1.02-0.16-2.05-0.27-3.08-0.37
		c-0.74-0.07-1.4-0.23-2.03-0.73c-0.91-0.73-2.05-0.81-3.18-0.68c-1.25,0.14-1.76,0.91-1.5,2.19c0.04,0.22,0.12,0.43,0.19,0.64
		c0.87,2.94,1.01,5.98,1.16,9c0.06,1.3-0.2,2.46-1.25,3.61c-1.45,1.58-2.17,3.7-3.25,5.55c-0.07,0.12-0.07,0.29-0.12,0.43
		c-0.68,1.87-1.3,3.76-2.31,5.49c-0.26,0.44-0.45,0.95-0.53,1.46c-0.18,1.16-0.75,2.06-1.54,2.89c-0.9,0.94-1.46,2.04-1.45,3.38
		c0,0.22,0,0.46-0.08,0.66c-0.38,0.94-0.38,2.1-1.28,2.73c-0.56,0.39-0.75,0.81-0.85,1.43c-0.28,1.84-0.93,3.65-2.07,5.04
		c-1.3,1.59-1.12,3.39-1.87,5.21c-0.49,1.19-1.39,1.94-1.76,3.09c-0.41,1.26-0.97,2.47-1.52,3.67c-0.86,1.88-1.96,3.67-2.62,5.62
		c-0.66,1.94-2.01,3.44-2.84,5.24c-0.1,0.22-0.7,0.41-0.92,0.3c-0.25-0.11-0.44-0.58-0.45-0.9c0-0.33,0.18-0.72,0.4-1
		c0.37-0.46,0.8-0.86,1.25-1.25c0.69-0.6,0.97-1.26,0.54-2.16c-0.22-0.46-0.36-0.97-0.43-1.48c-0.15-1.17-0.67-2.08-1.59-2.83
		c-0.43-0.35-1.29-0.81-0.87-1.56c0.53-0.94,1.87-1.32,2.6-2.2c0.79-0.95,1.78-1.98,1.85-3.07c0.09-1.44-1.01-2.5-1.56-3.62
		c-0.58-1.17-2.21-2.15-1.94-3.51c0.17-0.81,1.69-0.64,1.82-1.42c0.25-1.4-1.96-2.13-2.11-3.36c-0.21-1.76,2.66-1.47,3.21-2.75
		c0.77-1.78-0.8-3.39-1.36-5.03c-0.29-0.85-1.15-1.1-1.78-1.6c-0.81-0.63-0.93-1.21-0.36-2.11c0.27-0.43,0.67-0.78,1-1.16
		c0.29-0.33,0.72-0.62,0.84-1c0.46-1.53,0.12-3,0.71-4.68c0.73-2.06,1.68-2.93,1.06-4.27c-0.15-0.32-0.49-0.44-0.74-0.59
		c-1-0.62-2-1.21-2.82-2.12c-0.46-0.51-1.25-0.9-1.94-0.99c-1.7-0.23-3.3-0.81-4.95-1.21c-2.8-0.68-5.62-1.24-8.27-2.45
		c-0.59-0.27-1.29-0.32-1.94-0.41c-2.14-0.28-4.22-0.74-6.16-1.75c-2.1-1.09-4.2-2.17-6.36-3.12c-2.29-1.01-4.48-2.27-6.93-2.94
		c-1.2-0.33-2.41-0.65-3.43-1.47c-0.37-0.3-0.95-0.36-1.45-0.49c-1.93-0.5-3.85-1-5.78-1.45c-1.36-0.32-2.74-0.78-4.12-0.81
		c-4.21-0.1-7.59,1.63-10.07,5.06c-0.26,0.35-0.39,0.86-0.73,1.08c-1.2,0.8-1.64,2.02-2.08,3.29c-0.35,1.01-0.56,2.15-1.7,2.72
		c-0.26,0.13-0.43,0.62-0.48,0.97c-0.24,1.58-1.1,2.85-1.92,4.16c-0.19,0.31-0.29,0.68-0.41,1.02c-0.39,1.07-0.75,1.92-1.72,2.9
		c-0.57,0.58-0.67,1.48-0.97,2.23c-0.28,0.69-0.74,1.08-1.51,1.09c-0.3,0-0.59,0.01-0.89,0.03c-3.68,0.24-7.36,0.54-11.05,0.71
		c-2.06,0.09-4.14-0.05-6.21-0.1c-0.11,0-0.25-0.14-0.33-0.26c-0.08-0.12-0.15-0.34-0.1-0.41c0.87-1.11,0.83-2.28,0.3-3.51
		c-0.05-0.11-0.09-0.35,0.11-0.57c0.27-0.31,0.94-0.19,1.29-0.48c0.37-0.31,0.5-0.9,0.84-1.26c0.28-0.3,0.7-0.5,1.09-0.66
		c0.38-0.16,1.05,0.11,1.32-0.34c0.28-0.48-0.13-1.05-0.38-1.34c-1.23-1.44-2.1-3.07-2.66-4.85c-0.37-1.18-1.1-1.72-1.54-2.65
		c-0.89-1.87-1.51-1.32-1.91-4.08c-0.06-0.41,0.42-0.73,0.57-1.13c0.16-0.4,0.22-0.84,0.28-0.96c0.52-1,2.13-0.51,2.19-1.61
		c0.01-0.21-0.13-0.49-0.16-0.78c-0.16-1.53-0.94-2.45-2.53-2.59c-0.14-0.01-0.61-0.12-0.5-0.44c0.51-1.44,3.36,0.74,4.26-0.37
		c0.75-0.91,0.46-2.3-0.2-3.3c-0.94-1.41-1.85-2.86-3.38-3.77c-0.43-0.25-0.8-0.65-1.12-1.05c-0.59-0.75-0.71-1.67,0-2.19
		c0.77-0.57,0.57-1.48,1.02-2.01c0.43-0.5,1.1-0.56,1.6-0.81c0.57-0.28,1.28-0.37,1.72-0.85c0.48-0.52,0.05-1.28-0.2-1.91
		c-0.55-1.4-1.48-3.14-0.43-4.52c0.36-0.47,1.16-0.64,1.79-1c0.59-0.34,0.77-0.92,0.47-1.51c-0.1-0.2-0.21-0.4-0.36-0.55
		c-1.06-1.03-1.86-2.3-3.16-3.11c-0.53-0.33-1.11-0.84-1.2-1.34c-0.28-1.48,1.43-2.58,1.37-3.82c-0.08-1.76-0.96-3.29-1.74-4.83
		c-0.73-1.43,0.1-2.51,1.72-2.86c0.14-0.03,0.3-0.03,0.44-0.06c1.04-0.24,1.32-1.01,0.59-1.75c-0.61-0.62-1.78-0.9-1.98-1.81
		c-0.21-0.93,0.64-1.72,1.07-2.48c0.38-0.67,0.32-1.24,0.04-1.9c-0.35-0.82-0.72-1.64-0.93-2.49c-0.13-0.54-0.12-1.21,0.09-1.72
		c0.36-0.87,0.93-1.66,1.41-2.49c0.36-0.64,0.69-1.29,1.08-1.91c0.38-0.62,0.7-1.37,1.25-1.78c0.83-0.62,1.32-1.32,1.52-2.33
		c0.14-0.72,0.54-1.37,0.78-2.08c1.3-3.86,0.23-6.05-3.49-7.53c-0.21-0.08-0.42-0.16-0.63-0.22c-1.42-0.4-2.84-0.79-4.26-1.2
		c-2.2-0.63-4.48-0.89-6.66-1.64c-1.19-0.41-2.63-0.71-3.73-0.06c-1.18,0.69-1.99,0.65-3.07,0.41c-0.72-0.16-1.44-0.36-2.17-0.45
		c-0.7-0.08-1.23-0.29-1.65-0.93c-0.51-0.77-1.33-1.19-2.25-1.28c-1.75-0.17-3.71-1.28-5.3-0.41c-0.6,0.32-0.64,1.09-0.87,1.63
		c-0.11,0.25-0.15,0.59-0.08,0.86c0.3,1.13,0.68,2.24,0.98,3.38c0.23,0.86,0.41,1.73,0.57,2.6c0.17,0.94,0.3,1.89,0.43,2.84
		c0.18,1.38,0.7,2.73,0.19,4.16c-0.11,0.31-0.02,0.75,0.12,1.07c0.59,1.35,0.41,2.68,0.26,4.11c-0.16,1.45,0.43,2.45,0.67,4.4
		c0.13,1.03-0.36,1.49-0.4,2.62c-0.01,0.33-0.34,0.43-0.49,0.59c-0.88,0.95-0.87,1.64,0.06,2.37c0.35,0.27,0.76,0.46,1.12,0.72
		c0.91,0.65,0.86,1.03-0.13,1.5c-0.32,0.15-0.87,0.16-0.98,0.58c-0.15,0.6,0.92,0.9,0.83,1.4c-0.11,0.64-1.27,0.63-1.44,1.16
		c-0.22,0.68,0.58,1.31,0.44,1.77c-0.49,1.58-0.29,3.03,0.35,4.49c0.09,0.2,0.13,0.42,0.12,0.55c-0.12,1.96-2.54,3.68-1.5,5.43
		c0.5,0.84,2.08,0.92,2.06,1.82c-0.03,1.42-1.4,1.34-1.57,2.54c-0.05,0.34,0.24,0.88,0.08,1.03c-0.86,0.82-0.97,1.87-0.8,2.81
		c0.2,1.14,2.35,0.72,2.48,1.75c0.11,0.86-2.24,0.37-1.84,1.47c0.14,0.39,0.97,0.44,1,0.9c0.03,0.51-0.85,0.6-0.85,0.99
		c-0.01,0.93,0.67,0.9,0.47,0.97c-0.86,0.35-0.45,1.47-1.1,1.81c-0.92,0.49-0.57,1.43-0.88,2.12c-0.38,0.84-0.49,1.84-0.53,2.78
		c-0.04,0.92,0.28,1.75,1.31,2.08c0.33,0.1,1.05-0.02,1.13,0.53c0.13,0.82-1.08,1-1.55,1.46c-0.31,0.31-0.62,0.64-0.89,0.98
		c-0.32,0.4-0.17,0.84-0.01,1.26c0.13,0.34,0.35,0.4,0.69,0.28c0.09-0.03,0.35,0.11,0.35,0.13c-0.21,1.12,1.59,1.28,1.38,2.09
		c-0.2,0.78-2.17,0.05-1.99,1.18c0.1,0.67,0.81,1.02,1.47,1.24c0.35,0.12,1.05,0.39,0.71,0.77c-0.19,0.21-0.59,0.02-0.87,0.09
		c-0.49,0.13-1.03,0.24-1.44,0.51c-0.24,0.16-0.37,0.62-0.37,0.95c0,0.15,0.4,0.34,0.64,0.46c0.3,0.15,0.9,0.03,0.97,0.39
		c0.2,1.06-1.85,1.13-2.13,1.99c-0.23,0.7,0.31,1.3,0.34,1.87c0.03,0.58-0.11,1.18-0.14,1.77c-0.02,0.51-0.11,1.06,0.04,1.53
		c0.17,0.53,0.18,0.95-0.01,1.47c-0.09,0.26,0.13,0.69,0.32,0.98c0.26,0.4,1.22,0.42,1.05,0.97c-0.17,0.54-0.97,0.7-1.07,1.12
		c-0.11,0.49,0.43,1.07,0.31,1.64c-0.12,0.55-0.75,0.87-0.55,1.57c0.09,0.33,0.04,0.74-0.07,1.08c-0.42,1.42-0.61,2.88-0.94,4.31
		c-0.29,1.22-0.16,2.17,0.67,3.06c0.11,0.12,0.2,0.38,0.13,0.56c-0.48,1.35-3.4-0.49-3.72,0.81c-0.22,0.91,2.58,0.01,2.11,1.09
		c-0.1,0.24-0.47,0.27-0.72,0.3c-0.81,0.1-1.62,0.16-2.44,0.21c-2.03,0.11-4.02,0.85-6.09,0.2c-0.38-0.12-0.87,0.08-1.3,0.18
		c-2.24,0.5-4.48,0.94-6.8,0.9c-1.03-0.02-2.06,0.12-3.09,0.21c-0.94,0.08-2.18,0.12-2.53-0.85c-0.42-1.16-0.11-2.26-0.93-3.24
		c-0.6-0.73-0.87-1.7-1.67-2.32c-0.26-0.2-0.38-0.61-0.49-0.94c-0.19-0.63-0.59-1.27-0.49-1.94c0.01-0.05,0.05-0.12,0.11-0.16
		c0.11-0.1,0.23-0.18,0.34-0.27c0.92-0.83,0.96-1,0.32-2.04c-0.65-1.05-1.64-1.95-1.97-3.11c-0.28-1,0.66-1.58,1.42-2.12
		c0.9-0.64,1.07-1.16,0.65-2.09c-0.64-1.42-0.37-2.89-0.45-4.34c-0.04-0.87,0.22-1.59,0.91-2.16c0.22-0.18,0.52-0.38,0.56-0.7
		c0.05-0.33-0.18-0.62-0.35-0.83c-0.38-0.46-0.82-0.85-1.22-1.29c-0.82-0.88-1.1-1.82-0.64-3.04c0.46-1.24,0.67-2.58,1.01-3.87
		c0.34-1.28,0.52-2.66,1.13-3.81c0.6-1.14,0.96-2.31,1.32-3.51c0.32-1.05,0.74-2.09,1.16-3.1c0.28-0.67,0.67-1.3,0.99-1.96
		c0.57-1.16,0.78-2.26-0.49-3.14c-0.17-0.12-0.31-0.33-0.39-0.53c-0.71-1.73-2.23-2.6-3.79-3.21c-1.47-0.58-3.19-0.45-4.62-1.29
		c-0.06-0.03-0.15-0.03-0.22-0.02c-1.21,0.18-2.34-0.27-3.5-0.47c-2.04-0.35-4.09-0.64-6.13-0.95c-0.29-0.04-0.59-0.01-0.89-0.01
		c-1.04-0.01-2.07-0.06-3.11-0.04c-2.44,0.06-4.84,0.51-7.28,0.5c-0.07,0-0.15,0.02-0.22,0.04c-1.75,0.42-2.59,2.18-1.79,3.79
		c0.97,1.94,1.55,3.96,1.63,6.15c0.05,1.47,0.32,2.93,0.47,4.4c0.04,0.37,0.09,0.75,0.03,1.1c-0.28,1.56-0.15,3.09,0.29,4.59
		c0.31,1.06,0.49,2.03,0.32,3.21c-0.12,0.87-0.42,1.53-0.82,2.16c-0.37,0.58-0.38,1.06-0.24,1.66c0.25,1.05,0.99,2.04,0.42,3.2
		c-0.05,0.11,0.02,0.3,0.08,0.43c0.32,0.73,0.13,1.42,0,2.16c-0.2,1.21-0.36,2.43,0.15,3.67c0.41,0.99,0.51,2.08,0.14,3.2
		c-0.36,1.09-0.93,2.24-0.74,3.19c0.2,1.02,1.63,1.42,1.64,2.31c0.01,0.77-1.14,1.08-1.12,1.7c0.02,0.66,1.14,0.84,1.09,1.42
		c-0.1,1.17-2.14,1.54-1.77,2.65c0.15,0.45,0.77,0.65,0.92,1.02c0.55,1.36-1.73,2-1.66,3.17c0.03,0.52,0.7,0.86,0.66,1.36
		c-0.08,1.21,0.57,1.8,0.37,2.69c-0.17,0.77-1.15,1.33-0.94,2.15c0.13,0.5,1.41,0.51,0.92,1.13c-0.58,0.75-1.69,0.87-2.58,1.21
		c-0.47,0.18-1.02,0.19-1.53,0.17c-2.6-0.08-5.12,0.42-7.64,0.93c-0.5,0.1-1.11-0.05-1.52,0.18c-1.7,0.95-3.58,0.81-5.4,1.04
		c-1.97,0.25-3.96,0.46-5.94,0.58c-1.26,0.08-2.46,0.21-3.62,0.79c-1.01,0.5-2.12,0.63-3.25,0.57c-0.74-0.03-1.49-0.08-2.21,0.03
		c-0.38,0.06-0.92,0.39-1.01,0.71c-0.43,1.51-0.69,3.04,0.4,4.45c0.63,0.82,1.28,1.64,1.77,2.54c0.88,1.62,1.61,3.31,2.45,4.95
		c0.67,1.31,1.34,2.64,2.14,3.88c0.8,1.24,1.76,2.38,2.66,3.56c0.27,0.35,0.5,0.75,0.83,1.03c1.81,1.55,3.65,3.65,6.15,3.38
		c0.13-0.01,0.27-0.07,0.39-0.15c0.99-0.66,1.95-1.33,3.27-0.84c0.27,0.1,0.73-0.12,1.01-0.32c0.91-0.67,1.83-1.23,3.04-1.15
		c0.3,0.02,0.79-0.25,0.9-0.52c0.62-1.44,1.69-2.13,3.22-2.29c0.41-0.04,0.78-0.43,1.19-0.57c0.48-0.17,0.99-0.36,1.48-0.33
		c1.25,0.07,3.09-0.17,3.58,1.01c0.28,0.68-0.88,1.24-0.74,1.82c0.13,0.55,1.04,0.47,1.11,0.94c0.07,0.49-0.48,0.71-0.67,1.01
		c-0.23,0.36-0.94,0.67-0.74,1.21c0.49,1.37,1.72,1.63,1.44,2.63c-0.33,1.18-1.56,1.92-1.16,3c0.17,0.46,0.87,0.66,0.9,1.12
		c0.05,0.65-0.85,0.93-0.85,1.42c-0.01,1.56,0.79,1.35,0.38,2.85c-0.08,0.29-0.24,0.59-0.2,0.86c0.1,0.71,0.39,1.41,0.41,2.12
		c0.02,0.71-0.65,1.37-0.23,2.13c0.51,0.94,0.25,1.86-0.01,2.78c-0.08,0.28-0.31,0.62-0.23,0.82c0.63,1.48-0.94,2.56-0.75,3.96
		c0.11,0.81,0.87,1.08,0.74,1.96c-0.17,1.18,0.28,2.42-0.07,3.65c-0.05,0.16,0.17,0.39,0.26,0.6c0.08,0.2,0.26,0.51,0.19,0.6
		c-0.76,0.87-0.05,2.02-0.61,2.95c-0.29,0.47-0.72,1.17-0.44,1.87c0.15,0.37,0.84,0.35,0.96,0.65c0.23,0.61-0.33,1.11-0.42,1.6
		c-0.11,0.55-0.35,1.12-0.23,1.58c0.19,0.76,1.28,1.07,1.35,1.81c0.09,0.96-1.07,1.56-0.76,2.55c0.09,0.29-0.21,0.69-0.23,1.05
		c-0.08,1.23-1.27,2.39-0.22,3.71c0.13,0.17-0.02,0.57-0.05,0.87c-0.08,0.66-0.01,1.21,0.08,1.95c0.15,1.24,0.39,2.28,0.27,3.47
		c-0.11,1.09-0.24,2.21,0.16,3.3c0.09,0.24-0.06,0.56-0.1,0.84c-0.06,0.35-0.29,0.76-0.17,1.03c0.32,0.74-0.33,1.29-0.26,1.92
		c0.09,0.72,0.42,1.41,0.53,2.13c0.07,0.42-0.03,0.89-0.13,1.31c-0.16,0.66-0.32,1.29,0.03,1.94c0.1,0.18,0.13,0.46,0.06,0.64
		c-0.54,1.3,0.08,2.46,0.42,3.65c0.14,0.48,0.7,0.92,0.55,1.47c-0.2,0.79-1.35,1.01-1.14,1.83c0.19,0.76,0.91,1.39,0.95,2.21
		c0.03,0.59-0.55,1.17-0.55,1.79c-0.01,2.14,0.12,4.28,0.15,6.42c0.01,0.66-0.21,1.32-0.22,1.98c-0.01,0.96-0.2,2.05,0.19,2.84
		c0.79,1.58-0.22,2.56-0.34,4.29c-0.06,0.83,1,1.26,1.12,1.87c0.12,0.65-0.46,1.36-0.24,1.73c0.62,1.07,0.43,2.14,0.39,3.24
		c-0.03,0.96-0.05,1.92-0.02,2.88c0.02,0.51,0.33,1.08,0.2,1.52c-0.3,0.96,0.11,1.7,0.4,2.54c0.45,1.32,0.96,2.67,0.77,4.11
		c-0.16,1.21-0.09,2.35,0.63,3.41c0.2,0.29,0.32,0.71,0.3,1.05c-0.1,1.58,0.53,3.05,0.63,4.6c0.07,1.16,0.56,1.95,1.82,2.16
		c0.65,0.11,1.27,0.58,1.9,0.57c2.02-0.02,3.8,0.74,5.84,0.97c1.65,0.19,3.2,0.56,4.82,0.62c1.59,0.06,3.25,0.56,4.75-0.48
		c0.16-0.11,0.43-0.04,0.65-0.06c1.18-0.12,2.36-0.17,3.52-0.38c1.75-0.32,3.44-0.86,5.05-1.62c1.44-0.68,2.27-2.34,1.88-3.85
		c-0.47-1.78-0.38-3.51,0.31-5.2c0.36-0.89,0.35-1.73-0.02-2.59c-0.17-0.4-0.52-0.77-0.52-1.16c0-0.42,0.63-0.69,0.48-1.02
		c-0.74-1.62-1.91-0.76-1.63-2.3c0.06-0.36,0.32-0.7,0.26-1.03c-0.1-0.51-0.66-0.74-0.82-1.13c-0.19-0.46-0.4-1.02-0.28-1.46
		c0.39-1.51-0.02-2.96-0.2-4.41c-0.1-0.82-0.13-1.48,0.23-2.3c0.36-0.83,0.27-1.88,0.27-2.83c0-0.29-0.3-0.69-0.58-0.83
		c-0.34-0.18-0.68,0.08-0.93,0.41c-0.12,0.16-0.28,0.4-0.52,0.4c-0.34,0-0.51-0.36-0.74-0.54c-1.1-0.88-1.17-1.2-0.44-2.39
		c0.15-0.25,0.38-0.47,0.51-0.73c0.27-0.52,0.54-1.05,0.75-1.6c0.24-0.64-0.15-1.19-0.85-1.21c-0.42-0.01-0.86,0.26-1.18,0.14
		c-2.12-0.84-1.72-3.81-1.81-5.83c-0.1-2.25,2.08-3.54,2.54-5.63c0.27-1.25-2.26-1.98-1.65-3.27c0.13-0.27,0.48-0.47,0.78-0.67
		c0.43-0.28,0.88-0.53,1.35-0.73c0.82-0.35,1.39-0.92,1.4-1.82c0.01-0.98-0.49-1.75-1.47-1.98c-1.48-0.36-3.02-1.33-2.63-2.85
		c0.12-0.45,0.66-0.7,1.03-1.04c0.96-0.9,0.92-1.21-0.24-2c-0.24-0.16-0.47-0.31-0.46-0.32c1.22-1.17,1.26-2.23,0.51-3.21
		c-0.34-0.45-1.42-0.24-1.73-0.94c-0.52-1.19,0.01-2.65,1.35-3.55c0.51-0.34,0.63-1.02,0.38-1.62c-0.42-1.01-0.51-2.12-1.28-3.03
		c-0.68-0.8-0.53-1.14,0.26-2.12c0.18-0.22,0.4-0.44,0.43-0.65c0.05-0.25-0.06-0.42-0.13-0.53c-1.16-1.63-0.93-3.16,0.24-4.68
		c0.37-0.48,0.71-0.86,1.35-1.04c1.39-0.41,1.83-1.31,1.44-2.7c-0.09-0.32-0.42-0.58-0.41-0.82c0.01-0.59,1.17-0.78,0.72-1.2
		c-0.59-0.55-1.56-0.44-2.34-0.62c-1.19-0.27-1.67-1.09-1.87-2.2c-0.18-1-0.79-1.99-0.63-3.14c0.04-0.34,0.47-0.74,0.58-1.22
		c0.13-0.53-0.24-1.22,0.1-1.61c0.63-0.72,0.72,0.76,1.18,0.91c0.23,0.08,0.65,0.08,0.77-0.06c0.45-0.56,0.33-1.73-0.14-2.19
		c-0.54-0.52-1.97,0.21-1.92-0.83c0.03-0.62,0.79-1.09,1.08-1.73c0.29-0.66,0.38-1.34,0.95-1.93c1.01-1.05,0.92-1.36,0.13-2.69
		c-0.22-0.37-0.39-0.79-0.5-1.21c-0.15-0.57,0.24-1.02,0.86-0.99c0.43,0.02,0.86,0.18,1.29,0.24c0.27,0.04,0.59,0.15,0.78,0.01
		c0.23-0.18,0.18-0.45,0.13-0.56c-0.45-1.06-1.13-1.91-2.26-2.29c-0.2-0.07-0.45-0.17-0.71-0.06c-0.57,0.25-0.52,1.49-1.22,1.52
		c-1.71,0.07,0.45-1.84,0.48-2.81c0.02-0.57-0.58-1.04-0.59-1.61c-0.01-0.76,0.15-1.63,0.73-2.16c0.42-0.38,1.34,0.08,1.69-0.4
		c0.19-0.25,0-0.53-0.05-0.73c-0.35-1.22-1.9-1.55-2.23-2.6c-0.39-1.24,1.24-1.88,1.44-2.89c0.15-0.81-0.99-1.53-0.64-2.28
		c0.31-0.67,1.24-0.64,1.86-0.84c1.42-0.48,2.07-1.83,3.18-2.66c0.53-0.39,0.59-0.99,0.72-1.57c0.18-0.82,0.76-1.23,1.54-1.42
		c1.13-0.28,1.88-1.35,3.13-1.48c0.57-0.06,0.85,0.56,1.19,0.83c1.19,0.91,2.39,1.77,4.03,1.22c0.25-0.08,0.6,0.16,0.87,0.1
		c0.39-0.09,0.95-0.12,1.11-0.47c1-2.12-1.08-2.79,0.08-3.32c1.26-0.57,2.85,0.26,4.26,0.6c0.76,0.18,1.27,0.07,1.82-0.38
		c0.08-0.07,0.28-0.08,0.4-0.01c0.37,0.24,0.36,0.8,0.53,1.21c0.03,0.06,0.07,0.14,0.04,0.31c-0.08,0.42-0.69,0.76-0.69,1.29
		c0,0.73,0.84,1.2,0.47,2.04c-0.14,0.33,0.13,0.84,0.2,1.26c0.08,0.43,0.25,0.87,0.2,1.28c-0.33,2.36-0.08,4.72,0,7.08
		c0.03,1.08-0.42,1.82-0.66,2.77c-0.33,1.3,1.22,2.43,0.93,3.67c-0.31,1.3-0.95,2.18-0.86,3.5c0.09,1.35,0.65,2.73-0.01,4.1
		c-0.1,0.22,0.08,0.57,0.13,0.86c0.25,1.34-0.23,2.42-0.55,3.74c-0.25,1.03,0.73,1.69,0.82,2.81c0.09,1.2-0.67,1.73-0.67,2.33
		c0,1.03,0.64,1.72,0.57,2.4c-0.11,0.96-0.36,1.84,0.25,2.73c0.11,0.16-0.1,0.54-0.17,0.82c-0.1,0.41-0.57,0.86-0.34,1.33
		c0.6,1.18,1.43,1.4,1.24,2.54c-0.18,1.09-0.35,2.21-0.26,3.29c0.1,1.2-0.62,2.48,0.31,3.63c0.15,0.19,0.07,0.58,0.07,0.87
		c-0.03,1.33-0.06,2.66-0.13,3.99c-0.03,0.74-0.17,1.47-0.19,2.21c-0.02,0.88,0.34,1.68,1.12,2.04c1.27,0.59,2.59,1.09,3.94,1.45
		c1.13,0.3,2.33,0.24,3.52,0.24c1.22-0.01,2.44,0.51,3.67,0.72c0.57,0.1,1.17,0.04,1.76,0.06c0.52,0.01,1.04-0.03,1.55,0.06
		c2.6,0.45,5.16,0.19,7.7-0.37c1.08-0.24,2.19-0.47,3.19-0.9c2.36-1.03,2.78-2.14,1.89-4.55c-0.45-1.24-0.52-2.35,0.42-3.51
		c0.57-0.7,1.04-1.68,1.06-2.63c0.04-1.52,0.08-2.92-0.17-4.38c-0.2-1.17,0.12-2.21,1.18-2.91c0.81-0.53,0.94-1.27,0.65-2.14
		c-0.12-0.35-0.36-0.68-0.32-0.98c0.36-2.2,1.31-2-0.05-3.43c-0.36-0.38-0.71-0.76-1.11-1.09c-0.63-0.53-1.48-1.06-1.54-1.93
		c-0.12-1.59,1.91-2.7,1.97-4.28c0.07-1.58-0.54-1.48,0.15-3.26c0.08-0.21,0.11-0.43,0.18-0.64c0.5-1.67-0.29-1.41-0.46-3.28
		c-0.04-0.41,0.49-0.76,0.43-1.15c-0.09-0.62-1-0.77-1.07-1.37c-0.1-0.87,0.48-1.78,1.05-2.24c0.22-0.18,0.35-0.1,0.42-0.09
		c0.46,0.02,1.02,0.51,1.33-0.22c0.15-0.35-0.67,0.04-1.36-0.77c-0.17-0.2-0.02-0.55,0-0.82c0.03-0.34,0.43-0.76,0.15-1.13
		c-0.29-0.4-0.84-0.12-1.19-0.21c-0.77-0.2-1.11-0.67-0.69-1.26c0.67-0.93-0.23-1.89,0.13-2.79c0.42-1.07,1.56-1.57,1.8-2.72
		c0.06-0.29,0.44-0.56,0.73-0.74c1.08-0.66,1.16-0.8,0.7-1.86c-0.27-0.61-0.49-1.27-0.89-1.78c-0.43-0.54-1.56-0.66-1.67-1.46
		c-0.07-0.49,0.47-0.82,0.77-1.1c0.26-0.24,0.71-0.27,0.97-0.51c0.24-0.23,0.42-0.6,0.46-0.94c0.03-0.21-0.14-0.59-0.38-0.68
		c-0.86-0.33-2.34,1.62-2.47,0.24c-0.04-0.4,0.74-0.65,0.66-1.15c-0.07-0.47-0.69-0.59-0.99-0.9c-0.28-0.3-0.9-0.52-0.86-1.05
		c0.07-0.95,1.33-1.15,1.88-1.73c0.6-0.64,0.92-1.57,1.7-2.05c1.09-0.67,2.51-0.77,3.88-0.45c0.56,0.13,0.97-0.26,1.35-0.63
		c0.77-0.73,1.7-1.41,2.65-1.3c1.21,0.14,1.76,2.08,2.9,1.74c0.39-0.12,0.53-1.05,1.02-0.83c1.72,0.79,0.14,3.57,0.12,5.25
		c-0.03,2.96-0.03,5.92,0.57,8.83c0.38,1.88,0.78,3.77,1.36,5.6c1.3,4.1,3.15,7.97,5.24,11.73c0.57,1.02,0.89,2.18,1.33,3.28
		c0.14,0.33,0.23,0.75,0.49,0.96c0.68,0.55,0.88,1.32,1.23,2.06c0.59,1.27,1.29,2.5,2.06,3.68c0.79,1.2,1.88,2.03,3.28,2.52
		c1.6,0.57,3.25,0.99,4.77,1.79c0.43,0.23,0.99,0.26,1.5,0.31c2.42,0.24,4.85,0.45,7.27,0.67c2.94,0.27,5.88,0.57,8.82,0.8
		c0.65,0.05,1.32-0.09,1.96-0.24c1.53-0.35,2.69-1.55,2.3-3.2c-0.12-0.5-0.14-1.03-0.22-1.54c-0.17-1.08,0.02-2.08,0.67-2.96
		c1-1.36,1.33-2.96,1.58-4.57c0.35-2.26,0.74-4.49,1.77-6.58c0.68-1.39,1.09-2.89,0.55-4.49c-0.3-0.89-0.16-1.72,0.43-2.52
		c0.29-0.39,0.36-0.95,0.55-1.42c0.5-1.28,0.65-2.7,1.65-3.79c0.99-1.08,2.4-1.96,2.84-3.36c0.2-0.64-0.56-1.43-0.19-2.06
		c0.26-0.44,0.65-1.28,1.14-0.9c1.71,1.35-0.29,4.22-0.3,6.35c-0.01,2.74-0.1,5.45,0.63,8.12c0.17,0.61,0.1,1.15-0.33,1.66
		c-0.17,0.2-0.32,0.51-0.3,0.77c0.04,0.45,0.41,0.71,0.6,1.03c0.48,0.8,0.76,1.58,0.16,2.48c-0.16,0.24-0.06,0.71,0,1.06
		c0.14,0.8,0.34,1.59,0.5,2.39c0.78,3.76,1.53,7.53,2.91,11.13c0.21,0.55,0.45,1.13,0.47,1.7c0.04,1.33,0.78,1.99,1.91,2.43
		c1.86,0.72,3.68,1.58,5.58,2.18c2.39,0.75,4.8,1.55,7.39,1.08c0.35-0.06,0.75-0.03,1.1,0.05c2.54,0.57,5.13,0.69,7.71,0.95
		c1.86,0.19,3.66,0.14,5.47-0.25c1.5-0.32,2.44-1.38,2.4-2.96c-0.05-2.06-0.21-4.13-0.31-6.19c-0.01-0.29-0.08-0.64,0.05-0.85
		c0.81-1.31,0.62-2.88,1.11-4.26c0.32-0.9,0.73-1.84,0.73-2.76c0-1.01,0.26-1.9,0.58-2.79c0.57-1.57,1.51-3.01,1.62-4.75
		c0.03-0.41,0.29-0.85,0.56-1.19c0.83-1.05,1.49-2.33,1.09-3.53c-0.08-0.24-0.27-0.42-0.45-0.5c-0.93-0.43-0.95-1.26-0.87-2.08
		c0.04-0.43,0.23-0.86,0.39-1.27c0.58-1.51,1.25-2.99,1.36-4.65c0.03-0.47,0.32-1.06,0.68-1.36c0.82-0.68,0.88-1.63,1.23-2.5
		c0.6-1.47,0.6-3.03,1.04-4.51c0.23-0.76,0.42-1.61,0.31-2.37c-0.18-1.15-0.13-2.18,0.5-3.18c0.15-0.23,0.21-0.57,0.19-0.85
		c-0.09-1.02,0.41-1.85,0.73-2.76c0.69-2,2.13-3.77,1.96-6.06c-0.02-0.27,0.22-0.54,0.3-0.82c0.19-0.64,0.39-1.27,0.53-1.92
		c0.24-1.08,0.41-2.18,0.65-3.26c0.08-0.35,0.45-0.96,0.76-0.54c1.3,1.71,0.27,4.28,0.31,6.42c0.01,0.87-0.16,1.78-0.42,2.61
		c-0.21,0.66-0.28,1.27-0.21,1.95c0.07,0.73,0.07,1.48,0.05,2.22c-0.09,4.28,0.19,8.56,0.02,12.84c-0.03,0.74-0.09,1.47,0.24,2.18
		c0.11,0.24,0.04,0.58-0.01,0.86c-0.11,0.65-0.14,1.35-0.42,1.92c-0.34,0.7-0.22,1.22,0.11,1.87c0.58,1.15,0.82,2.49,0.32,3.64
		c-0.72,1.66-0.64,3.24-0.23,4.9c0.21,0.86,0.34,1.74,0.47,2.62c0.07,0.44-0.04,0.92,0.12,1.31c0.7,1.81,1.02,3.7,1.33,5.6
		c0.32,1.97,0.8,3.91,1.04,5.88c0.14,1.17,0.63,1.93,1.64,2.44c0.46,0.23,0.91,0.52,1.4,0.66c2.83,0.79,5.62,1.79,8.57,2.09
		c0.88,0.09,1.76,0.21,2.63,0.37c1.97,0.35,3.95,0.51,5.93,0.39c1.69-0.1,3.37-0.42,5.06-0.65c0.93-0.12,1.69-0.51,2.19-1.34
		c0.38-0.63,0.84-1.23,1.15-1.89c0.21-0.45,0.37-1.02,0.29-1.49c-0.14-0.9,0.04-1.76,0.08-2.64c0.05-1.24,0.28-2.5-0.09-3.76
		c-0.15-0.53-0.09-1.21,0.11-1.73c0.37-0.94,0.42-1.87,0.25-2.83c-0.19-1.05-0.02-2.04,0.31-3.06c0.31-0.98,0.64-2.02,0.63-3.03
		c-0.01-1,0.26-1.89,0.53-2.8c0.19-0.64,0.53-1.24,0.64-1.88c0.6-3.68,2.51-6.92,3.46-10.48c0.09-0.35,0.34-0.65,0.52-0.98
		c0.17-0.33,0.44-0.64,0.48-0.98c0.24-2.02,1.51-3.67,2.02-5.62c0.44-1.68,1.46-3.22,2.25-4.81c0.75-1.52,1.59-3.01,1.23-4.82
		c-0.05-0.26,0.05-0.61,0.21-0.84c0.69-1.01,0.87-2.19,1.23-3.31c0.18-0.57,0.39-1.04,0.91-1.45c1.13-0.89,1.92-2.03,1.93-3.58
		c0.01-0.71,0.39-1.98,1.18-1.59c0.38,0.18,0.27,0.73,0.27,1.06c-0.01,1.47-0.15,2.95-0.08,4.42c0.04,0.96,0.05,1.92-0.2,2.83
		c-0.62,2.31-0.82,4.65-0.77,7.02c0.03,1.36-0.19,2.66-0.81,3.86c-0.43,0.82-0.52,1.67-0.54,2.58c-0.07,3.33-0.08,6.65-0.35,9.98
		c-0.27,3.31-0.48,6.65-0.13,9.98c0.12,1.15-0.03,2.17-0.92,3.06c-0.74,0.74-0.63,0.91,0.46,1.59c0.12,0.08,0.28,0.15,0.38,0.33
		c0.12,0.21,0.09,0.53,0.13,0.82c0.42,3.21,0.49,6.45,0.78,9.67c0.27,3.04,1.02,5.97,1.86,8.88c0.45,1.55,1.06,3.12,1.9,4.49
		c1.66,2.71,3.78,4.93,7.19,5.42c0.55,0.08,1.11,0.4,1.57,0.73c0.76,0.56,1.58,0.76,2.5,0.75c0.66-0.01,1.37-0.09,1.97,0.11
		c1.33,0.44,2.63,0.29,3.95,0.04c1.98-0.37,3.96-0.51,5.95-0.05c0.5,0.11,1.02,0.16,1.54,0.19c3.18,0.14,6.33-0.1,9.48-0.61
		c2.59-0.42,3.89-2.24,4.56-4.37c0.9-2.85,1.37-5.74,2.89-8.32c0.22-0.38,0.37-0.81,0.53-1.22c0.24-0.63,0.33-1.25,0.06-1.94
		c-0.18-0.45-0.11-1-0.09-1.5c0.02-0.66,0.09-1.32,0.17-1.98c0.04-0.36,0.09-0.73,0.21-1.07c0.63-1.82,1.29-3.62,1.91-5.44
		c0.35-1.05,0.75-2.11,0.9-3.2c0.29-2.12,0.52-4.25,0.6-6.39c0.09-2.15,0.39-4.26,0.75-6.37c0.16-0.93,0.54-1.81,0.02-2.78
		c-0.18-0.33-0.07-0.9,0.09-1.29c0.37-0.92,0.48-1.85,0.48-2.82c0-0.27,0.12-0.76,0.49-0.57c0.06,0.03,0.12,0.09,0.12,0.14
		c0.04,0.44,0.08,0.88,0.1,1.32c0.1,3.86,0.39,7.7,1.32,11.46c0.36,1.45,0.94,2.78,1.76,4.05c1.74,2.69,4.18,4.55,6.87,6.16
		c1.97,1.18,3.96,2.33,5.28,4.29c1.23,1.83,3.02,2.55,5.13,2.56c0.88,0,1.79-0.62,2.87-0.31c1.67,0.49,3.21,1.18,5.04,1.49
		c2.25,0.38,4.53,0.38,6.78,0.86c1.19,0.25,2.52,0.06,3.75-0.15c1.73-0.29,2.4-1.33,2.04-3.01c-0.37-1.73-0.28-3.35,0.52-4.96
		c0.46-0.92,0.76-1.93,0.3-3c-0.32-0.74-0.15-1.46,0.31-2.1c0.6-0.83,0.64-1.75,0.66-2.74c0.03-1.3-0.43-2.67,0.39-3.9
		c0.07-0.11,0.03-0.29,0.03-0.44c0.11-2.95,0.17-3.14,1.58-5.35c0.12-0.18,0.25-0.38,0.29-0.59c0.27-1.22,0.47-2.51,0.16-3.69
		c-0.24-0.93-0.23-1.77,0.07-2.59c0.31-0.87,0.38-1.69,0.3-2.6c-0.12-1.37-0.36-2.81,0.7-4.02c0.17-0.2,0.17-0.56,0.24-0.85
		c0.29-1.22,0.57-2.45,0.87-3.68c0.32-1.29,0.61-2.58,1.56-3.63c0.36-0.4,0.43-1.07,0.65-1.61c0.15-0.39,0.33-1.19,0.81-0.87
		c1.09,0.72,0.92,3.31,0.64,4.24c-0.25,0.81,0.18,1.43,0.24,2.14c0.06,0.79-0.15,1.6-0.24,2.4c-0.01,0.06,0.04,0.15,0.08,0.2
		c0.75,0.71,0.52,1.64,0.55,2.51c0.04,1.33-0.08,2.68,0.11,3.98c0.29,1.97,0.77,3.9,0.8,5.91c0.02,1.01,0.69,1.98,0.15,3.02
		c-0.05,0.1,0.05,0.28,0.09,0.42c0.27,0.99,0.56,1.97,0.82,2.96c0.05,0.2,0.12,0.5,0.02,0.62c-0.73,0.88-0.16,1.69,0.08,2.51
		c0.2,0.7,0.35,1.26,0.23,2.12c-0.19,1.37,0.05,2.78,0.65,4.09c0.74,1.63,1.19,3.34,1.38,5.13c0.12,1.1,0.28,2.2,0.47,3.3
		c0.29,1.68,0.68,3.34,0.93,5.02c0.46,3.15,0.85,6.31,1.27,9.47c0.43,3.24,1.36,6.36,2.14,9.52c0.22,0.89,0.63,1.66,1.31,2.27
		c0.56,0.51,1.2,0.64,1.79,0.14c0.53-0.44,0.99-0.53,1.62-0.39c0.94,0.2,1.89,0.4,2.85,0.46c2.03,0.15,3.94,0.78,5.78,1.51
		c2.18,0.85,4.41,1.2,6.7,1.17c0.79-0.01,1.59-0.29,2.35-0.55C1024.01,276.97,1024.19,276.1,1023.79,275.51z M787.9,185.48
		c-0.78,1.02-1.2,2.19-1.7,3.34c-1.15,2.62-1.85,5.41-2.93,8.06c-0.28,0.68-0.55,1.37-0.86,2.04c-0.4,0.87-0.83,1.72-0.7,2.74
		c0.03,0.27-0.08,0.58-0.2,0.83c-1.27,2.75-2.53,5.51-3.46,8.4c-0.33,1.04-0.93,1.99-1.38,3c-0.3,0.67-0.64,1.36-0.77,2.07
		c-0.34,1.8-1.37,3.24-2.36,4.7c-0.2,0.3-0.47,0.64-0.79,0.76c-1.1,0.45-1.5,1.33-1.69,2.4c-0.06,0.35-0.23,0.72-0.46,0.99
		c-1.09,1.33-1.76,2.87-2.33,4.47c-0.55,1.54-1.51,2.86-2.39,4.21c-0.14,0.22-0.42,0.44-0.67,0.46c-0.78,0.07-0.93-0.89-0.79-1.49
		c0.17-0.79-0.01-1.39-0.45-2.07c-0.59-0.91-0.66-2.04-1.32-3c-0.6-0.86-0.76-2.04-1.07-3.1c-0.2-0.67-0.11-1.32,0.46-1.83
		c0.28-0.24,0.53-0.53,0.82-0.74c1.07-0.79,1.74-1.79,1.87-3.14c0.03-0.29,0.12-0.58,0.22-0.86c0.25-0.68,0.5-2.59,0.45-3.42
		c-0.01-0.22,0.01-0.45,0.09-0.65c0.54-1.36,0.17-2.62-0.5-3.8c-0.46-0.81-0.72-1.57-0.45-2.52c0.11-0.37-0.03-0.86-0.18-1.26
		c-0.5-1.41-0.48-1.54,0.65-2.41c0.29-0.22,0.78-0.26,0.99-0.68c0.22-0.45-0.03-1.01-0.1-1.5c-0.17-1.21-0.06-1.66,1.05-2.09
		c1.78-0.69,2.34-2.39,3.24-3.75c0.5-0.76,0.12-1.87-0.23-2.78c-0.21-0.54-0.77-1.02-0.71-1.6c0.06-0.59,0.86-0.81,0.94-1.34
		c0.19-1.39-0.24-2.74-0.73-4.1c-0.49-1.37,0.41-2.88,1.79-3.7c0.38-0.22,0.84-0.32,1.2-0.58c0.41-0.29,0.8-0.64,1.11-1.04
		c1.29-1.71,2.86-2.89,5.07-3.18c1.53-0.2,3.04-0.6,4.56-0.87c0.58-0.1,1.18-0.17,1.76-0.14c1.11,0.05,1.95,0.56,2.47,1.6
		c0.64,1.26,1.17,2.54,1.34,3.96C788.9,183.22,788.68,184.44,787.9,185.48z M980.6,188.9c-0.17,0.31-0.35,0.62-0.45,0.94
		c-0.85,2.82-1.67,5.64-2.51,8.47c-0.12,0.4-0.13,0.84-0.38,1.19c-2.02,2.77-2.37,5.85-3.68,8.75c-0.24,0.54-0.25,1.13-0.36,1.7
		c-0.25,1.3-0.62,2.56-1.34,3.82c-0.81,1.44-1.44,2.95-1.88,4.5c-0.56,2.01-1.68,3.96-3.52,5.62c-0.47,0.42-1.17,1.06-1.91,1
		c-1.65-0.12-3.9-1.15-3.92-2.82c-0.01-0.48,0.62-0.6,0.96-0.72c0.96-0.31,1.4-0.83,1.51-1.55c0.03-0.16,0.05-0.33,0.09-0.49
		c0.37-1.56-3.05-2.28-1.79-4.04c0.93-1.3,2.79-2.38,2.62-3.69c-0.16-1.27-0.79-2.67-0.27-3.77c0.69-1.49-2.96-1.3-2.46-2.64
		c0.68-1.8,3.96-2.16,3.89-4.07c-0.02-0.61,0.82-1.17,0.81-1.76c-0.01-0.6-1.03-1.07-0.93-1.79c0.08-0.6,0.78-0.86,1.21-1.24
		c1.35-1.19,1.39-2.41,0.57-3.66c-0.23-0.36-0.56-0.69-0.72-1.06c-0.23-0.55-0.24-1.12,0.36-1.63c0.15-0.13,0.28-0.27,0.44-0.39
		c2.62-2.14,4.58-4.63,6.91-6.92c0.95-0.93,2.05-1.56,3.51-1.93c1.29-0.32,2.56-0.71,3.85-1.01c1.43-0.34,3.9-1.54,4.51,0.1
		C986.95,183.15,982.28,185.91,980.6,188.9z"/>
	<path class="st0" d="M383.75,250.47c-0.62-0.69-0.74-1.04-0.17-1.75c0.67-0.83,0.57-1.62,0.27-2.49c-0.21-0.63-0.4-1.26-0.59-1.89
		c-0.24-0.78-0.01-1.45,0.51-2.05c0.42-0.49,1.21-0.82,1.05-1.54c-0.38-1.72-2.64-2.43-2.9-4.02c-0.29-1.75,2.49-2.86,2.21-4.48
		c-0.06-0.34-0.39-0.51-0.54-0.76c-0.85-1.43-0.82-1.84,0.21-3.16c0.23-0.29,0.45-0.59,0.68-0.88c0.86-1.14,0.87-1.89-0.3-2.58
		c-1.6-0.95-3.89-2-3.71-3.85c0.08-0.82,1.54-0.5,1.89-1.14c0.51-0.95,0.29-2.02,1.01-2.83c0.55-0.63,0.63-1.3,0.12-2.02
		c-0.68-0.95-1.91-1.73-2.02-2.94c-0.05-0.58,0.8-1.07,0.74-1.68c-0.03-0.33-0.3-0.47-0.44-0.63c-1.29-1.44-1.27-1.43-0.32-2.99
		c0.22-0.35,0.43-0.83,0.37-1.21c-0.17-1.05,0.23-1.87,0.76-2.71c0.27-0.42,0.58-0.88,0.57-1.29c-0.01-0.29-0.16-0.42-0.26-0.53
		c-1.55-1.65-1.82-3.43-0.75-5.48c0.35-0.68,0.82-1.45,0.53-2.32c-0.48-1.4,0.08-2.28,1.38-2.81c0.19-0.08,0.41-0.21,0.54-0.43
		c0.8-1.27-0.3-2.34-1.58-3.02c-1.55-0.83-3.07-1.73-4.5-2.75c-1-0.71-1.99-1.2-3.23-1.29c-2.44-0.17-4.87-0.7-7.11-1.56
		c-2.01-0.77-3.76-0.37-5.59,0.16c-1.2,0.34-1.82,1.22-1.76,2.5c0.04,0.89,0.07,1.78,0.16,2.66c0.07,0.71-0.05,1.33-0.56,1.84
		c-0.81,0.82-1.13,1.88-1.59,2.89c-0.74,1.61-1.41,3.31-2.48,4.68c-0.85,1.1-1.72,2.19-2.48,3.35c-1.7,2.6-3.48,5.17-5.06,7.84
		c-1.97,3.32-4.18,6.46-6.54,9.5c-0.35,0.45-0.89,0.77-1.38,1.09c-0.73,0.46-1.45,0.13-1.7-0.72c-0.18-0.6-0.11-1.18,0.2-1.72
		c0.58-0.98,0.51-1.9,0.08-2.95c-0.36-0.9-0.69-1.74-1.34-2.49c-0.47-0.54-0.92-1.23-0.97-1.92c-0.03-0.39,0.21-0.65,0.29-0.93
		c0.53-2.05,0.67-2.14-0.52-3.94c-0.92-1.39-1.14-3-1.89-4.44c-0.52-1-0.43-2.3-0.67-3.45c-0.32-1.51-0.61-3.04-1.11-4.5
		c-0.41-1.2-0.9-2.36-0.85-3.64c0.05-1.31-0.63-2.08-1.7-2.61c-1-0.49-2.02-0.92-3.02-1.4c-3.03-1.44-6.16-2.48-9.56-2.51
		c-1.03-0.01-2.08,0.01-3.08-0.18c-0.93-0.18-1.6,0.11-2.23,0.66c-2.28,2.01-4.53,4.03-6.22,6.6c-1.3,1.98-2.72,3.89-4,5.88
		c-1.04,1.61-2.06,3.25-2.66,5.1c-0.32,0.97-0.72,1.86-1.44,2.68c-0.75,0.85-1.49,1.86-1.33,3.19c0.04,0.33-0.17,0.72-0.34,1.04
		c-0.93,1.66-1.58,3.46-2.7,5.02c-0.51,0.71-0.83,1.56-1.25,2.34c-0.45,0.84-0.46,2.18-1.4,2.56c-0.52,0.21-1.17-0.01-1.35-0.4
		c-0.55-1.2,0.55-1.21,0.26-2.51c-0.16-0.71-0.41-1.41-0.55-2.13c-0.08-0.42-0.1-0.89,0.03-1.29c0.34-1.04,0.78-2.05,1.18-3.07
		c0.53-1.33,0.39-1.84-0.66-2.94c-0.6-0.62-2.04-1.3-1.42-2.29c0.52-0.83,2.05-0.53,2.63-1.24c0.44-0.54,0.11-1.17-0.33-1.55
		c-0.34-0.29-0.71-0.54-1.04-0.83c-1.05-0.9-1.22-1.47-0.52-2.67c0.38-0.65,0.46-1.21,0.19-1.88c-0.2-0.47-0.58-0.92-0.54-1.43
		c0.05-0.58,0.6-0.94,0.8-1.41c0.25-0.61,0.55-1.24,0.59-1.88c0.11-1.56,0.4-3.06,0.89-4.56c0.49-1.51,0.62-3.05-0.68-4.35
		c-0.25-0.25-0.31-0.67-0.5-0.98c-0.66-1.09-0.71-2.08,0.39-2.93c0.11-0.09,0.2-0.22,0.28-0.34c0.49-0.77,0.38-1.34-0.38-1.89
		c-0.35-0.26-0.92-0.45-1.02-0.78c-0.29-0.97-1.06-1.37-1.76-1.9c-0.19-0.15-0.72-0.36-0.55-0.78c0.32-0.81,1.49-0.31,2.12-0.46
		c1.12-0.27,1.79-0.94,1.95-2.12c0.18-1.26-0.31-2.29-0.38-3.64c-0.08-1.62,1.45-2.81,2.09-4.21c0.62-1.35,0.24-2.63-0.95-3.52
		c-0.34-0.26-1-0.33-1.05-0.76c-0.28-2.24,1.37-1.98,4.19-2.06c1.16-0.03,2.5-0.66,3.65-0.01c0.41,0.23,0.5,0.93,0.83,1.4
		c0.51,0.72,1.03,1.46,1.64,2.09c0.61,0.62,1.46,0.73,1.99,0.13c1.4-1.56,2.81-1.29,4.32-0.3c0.06,0.04,0.12,0.1,0.19,0.12
		c1.43,0.3,3.27,1.19,4.34-0.06c0.39-0.46,0.44-1.13,0.52-1.7c0.09-0.63-0.34-1.39,0.02-1.88c1.8-2.46,3.28,0.1,4.34,1.87
		c0.15,0.25,0.28,0.53,0.46,0.76c0.41,0.52,0.8,1.07,1.28,1.52c0.63,0.59,1.33,0.6,2.02,0.12c0.18-0.12,0.35-0.28,0.51-0.43
		c0.85-0.82,1.76-1.06,2.79-0.32c1.22,0.88,2.65,0.85,4.04,0.92c1.04,0.05,1.53-0.31,1.79-1.28c0.15-0.56,0.3-1.2,0.18-1.74
		c-0.27-1.22-0.6-2.45-1.1-3.58c-0.73-1.64-1.17-3.34-1.51-5.09c-0.21-1.07-0.92-2.14-0.68-3.4c0.01-0.08,0.14-0.41,0.37-0.54
		c1.28-0.73,1.33-1.83,1.08-3.08c-0.08-0.42-0.17-0.89-0.08-1.3c0.3-1.27-0.17-2.31-0.75-3.37c-0.46-0.84-0.85-1.71-1.26-2.58
		c-0.22-0.46-0.35-0.99-0.65-1.4c-2.31-3.08-5.19-5.21-9.2-5.49c-1.16-0.08-2.39-0.15-3.33-1.01c-1.14-1.04-1.79-0.55-2.3,0.7
		c-0.16,0.4-0.17,0.86-0.24,1.3c-0.05,0.36-0.02,0.75-0.13,1.09c-0.19,0.56-0.53,1.06-0.68,1.63c-0.14,0.54,0.29,1.31-0.14,1.7
		c-0.25,0.23-0.7,0.06-0.73-0.01c-0.31-0.78-1.16-0.97-1.63-1.54c-1.35-1.64-3.14-2.67-5.01-3.58c-0.88-0.43-1.8-0.64-2.78-0.69
		c-1.55-0.08-3.09-0.21-4.32-1.4c-0.41-0.4-1.01-0.24-1.36,0.21c-0.33,0.43-0.38,1.5-1,1.31c-0.18-0.05-0.25-0.25-0.27-0.37
		c-0.16-1.28,0.06-2.49,0.59-3.67c0.46-1.02,0.92-2.09,0.53-3.22c-0.37-1.06-0.17-2.03,0.14-3.04c0.13-0.42,0.28-0.85,0.31-1.29
		c0.04-0.7,0.28-1.26,0.75-1.79c0.97-1.08,1.31-2.48,1.76-3.8c0.63-1.85-0.35-3.61-2.27-4.16c-1.34-0.39-2.71-0.7-4.08-1.01
		c-1.51-0.35-3.06-0.58-4.54-1.03c-1.15-0.35-2.26-0.69-3.47-0.46c-0.21,0.04-0.53,0.07-0.64-0.04c-0.88-0.86-2.09-0.65-3.12-1
		c-1-0.35-2.05-0.39-3.06-0.07c-0.54,0.17-0.99,0.1-1.49-0.11c-0.47-0.19-0.98-0.35-1.48-0.37c-0.96-0.06-1.92-0.04-2.88,0
		c-0.59,0.03-1.18,0.11-1.75,0.25c-1.01,0.26-1.37,0.8-1.19,1.79c0.19,1.02,0.48,2.02,0.68,3.04c0.3,1.53,0.66,3.08,0.32,4.62
		c-0.35,1.56-0.23,3.09-0.04,4.64c0.24,2.08,0.33,4.13-0.61,6.09c-0.34,0.71-0.35,1.43,0.14,2.11c0.17,0.24,0.36,0.52,0.37,0.79
		c0.01,1.69,1.89,4.33,0.31,5.08c-1.04,0.49-1.01-0.57-1.07-0.98c-0.06-0.36-0.03-0.75-0.13-1.1c-0.11-0.4-0.51-0.76-0.83-0.39
		c-0.46,0.53,0,1.7-0.64,2c-0.73,0.34-0.66-0.89-0.76-1.38c-0.13-0.67-0.57-1.01-1.2-1.15c-0.43-0.1-0.96,0.26-0.97,0.67
		c-0.01,0.29,0.06,0.59,0.1,0.88c0.05,0.37,0.04,1.02-0.45,0.77c-0.47-0.23-0.55-0.88-0.88-1.28c-0.32-0.39-0.64-0.92-1.06-1.04
		c-0.49-0.13-1.1,0.39-1.63,0.21c-0.06-0.02-0.1-0.1-0.15-0.16c-0.26-0.37-0.53-0.74-1.07-0.62c-0.61,0.14-0.78,0.61-0.83,1.16
		c-0.07,0.66-0.14,1.31-0.25,1.97c-0.01,0.09-0.18,0.31-0.41,0.28c-0.52-0.07-0.51-1.38-1.15-1.26c-0.53,0.1-0.12,1.01-0.45,1.19
		c-0.84,0.47-1.55-0.7-1.87-1.6c-0.15-0.41-0.34-0.82-0.63-1.14c-0.15-0.17-0.53-0.2-0.79-0.16c-0.14,0.02-0.31,0.32-0.33,0.51
		c-0.06,0.77,0.94,2.41-0.14,2.56c-0.58,0.08-0.72-0.72-0.9-1.09c-0.16-0.31-0.13-0.72-0.19-1.08c-0.06-0.37-0.14-0.8-0.6-0.75
		c-0.45,0.04-0.48,0.49-0.53,0.86c-0.06,0.43,0.28,1.18-0.21,1.39c-0.31,0.13-0.54-0.27-0.6-0.43c-0.16-0.41-0.17-0.88-0.35-1.28
		c-0.14-0.32-0.4-0.63-0.68-0.83c-0.64-0.45-1.35-0.08-1.41,0.7c-0.03,0.46,0.49,1.56-0.25,1.51c-0.93-0.06-0.99-1.42-1.5-2.04
		c-0.43-0.52-1.11-0.94-1.73-0.02c-0.34,0.51,0.59,1.81-0.13,1.96c-0.93,0.2-0.8-1.56-1.23-2.22c-0.11-0.16-0.52-0.2-0.77-0.16
		c-0.13,0.02-0.31,0.33-0.31,0.51c0.02,0.85,0.71,2.08-0.19,2.57c-0.6,0.32-0.9-0.46-1.14-0.92c-0.34-0.65-0.64-1.32-1.05-1.92
		c-0.24-0.36-0.76-0.37-0.9,0.08c-0.3,0.93,0.87,2.38-0.22,2.91c-1,0.49-1.66-0.7-2.24-1.05c-0.65-0.4-0.24-2.34-1.12-1.63
		c-0.6,0.48,0.7,2.23-0.33,2.52c-0.95,0.26-0.7-1.95-1.46-1.84c-0.42,0.06-0.22,0.68-0.36,0.91c-0.74,1.22-1.64,1.28-2.64,0.2
		c-0.18-0.2-0.3-0.49-0.49-0.54c-0.22-0.07-0.31,0.06-0.36,0.1c-1.43,0.96-1.63,0.89-2.01-0.64c-0.07-0.28-0.15-0.58-0.33-0.79
		c-0.15-0.17-0.5-0.71-0.9-0.42c-0.6,0.42,0.16,1.22,0.13,1.71c-0.03,0.53-0.23,1.01-0.81,1.21c-0.54,0.19-0.99,0.09-1.43-0.31
		c-0.57-0.52-0.91-1.14-1.15-1.87c-0.13-0.4-0.14-1.05-0.6-1.18c-0.85-0.25-1.7,0.52-2.17,1.21c-0.28,0.41-0.1,1-0.2,1.51
		c-0.17,0.81-0.87,1.03-1.41,0.35c-0.44-0.56-0.98-0.35-1.53-0.63c-0.4-0.2-0.41-0.8-0.72-1.1c-0.29-0.29-0.72-0.61-1.09-0.61
		c-0.47,0-0.67,0.49-0.73,0.97c-0.05,0.36,0.14,0.85-0.2,1.19c-0.44,0.44-1.21,0.36-1.73,0.25c-0.73-0.15-1.31-0.64-1.57-1.43
		c-0.11-0.35-0.33-0.66-0.53-0.97c-0.59-0.87-0.98-1.04-2.06-0.7c-0.47,0.15-0.8,0.25-1.18-0.14c-0.14-0.15-0.38-0.22-0.59-0.28
		c-0.55-0.15-1.06,0.38-0.87,0.91c0.15,0.42,0.38,0.81,0.52,1.22c0.15,0.44-0.21,0.87-0.7,0.91c-1.03,0.07-1.87-0.16-2.47-1.12
		c-0.34-0.55-0.82-1.06-1.34-1.45c-0.68-0.51-1.43-0.1-1.58,0.8c-0.06,0.33,0.22,0.86-0.29,0.95c-0.61,0.11-0.46-0.69-0.78-0.94
		c-0.25-0.2-0.56-0.66-0.9-0.5c-0.6,0.28,0.07,1.32-0.34,1.66c-0.85,0.7-2.14,0.11-3.14-0.04c-0.79-0.12-0.97-1.05-1.43-1.61
		c-0.05-0.06-0.1-0.11-0.16-0.16c-0.39-0.36-1.11-0.21-1.3,0.29c-0.08,0.2-0.05,0.44-0.1,0.65c-0.23,0.83-0.7,1.1-1.46,0.75
		c-0.38-0.18-0.72-0.48-1.02-0.79c-0.93-0.98-0.96-0.98-1.78,0.01c-0.22,0.26-0.51,0.51-0.82,0.63c-1.31,0.51-2.47,0.24-3.46-0.75
		c-0.26-0.26-0.51-0.55-0.82-0.74c-0.67-0.42-1.45-0.03-1.61,0.78c-0.15,0.79-0.56,1.04-1.14,0.65c-0.49-0.33-0.92-0.75-1.37-1.12
		c-0.53-0.43-1.11-0.72-1.83-0.62c-0.7,0.1-0.93,0.65-1.23,1.16c-0.06,0.1-0.23,0.17-0.37,0.21c-0.59,0.16-1.1-0.19-1.58-0.62
		c-0.41-0.36-0.97-0.8-1.52-0.74c-0.78,0.08-1.06,1.02-1.57,1.17c-0.22,0.07-0.32,0.01-0.38-0.03c-2.09-1.32-4.39-1.49-6.77-1.34
		c-0.35,0.02-0.71-0.12-1.06-0.2c-0.72-0.15-1.44-0.4-2.16-0.44c-0.97-0.05-2.19-0.25-2.32-1.33c-0.05-0.44,0.26-0.95,0.55-1.32
		c0.74-0.93,1.08-1.9,0.85-3.09c-0.08-0.42,0.11-0.89,0.07-1.32c-0.05-0.5-0.21-1.13-0.36-1.48c-0.24-0.56-0.76-1.7-1.19-2.13
		c-0.7-0.7-2.54-1.58-3.45-1.97c-0.75-0.32-2.36-0.65-3.13-0.93c-0.72-0.27-2.07-1.04-2.81-1.25c-1.7-0.49-5.25-1.02-7.02-0.96
		c-1.03,0.03-3.03,0.63-4.05,0.81c-0.48,0.09-1.43,0.29-1.91,0.3c-0.41,0.01-1.25-0.05-1.64-0.18c-1.04-0.36-2.47-1.56-4.07-1.7
		c-1.58-0.13-3.07,0.37-4.62,0.45c-1.45,0.08-2.06,1.02-1.6,2.44c0.3,0.91,0.72,1.79,1.05,2.69c0.18,0.48,0.41,0.99,0.39,1.48
		c-0.03,1.15,0.27,2.18,0.76,3.2c0.17,0.36,0.28,0.94,0.11,1.25c-0.4,0.7-0.46,1.41-0.34,2.14c0.12,0.79,0.47,1.58,0.46,2.36
		c-0.01,0.87,0.95,1.2,0.98,1.88c0.01,0.18-0.1,0.32-0.19,0.42c-1.19,1.36-1.34,2.74-0.1,4.16c0.08,0.1,0.1,0.28,0.09,0.46
		c-0.05,0.64-0.23,1.35-0.65,1.81c-1.33,1.46-1.92,1.46-3.75,0.78c-1.52-0.56-2.1-2.87-3.68-3c-0.74-0.06-1.19,1.34-1.99,1.14
		c-1.31-0.33-1.32-2.3-1.58-3.62c-0.03-0.15-0.45-0.3-0.7-0.31c-0.12-0.01-0.39,0.3-0.38,0.45c0.05,0.81,0.18,1.61,0.25,2.41
		c0.08,0.96-0.18,1.67-1.42,1.4c-0.68-0.15-0.57-1.7-1.35-1.51c-0.66,0.16,0.18,1.85-0.64,1.72c-1.07-0.17-0.66-2.19-1.52-2.51
		c-0.64-0.24-1.39,0.15-1.85,0.58c-0.52,0.48,0.33,2.31-0.68,2.13c-0.54-0.1-0.54-0.81-0.73-1.18c-0.47-0.92-0.85-1.89-1.37-2.78
		c-0.44-0.75-1.24-1.45-2.02-0.78c-1.33,1.12,1.6,4.39-0.23,4.56c-1.14,0.1-1.36,0.49-1.89,0.21c-0.78-0.41-0.53-2.61-1.5-2.11
		c-0.34,0.18-0.15,0.64-0.14,0.9c0.01,0.36,0.13,0.72,0.15,1.09c0.01,0.33-0.54,0.67-0.84,0.51c-0.32-0.17-0.59-0.41-0.88-0.64
		c-0.32-0.25-0.26-1.4-0.94-0.91c-0.39,0.28-0.02,1.26-0.59,1.57c-0.56,0.3-1.25-0.1-1.63-0.38c-0.63-0.47-0.36-1.72-1.09-1.87
		c-0.62-0.12-0.82,0.82-1.2,0.91c-0.46,0.11-0.75-0.71-1.11-0.32c-0.29,0.31-0.12,1.14-0.69,1.26c-0.44,0.09-0.71-0.44-0.86-0.71
		c-0.46-0.84-0.81-1.74-1.27-2.58c-0.16-0.29-0.48-0.55-0.79-0.69c-0.21-0.09-0.57-0.04-0.73,0.1c-1.12,0.94,1.37,3.18,0.2,4.05
		c-1.34,1-2.88-1.29-3.81-1.48c-1.1-0.23-0.89,1.5-1.64,0.85c-0.66-0.57-0.62-1.71-0.98-2.59c-0.16-0.38-0.51-0.54-0.91-0.41
		c-0.42,0.14-0.58,0.49-0.41,0.87c0.41,0.91,1.31,2.51,0.23,3.01c-0.65,0.3-1.03-0.66-1.38-1c-0.35-0.33-0.43-1.03-0.88-1.13
		c-0.78-0.16-0.6,0.91-0.65,1.43c-0.09,1-0.62,1.31-1.49,0.89c-0.52-0.25-1.03-0.84-1.61-0.53c-0.83,0.45-1.16-0.66-1.74-0.52
		c-0.37,0.09-0.48,0.75-0.84,0.71c-1.9-0.2-1.25-0.4-2.86-1.06c-0.38-0.16-0.41-0.74-0.64-1.1c-0.2-0.31-0.39-0.65-0.67-0.87
		c-0.19-0.15-0.59-0.21-0.79-0.1c-0.19,0.1-0.37,0.48-0.34,0.71c0.06,0.43,0.35,0.83,0.41,1.26c0.05,0.4,0.26,1-0.13,1.33
		c-0.71,0.6-1.92,0.58-2.53-0.1c-0.48-0.54-0.07-1.82-0.82-2.08c-0.31-0.11-0.57,0.23-0.61,0.37c-0.1,0.35-0.05,0.74-0.14,1.09
		c-0.17,0.65-0.58,0.85-1.32,0.89c-1.2,0.06-2.02-0.94-3.15-0.98c-0.3-0.01-0.37,0.25-0.47,0.34c-1.28,1.12-2.05,0.99-2.69-0.46
		c-0.15-0.34-0.22-0.72-0.42-1.02c-0.13-0.21-0.35-0.89-0.84-0.66c-0.94,0.44,0.32,1.95-0.12,2.51c-0.88,1.11-1.88-1.07-2.97-1.11
		c-2.15-0.07-1.53,0.4-4.02-0.95c-0.8-0.43-2.11-0.71-2.89,0c-0.3,0.27-0.17,0.79-0.13,1.2c-0.78-0.75-0.87,1.35-1.63,1.46
		c-1.13,0.17-2.38,0.56-3.42,0c-1.11-0.6-1.55-2.67-2.85-2.12c-0.38,0.16-0.41,0.76-0.76,0.84c-0.42,0.1-0.78-0.62-1.2-0.47
		c-0.7,0.25-0.29,1.74-1.04,1.87c-0.86,0.15-1.2-1.06-1.77-1.5c-0.14-0.11-0.43-0.19-0.6-0.09c-0.46,0.29-0.2,1.06-0.46,1.32
		c-0.83,0.82-1.9-0.15-2.74-0.38c-1.18-0.34-2.31-1.08-3.62-0.51c-0.12,0.05-0.29,0.01-0.44-0.01c-1.74-0.27-3.48-0.53-5.21-0.84
		c-0.34-0.06-0.67-0.3-0.94-0.53c-0.28-0.23-0.47-0.57-0.73-0.84c-0.88-0.9-1.92-1.04-2.99-0.37c-0.29,0.18-0.46,0.58-0.75,0.66
		c-0.97,0.24-1.47-0.8-1.76-1.64c-0.39-1.11-1.15-2.34-2.33-1.96c-1,0.32-1.59,1.23-2.33,1.84c-0.71,0.59-1.12,1.33-1.23,2.28
		c-0.23,2.07,0.25,3.96,1.37,5.67c0.5,0.77,0.74,1.55,0.89,2.45c0.22,1.29,0.51,2.64,1.12,3.78c0.53,0.99,0.9,1.92,0.98,3.03
		c0.13,2,1.17,3.62,2.22,5.24c0.48,0.74,0.91,1.51,1.34,2.28c0.22,0.38,0.34,0.83,0.61,1.17c1.24,1.59,2.16,3.34,2.68,5.3
		c0.19,0.7,0.46,1.43,1.12,1.87c1.29,0.87,2.56,1.77,3.89,2.56c0.4,0.24,1.09,0.37,1.46,0.18c0.8-0.41,1.54-0.36,2.37-0.24
		c0.42,0.06,0.89-0.05,1.3-0.19c1.05-0.35,2.11-0.71,3.12-1.16c1.43-0.65,2.9-1.01,4.48-0.97c1.33,0.03,2.66,0.02,3.99,0.08
		c0.97,0.04,1.75-0.22,2.25-1.1c0.1-0.18,0.22-0.41,0.41-0.49c0.23-0.1,0.49-0.03,0.68,0.05c0.89,0.36,1.7,0.46,2.4-0.41
		c0.15-0.19,0.53-0.2,0.81-0.27c0.99-0.27,1.86,0.06,2.75,0.49c1.65,0.8,1.9,0.69,2.87-0.81c0.2-0.31,0.45-0.6,0.62-0.92
		c0.56-1.07,1.45-2.07,2.6-1.74c1.66,0.48,2.8,1.96,4.19,2.94c0.51,0.36,1.14,0.69,1.63,0.26c0.8-0.7,2-0.16,2.68-0.77
		c0.23-0.21,0.19-0.49,0.27-0.69c0.44-0.98,0.52-1.02,1.47-0.84c0.56,0.1,1.17,0.5,1.71,0.28c0.73-0.3,0.68-1.37,1.2-1.64
		c2.01-1.01,2.84-0.76,4.33-0.89c0.75-0.07,1.41,0.81,2.16,0.78c1.41-0.06,0.61-2.94,1.83-3c1.01-0.05,1.43,1.24,2.06,1.86
		c0.62,0.62,1.19,1.3,1.78,1.96c0.54,0.6,1.1,1.47,1.78,1.28c1.04-0.29,1.47-1.39,2.25-1.69c1.11-0.43,1.69-1.08,1.87-2.22
		c0.09-0.57,0.23-1.3,0.87-1.31c0.95-0.02,1.34,1.68,2.28,1.17c0.69-0.38-0.35-1.75,0.42-1.83c0.72-0.07,1.19,0.83,1.79,0.9
		c0.81,0.09,1.37,0.46,1.93,0.96c0.96,0.85,1.99,1.22,3.25,0.62c0.66-0.31,1.29-0.12,1.81,0.44c0.35,0.38,0.7,0.79,1.12,1.07
		c0.53,0.36,1.43,1.2,1.93,0.39c0.5-0.81-1.16-2.67,0-3.24c0.57-0.28,0.78,0.59,1.04,0.81c0.69,0.55,1.36,1.13,2.07,1.65
		c0.3,0.21,0.75,0.27,1.01-0.07c0.16-0.2,0.27-0.6,0.18-0.81c-0.48-1.06-0.32-2.19-0.4-3.28c-0.01-0.15,0.16-0.47,0.4-0.51
		c0.62-0.09,0.91,0.95,1.52,1.01c0.47,0.04,0.82-0.45,1.23-0.49c0.4-0.04,0.85,0.41,1.29,0.25c0.71-0.26,0.91-1.09,1.26-1.64
		c0.19-0.3,0.34-0.97,0.84-0.62c0.31,0.21,0.36,0.73,0.59,1.1c0.78,1.26,1.52,2.55,2.4,3.74c0.51,0.7,1.18,1.3,2.12,1.52
		c0.87,0.2,1.26-0.94,2.01-0.81c0.81,0.14,1.32,0.97,1.99,1.42c0.39,0.26,1.04,0.02,1.06-0.41c0.03-1.24,0.4-2.49-0.27-3.7
		c-0.21-0.37-0.25-0.85-0.29-1.28c-0.04-0.51,0.27-0.82,0.74-0.97c0.5-0.15,0.88,0.02,1.09,0.49c0.33,0.74,0.67,1.49,0.96,2.25
		c0.4,1.07,1.09,1.93,1.85,2.75c0.64,0.69,1.66,0.38,2.35,1.03c0.47,0.45-0.58,1.36-0.19,2c0.47,0.76,1.57,0.65,2.3,0.99
		c0.47,0.21,0.95,0.42,1.35,0.74c0.4,0.32,0.9,0.93,0.35,1.36c-0.16,0.13-0.4,0.15-0.62,0.2c-2.64,0.6-2.63,0.6-3.37,3.08
		c-0.18,0.58,0,1.02,0.44,1.37c0.23,0.18,0.5,0.31,0.76,0.46c0.45,0.25,0.99,0.42,1.33,0.77c0.44,0.45,2.08-0.04,1.55,0.71
		c-0.25,0.35-0.97-0.37-1.3,0c-0.25,0.27,0.08,0.64,0.09,0.92c0.01,0.27,0.21,0.62,0,0.86c-0.6,0.7-1.88-0.17-2.58,0.38
		c-0.71,0.56-0.76,1.63-0.97,2.48c-0.23,0.94-0.34,2.1,0.63,2.62c0.86,0.46,1.18,1.3,1.88,1.83c0.66,0.5,0.77,1.32,0.22,1.73
		c-1.57,1.15-2.65,0.15-2.66,1.65c0,0.48,0.76,0.8,0.73,1.32c-0.03,0.61-0.73,0.96-1.01,1.47c-0.39,0.7-0.16,1.67,0.56,1.88
		c1.42,0.41,2.6,1.46,4.16,1.46c0.12,0,0.29,0.1,0.36,0.23c0.22,0.46,0.08,1.07-0.12,1.51c-0.4,0.9-1.13,1.68-1.95,2.07
		c-0.74,0.35-1.56,0.08-2.29,0.18c-0.65,0.09-1.02,0.56-1.23,1.16c-0.17,0.49,0.11,1.18,0.65,1.53c0.3,0.2,0.66,0.3,1.01,0.43
		c0.48,0.18,1.36-0.02,1.49,0.51c0.17,0.69-1.04,0.9-1.34,1.43c-0.27,0.49-0.61,0.76-1.07,1.03c-1.7,0.98-1.87,1.67-0.94,3.42
		c0.1,0.19,0.33,0.36,0.33,0.64c-0.02,0.92-0.15,1.49-0.01,2.48c0.15,1.05,0.87,1.73,0.72,2.5c-0.14,0.73-0.98,0.91-1.32,1.37
		c-0.39,0.54-0.25,1.08,0.34,1.54c0.17,0.13,0.41,0.16,0.6,0.28c0.09,0.06,0.18,0.21,0.16,0.33c-0.07,0.5-0.79,0.7-0.92,1.11
		c-0.06,0.18,0,0.27,0.03,0.33c0.23,0.46,0.75,0.85,0.71,1.37c-0.12,1.67-0.26,1.48-0.88,2.9c-0.51,1.18-2.13,2.25-0.86,3.31
		c0.87,0.72,2.25,0.44,3.43,0.45c0.69,0.01,1.32,0.18,1.87,0.56c0.18,0.12,0.59,0.48,0.38,0.81c-0.47,0.76-1.64-1.35-2.22-0.45
		c-0.13,0.2-0.1,0.51-0.15,0.8c-0.05,0.35,0.16,0.83-0.14,1.1c-0.35,0.31-0.83,0.05-1.17-0.01c-0.43-0.08-0.84-0.3-1.27-0.4
		c-0.48-0.11-0.93,0.06-1.12,0.5c-0.21,0.46-0.36,0.97-0.39,1.47c-0.03,0.5,0.42,0.73,0.82,0.95c0.17,0.1,0.39,0.27,0.43,0.55
		c0.19,1.08-0.67,2.09-1,3.14c-0.04,0.14-0.11,0.29-0.1,0.43c0.13,1,0.18,2.02,0.45,2.98c0.32,1.11,1.26,1.98,1.33,3.26
		c0.07,1.41-1.42,2.38-1.34,3.74c0.07,1.3-0.43,2.66,0.32,3.92c0.09,0.16,0.08,0.48-0.03,0.63c-0.35,0.5-0.19,0.96-0.04,1.46
		c0.08,0.26,0.09,0.64-0.04,0.86c-0.68,1.17,0.27,2.63-0.46,3.95c-0.05,0.09-0.38,0.19-0.58,0.4c-0.65,0.69-1.06,1.44-0.4,2.38
		c0.12,0.17,0.22,0.43,0.18,0.62c-0.23,1.16,1.07,1.64,1.21,2.71c0.21,1.56-3.26,3.24-1.48,4.3c0.91,0.54,3.49-0.73,3.21,0.51
		c-0.14,0.61-1.29-0.17-1.74,0.2c-1.16,0.96-0.94,2.8-1.29,4.2c-0.41,1.62,0.05,3.35-0.46,4.98c-0.08,0.26,0.07,0.58,0.09,0.88
		c0.06,0.81,0.07,1.62,0.17,2.42c0.2,1.44,0.25,2.92,0.89,4.28c0.18,0.38,0.31,0.84,0.29,1.25c-0.06,1.38-1.09,1.85-1.16,3.26
		c-0.02,0.41,0.65,0.68,0.65,1.16c0,0.42-0.58,0.69-0.62,1.08c-0.11,1.12,1.32,2.07,1.04,3.14c-0.15,0.59-1.09,0.66-1.24,1.16
		c-0.14,0.46,0.32,0.82,0.27,1.17c-0.07,0.5-0.72,0.83-0.7,1.31c0.07,1.63,0.67,2.03,0.29,3.97c-0.09,0.45,0.6,0.71,0.53,1.11
		c-0.09,0.5-1.1,0.5-1.2,1.15c-0.12,0.75,1.09,1.29,0.49,2.17c-0.11,0.15,0.09,0.55,0.2,0.8c0.15,0.33,0.47,0.59,0.51,0.87
		c0.04,0.26-0.06,0.42-0.13,0.53c-0.6,0.99-0.97,1.98-0.3,3.13c0.16,0.27,0.03,0.72,0.02,1.08c-0.02,0.66-0.16,1.34-0.07,1.99
		c0.29,2.08-0.87,3.96-0.69,5.95c0.08,0.86,1.24,1.33,1.22,2.1c-0.01,0.56-0.72,0.77-0.8,1.24c-0.06,0.35,0.21,0.69,0.25,1.05
		c0.12,1.14,0.58,2.31-0.32,3.39c-0.17,0.2-0.14,0.79,0.04,1.03c0.93,1.29,0.63,2.48-0.1,3.71c-0.2,0.34-0.5,0.83-0.31,1.23
		c0.24,0.49,1.03,0.24,1.26,0.6c0.5,0.77-0.03,1.78-0.42,2.62c-0.17,0.36-0.17,0.9-0.02,1.27c0.27,0.66,0.39,1.23,0.07,1.91
		c-0.11,0.23-0.03,0.58,0.03,0.87c0.18,0.94,0.52,1.86,0.56,2.81c0.04,1.01-0.11,2.01,0.57,2.89c0.06,0.08-0.02,0.29-0.08,0.42
		c-0.2,0.48-0.05,0.87,0.3,1.2c0.89,0.83,1.33,1.88,1.72,3.01c0.38,1.11,0.85,2.24,1.53,3.17c0.73,0.98,1.38,2.09,2.54,2.72
		c1.57,0.87,3.25,1.66,5,1.76c1.98,0.11,3.95,0.39,5.93,0.44c0.81,0.02,1.64-0.06,2.43,0.07c1.08,0.17,2.03-0.42,3.06-0.41
		c1.03,0.01,2.06,0.12,3.09,0.09c0.49-0.01,1.01-0.42,1.47-0.35c1.56,0.24,2.99-0.92,4.56-0.36c0.11,0.04,0.28-0.08,0.42-0.12
		c1.36-0.35,2.7-0.82,4.08-1.01c2.26-0.31,3.69-1.74,5.04-3.34c0.44-0.52,0.32-1.37-0.19-1.81c-0.22-0.19-0.48-0.37-0.76-0.45
		c-1.23-0.34-1.72-1.3-2.08-2.39c-0.28-0.85-0.51-1.69-0.46-2.6c0.09-1.94-0.24-3.82-0.7-5.7c-0.24-0.97-0.61-1.8-1.24-2.55
		c-0.08-0.09-0.09-0.28-0.05-0.41c0.13-0.4,0.91-0.51,0.9-1.04c-0.02-1.11-1.47-1.56-2.17-2.3c-0.35-0.37-0.72-0.73-1.04-1.14
		c-0.24-0.31-0.4-1.07,0.12-1c0.37,0.05,0.39,0.64,0.65,0.89c0.33,0.32,0.89,0.19,1.14-0.21c0.3-0.47,0.19-1.09-0.31-1.34
		c-0.37-0.19-0.94-0.07-1.19-0.38c-0.99-1.24-0.13-1.58-1.22-3.2c-0.12-0.18-0.27-0.41-0.25-0.59c0.11-1.05-0.24-2.01-0.49-3
		c-0.06-0.25,0.02-0.62,0.19-0.81c0.14-0.16,0.32-0.16,0.45-0.18c1.17-0.21,1.57-0.63,1.56-1.67c-0.01-0.87-0.12-2.21-1.08-2.27
		c-0.69-0.04-0.78,1.55-1.43,1.36c-0.25-0.07-0.16-0.41-0.12-0.53c0.35-1.12,0.87-2.17,0.19-3.4c-0.58-1.06,0.6-2.25-0.09-3.44
		c-0.42-0.72-0.26-1.63,0.25-2.32c0.83-1.14,0.85-2.31,0.38-3.58c-0.13-0.34-0.13-0.73-0.23-1.09c-0.2-0.75-0.19-1.48,0.16-2.17
		c0.48-0.95,0.7-1.82-0.38-2.53c-0.1-0.07-0.19-0.27-0.16-0.38c0.25-0.93-0.33-1.52-0.79-2.2c-0.51-0.76-0.4-1.37,0.21-2
		c0.2-0.21,0.45-0.38,0.68-0.57c1.03-0.87,1.15-1.81,0.29-2.83c-0.43-0.51-0.98-0.9-1.42-1.4c-0.58-0.67-0.79-1.41-0.23-2.22
		c0.12-0.18,0.26-0.37,0.27-0.56c0.14-2.15-3.17-4.17-2-6.13c0.59-0.98,1.24-1.64,1.89-2.38c0.74-0.84,1.37-1.69,1.82-2.7
		c0.2-0.46,0.43-0.92,0.71-1.33c0.31-0.46,0.93-0.76,1.01-1.23c0.38-2.07-2.88-2.44-3.7-4.05c-0.15-0.29,0.14-0.6,0.05-0.75
		c-0.61-1.08-1.72-1.98-1.89-3.19c-0.15-1.11,0.16-2.36,0.9-3.28c0.42-0.53,1.89-0.5,1.58-1.48c-0.19-0.62-1.34-0.81-1.43-1.52
		c-0.1-0.78,0.62-1.41,1.09-1.93c0.46-0.52,1.78-0.45,1.88-1.32c0.22-2.13-2.84-2.78-4.06-4.42c-0.53-0.71-0.66-1.66-0.33-2.48
		c0.48-1.18,0.84-2.36,1.86-3.33c0.24-0.22,0.29-0.92,0.12-1.24c-0.51-0.98,0.22-2.22-0.7-3.09c-0.07-0.06-0.06-0.33,0.02-0.41
		c0.78-0.8-0.31-1.69-0.03-2.39c0.27-0.68,1.23-0.63,1.52-1.07c0.29-0.43-0.05-1.23,0.33-1.63c0.64-0.67,1.7-0.36,2.49-0.56
		c0.57-0.15,0.77-0.8,0.37-1.23c-0.34-0.36-0.94-0.53-1.08-0.95c-0.45-1.35,0.28-1.49-0.4-2.08c-0.45-0.38-1.14-0.64-1.34-1.11
		c-0.47-1.11-1.82-1.34-2.32-2.36c-0.41-0.84-0.64-2-0.15-2.79c0.43-0.68,1.36-0.54,1.95-0.83c0.17-0.08,0.39-0.4,0.34-0.52
		c-0.36-1.01-0.61-2.04-0.71-3.11c-0.01-0.16-0.3-0.3-0.48-0.44c-0.34-0.27-0.89-0.39-1.01-0.77c-0.56-1.74-0.23-1.37-0.52-2.96
		c-0.19-1.04,0.36-0.99,0.11-2.06c-0.05-0.19-0.08-0.45,0.05-0.64c0.35-0.51,1.36-0.22,1.67-0.8c0.16-0.3-0.08-0.62-0.15-0.89
		c-0.25-1.07-0.04-1.52,0.94-1.81c0.42-0.12,0.88-0.13,1.31-0.24c0.25-0.06,0.58-0.12,0.68-0.34c0.47-1.02-1.59-1.22-1.77-2.07
		c-0.08-0.37,0.29-0.8,0.17-1.07c-0.29-0.66-1-1.14-1.11-1.81c-0.22-1.29,0.19-1.63-0.74-1.97c-0.9-0.33-1.84-0.55-2.76-0.83
		c-1.41-0.43-3.27-0.67-2.46-2.44c0.12-0.27,0.57-0.15,0.84-0.25c0.69-0.26,1.39-0.5,2.06-0.81c0.49-0.23,0.56-0.96,0.15-1.32
		c-0.22-0.2-0.45-0.39-0.72-0.51c-0.94-0.42-2.17-0.41-2.99-1.28c-0.29-0.31-0.34-0.94-0.53-1.48c-0.01-0.04,0.02-0.18,0.22-0.3
		c0.34-0.2,0.9-0.07,1.39-0.18c1.61-0.38,3.42-0.16,4.68-1.62c0.46-0.54,1.38-0.66,1.47-1.54c0.1-1-0.78-1.34-1.34-1.89
		c-0.15-0.14-0.29-0.35-0.29-0.53c0.02-0.62,0.93-0.94,0.91-1.54c-0.07-2.06-4.65-0.62-4.76-2.46c-0.05-0.92,1.39-0.69,2.09-0.78
		c1.54-0.2,3.09-0.31,4.63-0.52c0.65-0.09,1.31-0.25,1.91-0.52c0.64-0.29,0.78-1.25,0.22-1.69c-0.81-0.64-1.67-1.24-2.59-1.69
		c-1.32-0.65-2.7-1.2-4.09-1.72c-1.13-0.42-2-1.13-2.72-2.03c0.59-0.64,1.23-0.78,1.91-0.79c0.59-0.01,1.19,0.02,1.78-0.03
		c0.59-0.05,1.19-0.1,1.74-0.29c1.19-0.41,1.5-1.49,0.68-2.47c-0.42-0.49-0.99-0.9-1.56-1.2c-0.94-0.5-2.56-1.08-2.22-2.1
		c0.43-1.28,2.47-0.73,3.62-1.16c0.91-0.34,1.07-0.68,0.89-1.73c-0.08-0.46-0.25-0.84,0.29-1.12c0.43-0.23,0.59-0.63,0.59-1.11
		c0-0.35-0.26-0.88,0.13-1.18c0.38-0.3,0.9,0,1.15,0.17c1.79,1.24,3.97,1.09,5.93,1.72c0.87,0.28,1.63-0.25,1.85-1.15
		c0.22-0.93,0.37-1.89,0.44-2.84c0.07-0.94-0.8-2.27,0.02-2.96c0.46-0.39,1.02,0.2,1.44,0.23c1.22,0.08,2.31,0.32,3.1,1.41
		c0.33,0.46,1.11,1.12,1.67,0.54c0.92-0.96-0.63-3.16,0.45-4.1c1.12-0.98,2.67,0.56,3.43,1.84c0.3,0.51,0.69,0.97,1.08,1.41
		c0.24,0.27,0.55,0.5,0.87,0.67c0.56,0.31,1.29-0.13,1.27-0.76c-0.04-1.02-0.13-2.04-0.14-3.06c0-0.2,0.09-0.74,0.5-0.73
		c0.72,0.01,0.67,1.03,0.96,1.45c0.5,0.73,0.99,1.48,1.53,2.18c0.39,0.51,1.01,0.84,1.52,0.41c1.15-0.96-0.99-3.36,0.33-3.93
		c0.95-0.41,1.19,1.28,1.65,1.91c0.61,0.83,1.22,1.68,1.95,2.4c0.6,0.6,1.5,0.26,1.74-0.57c0.22-0.74,0.1-1.46-0.1-2.19
		c-0.1-0.38-0.42-1.39,0.34-1.25c0.46,0.08,0.6,0.74,0.89,1.13c0.48,0.65,0.91,1.34,1.44,1.95c0.59,0.68,1.58,1.12,2.2,0.39
		c0.66-0.78,0.32-1.9-0.01-2.85c-0.19-0.54-0.24-1.13-0.31-1.71c-0.06-0.5,0.17-0.93,0.66-0.99c0.31-0.04,0.7,0.15,0.96,0.36
		c0.28,0.22,0.42,0.6,0.67,0.88c0.39,0.44,0.78,0.89,1.23,1.26c0.61,0.5,1.33,0.25,1.56-0.51c0.08-0.28,0.08-0.59,0.15-0.87
		c0.08-0.31-0.11-1.09,0.45-0.9c0.88,0.31,1.19,1.47,1.76,2.23c0.39,0.52,0.82,0.9,1.49,0.63c0.53-0.21,0.76-0.68,0.76-1.25
		c0-0.15,0.02-0.3,0-0.44c-0.14-1.04,0.31-1.94,1.26-2.12c1.01-0.19,2.15-0.17,3.09,0.32c1.78,0.91,1.95,4.95,4.18,4.3
		c1.35-0.39,0.81-2.07,0.34-3.15c-0.44-1.01-0.46-2.76,0.78-2.54c1.28,0.23,1.41,2.03,2.56,2.53c0.35,0.15,0.54,0.68,0.78,1.04
		c0.6,0.93,1.14,1.91,1.8,2.79c0.39,0.52,0.94,0.94,1.45,1.35c0.44,0.35,0.95,0.4,1.45,0.09c0.44-0.27,0.54-0.7,0.46-1.16
		c-0.13-0.72-0.32-1.44-0.47-2.16c-0.12-0.57-0.25-1.15-0.31-1.73c-0.02-0.16,0.16-0.43,0.32-0.5c0.16-0.08,0.47-0.05,0.61,0.06
		c0.34,0.28,0.62,0.62,0.91,0.95c0.69,0.77,1.37,1.55,2.04,2.33c0.41,0.47,0.93,0.96,1.58,0.75c1.01-0.32,1.16-1.44,0.98-2.48
		c-0.05-0.29-0.21-0.58-0.19-0.86c0.03-0.52,0.23-1.38,1.01-1.03c0.88,0.4,1.03,1.67,1.49,2.59c0.63,1.27,1.37,2.46,2.61,3.24
		c0.41,0.26,1-0.02,0.99-0.49c-0.02-0.58-0.13-1.17-0.21-1.75c-0.1-0.73-0.05-1.55-0.37-2.16c-0.48-0.9,0.48-1.29,0.47-2
		c-0.01-0.44,0.54-0.65,0.83-0.38c0.32,0.3,0.69,0.61,0.85,1c0.28,0.68,0.79,1.04,1.38,1.38c2.21,1.27,2.34,0.25,4.38-1.31
		c0.7-0.54,1.52,0.14,2.19,0.7c1.08,0.9,1.82,0.63,2.37-0.67c0.18-0.43-0.16-1.35,0.47-1.36c1.27-0.04,1.24,3.05,2.54,2.53
		c0.45-0.18,0.26-1.17,0.76-1.29c0.72-0.17,1.1,1.17,1.76,1.14c0.5-0.02,0.59-0.88,1.04-0.81c0.6,0.09,0.68,0.98,1.02,1.45
		c0.39,0.54,0.75,1.1,1.19,1.6c0.49,0.56,1.04,0.41,1.35-0.32c0.11-0.26-0.1-0.73,0.19-0.86c0.85-0.36,1.41,1.1,2.15,1.3
		c0.98,0.27,1.74,1.35,2.82,1.19c0.69-0.1,0.57-1.29,1.11-1.45c0.93-0.28,1.69,0.84,2.39,0.84c1.63,0,1.01-3.19,2.48-3.15
		c0.84,0.02,0.49,1.34,0.75,1.86c0.4,0.79,0.79,1.6,1.33,2.3c0.53,0.7,1.17,1.41,2.23,0.7c0.18-0.12,0.56,0,0.84,0.07
		c0.49,0.12,0.96,0.52,1.42,0.43c0.32-0.06,0.48-0.3,0.59-0.48c0.33-0.52,0.31-1.57,0.94-1.61c0.2-0.01,0.27,0.26,0.29,0.39
		c0.3,2.04-0.49,4.11,0.13,6.15c0.05,0.17-0.16,0.41-0.18,0.63c-0.17,1.58-0.61,3.12-0.3,4.77c0.19,0.99,0.25,2.2-0.16,3.06
		c-0.56,1.15-0.55,2.27-0.64,3.44c-0.05,0.66-0.03,1.44-0.37,1.93c-1.08,1.53-1.63,3.25-2.13,5.01c-0.12,0.42-0.27,0.85-0.49,1.24
		c-0.88,1.56-1.49,3.2-1.85,4.95c-0.15,0.71-0.44,1.43-0.81,2.05c-0.85,1.44-1.25,3.04-1.41,4.63c-0.13,1.29-0.55,2.43-0.96,3.61
		c-0.39,1.11-0.74,2.24-1.12,3.36c-0.14,0.41-0.22,0.92-0.5,1.2c-0.57,0.56-0.74,1.27-1,1.96c-0.52,1.38-1.08,2.74-1.89,3.99
		c-0.52,0.79-0.85,1.72-1.2,2.61c-0.35,0.89-0.59,1.84-0.95,2.73c-1.31,3.22-2.64,6.43-3.98,9.64c-0.49,1.16-1.03,2.29-1.59,3.42
		c-0.1,0.21-0.31,0.67-0.64,0.57c-1.7-0.55-0.46-1.88,0.12-2.88c0.56-0.98,1.26-1.97,1.13-3.13c-0.16-1.54-2.13-1.87-2.91-3.05
		c-0.86-1.3-0.59-2.96,0.34-4.36c0.38-0.57,0.45-1.42,0.47-2.14c0.05-1.39,0.38-2.6,1.34-3.66c0.58-0.64,0.61-1.49,0.26-2.31
		c-0.2-0.48-0.44-0.94-0.64-1.42c-0.43-1.02-0.9-2.03-1.26-3.07c-0.33-0.94-0.29-1.85,0.3-2.75c0.82-1.25,1.62-2.4,3.06-3.1
		c1.55-0.75,1.76-2.42,0.58-3.72c-0.53-0.59-1.22-1.1-1.93-1.46c-1.18-0.59-2.43-1.05-3.67-1.52c-1.17-0.45-2.34-0.91-3.54-1.25
		c-1.35-0.38-2.77-0.53-4.09-0.98c-2.12-0.72-4.28-1.1-6.51-1.21c-0.44-0.02-0.87-0.19-1.3-0.24c-1.98-0.23-3.94-0.76-5.96-0.46
		c-0.42,0.06-0.91,0.31-1.3,0.1c-1.23-0.67-1.62-1.88-2.9-2.33c-2.7-0.96-5.38-2.05-7.95-3.32c-2.08-1.03-4.34-1.4-6.5-2.11
		c-1.94-0.64-4.07-0.73-6.1-1.11c-0.75-0.14-1.52-0.26-2.17,0.13c-0.85,0.5-1.78,0.44-2.6,0.26c-1.6-0.36-2.88,0.18-4.2,0.93
		c-1.56,0.89-2.95,1.97-4.17,3.27c-2.16,2.28-3.72,4.98-5.24,7.69c-1.59,2.84-2.85,5.85-4.3,8.76c-1.9,3.81-3.06,7.87-4.44,11.85
		c-0.92,2.65-1.5,5.42-2.23,8.14c-0.53,2-0.99,4.02-1.61,6c-0.4,1.28-0.71,2.56-0.91,3.88c-0.1,0.66-0.21,1.32-0.32,1.97
		c-0.49,2.91-1.13,5.79-1.38,8.75c-0.3,3.55-0.51,7.09-0.29,10.65c0.28,4.48,1.79,8.48,4.61,12c0.89,1.11,2.01,1.94,3,2.93
		c1.72,1.74,3.39,3.52,5.13,5.24c1,0.98,2.01,1.99,3.16,2.77c1.36,0.91,3,1.19,4.59,1.58c2.43,0.6,4.81,1.37,7.33,1.51
		c0.07,0,0.14,0.05,0.21,0.08c1.34,0.48,2.72,0.71,4.14,0.59c1.62-0.14,3.26-0.19,4.85-0.51c1.75-0.35,3.24-1.34,3.65-3.18
		c0.39-1.79,1.06-3.55,0.88-5.44c-0.03-0.36-0.01-0.77,0.13-1.1c0.37-0.88,0.3-1.75,0.05-2.61c-0.24-0.83-0.11-1.6,0.13-2.4
		c0.55-1.84,1.09-3.68,1.6-5.52c0.14-0.49,0.27-1.02,0.26-1.52c-0.02-0.92,0.11-1.75,0.72-2.49c0.22-0.27,0.36-0.66,0.41-1.02
		c0.13-0.98,0.58-1.82,0.99-2.7c0.25-0.53,0.48-1.09,0.61-1.66c0.32-1.34,1.01-2.49,2.07-3.32c1.27-0.99,1.88-2.28,2.08-3.78
		c0.13-0.99,0.42-1.85,0.98-2.67c0.28-0.41,0.47-0.95,0.5-1.45c0.11-1.6,0.68-2.97,1.56-4.3c0.43-0.65,0.91-1.45,0.84-2.26
		c-0.1-1.1-0.13-1.64,0.55-2.35c0.33-0.34,0.42-0.93,0.62-1.4c0.14-0.33,0.18-0.79,0.43-0.97c1-0.72,1.21-1.82,1.51-2.88
		c0.12-0.43,0.24-0.86,0.42-1.26c0.2-0.44,0.72-0.94,1.16-0.42c0.29,0.34,0.35,0.92,0.37,1.42c0.08,1.79,0.54,3.51,0.84,5.25
		c0.11,0.66,0.15,1.33,0.25,1.99c0.48,3.37,0.86,6.76,1.48,10.11c0.85,4.58,1.8,9.14,2.4,13.77c0.06,0.44,0.14,0.89,0.32,1.28
		c0.7,1.47,1.44,2.92,2.19,4.36c0.24,0.45,0.55,0.87,0.87,1.28c1.14,1.44,2.8,1.85,4.47,2.24c1.16,0.27,2.33,0.12,3.51,0.13
		c1.23,0.01,2.45,0.49,3.69,0.63c1.03,0.12,2.07,0.03,3.11,0.04c0.67,0,1.34-0.06,2,0.01c1.58,0.18,3.09-0.27,4.63-0.45
		c0.4-0.05,0.97-0.32,1.1-0.64c0.47-1.15,1.08-2.35,0.81-3.61c-0.18-0.84-0.08-1.57,0.05-2.37c0.19-1.17,0.28-2.34,0.81-3.44
		c0.21-0.44,0.23-1.01,0.19-1.51c-0.14-1.76,0.31-3.36,1.1-4.9c0.2-0.39,0.39-0.8,0.47-1.22c0.34-1.88,0.63-3.78,0.97-5.66
		c0.06-0.35,0.28-0.67,0.4-1.02c0.2-0.55,0.39-1.11,0.57-1.67c0.2-0.63,0.27-1.32,0.59-1.88c1.31-2.27,1.14-5.02,2.41-7.3
		c0.17-0.3,0.05-0.74,0.14-1.09c0.28-1.15,0.48-2.33,1.38-3.22c0.5-0.49,0.75-1.12,0.79-1.79c0.06-1.01,0.56-1.81,1.09-2.63
		c0.85-1.3,1.69-2.62,1.78-4.26c0.01-0.14,0.22-0.62,0.55-0.5c1.01,0.36,0.47,1.96,0.23,2.94c-0.08,0.34-0.01,0.74,0.04,1.1
		c0.46,3.01,0.59,6.04,0.78,9.07c0.21,3.47,0.55,6.94,0.9,10.4c0.21,2.06,0.51,4.11,0.8,6.16c0.4,2.85,0.83,5.7,1.26,8.55
		c0.93,6.22,1.88,12.44,2.8,18.66c0.2,1.32,0.27,2.66,0.53,3.96c0.37,1.89,0.8,3.77,1.31,5.62c0.34,1.24,1.74,1.72,2.81,1.08
		c1.14-0.68,1.23-0.74,2.09,0.07c0.87,0.82,1.87,1.16,3.02,1.21c2,0.1,4,0.16,5.98-0.14c0.72-0.11,1.41-0.17,2.17-0.02
		c1.01,0.2,2.07,0.19,3.1,0.17c1.09-0.02,2.07-0.69,2.14-1.59c0.09-1.26,0.47-2.44,0.65-3.67c0.08-0.52-0.07-0.95-0.31-1.45
		c-0.63-1.32-1.19-2.69-1.11-4.21c0.1-1.92,0.25-3.83,0.29-5.75c0.03-1.85,0.16-3.73-0.12-5.53c-0.55-3.5-0.11-6.94,0.19-10.41
		c0.03-0.36,0.16-0.72,0.29-0.94c0.77-1.32,2.94-0.55,3.62-1.86c1.08-2.06,0.32-4.7,1.42-6.87c0.09-0.18,0.02-0.45,0.08-0.66
		c0.12-0.42,0.2-0.88,0.42-1.24c0.86-1.35,0.7-2.92,1.16-4.2c0.32-0.89,1.27-1.2,1.53-1.84c0.63-1.52,1.4-2.93,2.4-4.24
		c0.3-0.4,0.51-0.9,0.67-1.39c0.69-2.1,1.94-3.96,2.53-6.1c0.08-0.28,0.24-0.54,0.41-0.78c0.68-0.97,1.36-1.93,2.05-2.88
		c0.37-0.52,1.12-0.62,1.54-0.16c1.32,1.43,2.41,2.89,2.23,5.08c-0.29,3.46-0.32,6.95-0.48,10.42c-0.05,1.04-0.16,2.07-0.26,3.1
		c-0.27,2.72-0.41,5.47-0.86,8.17c-0.57,3.43-1.37,6.82-2.12,10.22c-0.22,1-0.72,1.95-0.9,2.96c-0.2,1.11-0.59,2.12-1.03,3.15
		c-0.53,1.22-0.95,2.49-1.47,3.72c-0.4,0.95-0.86,1.88-1.33,2.8c-0.53,1.04-1.43,1.44-2.55,1.4c-0.52-0.02-1.03-0.08-1.55-0.09
		c-0.93-0.02-1.55,0.44-1.85,1.31c-0.29,0.84-0.51,1.7-0.8,2.53c-0.79,2.31-1.57,4.61-2.39,6.91c-0.26,0.74-0.38,1.52,0.12,2.11
		c1.17,1.4,2.54,2.51,4.54,2.38c0.74-0.05,1.48-0.06,2.21-0.15c1.18-0.15,2.33-0.13,3.53,0.03c1.45,0.19,2.98,0.23,4.42,0
		c2.05-0.34,4.1-0.55,6.16-0.69c1.01-0.07,1.95-0.28,2.62-1.03c0.68-0.75,1.45-0.97,2.38-0.82c1.07,0.17,2.05,0.01,2.97-0.59
		c0.23-0.15,0.55-0.18,0.83-0.27c1.47-0.46,2.04-1.14,2.14-2.71c0.1-1.64,0.23-3.24,1.57-4.44c0.16-0.14,0.28-0.36,0.34-0.57
		c0.34-1.13,0.55-2.32,1.01-3.39c0.5-1.15,1.42-2.12,1.82-3.29c0.79-2.32,2.17-4.36,2.94-6.67c0.21-0.62,0.66-1.15,1-1.72
		c0.15-0.25,0.41-0.47,0.49-0.74c0.22-0.78,0.26-1.63,0.59-2.35c0.36-0.78,1.18-1.28,1.42-2.19c0.35-1.36,0.87-2.66,1.64-3.86
		c0.31-0.48,0.48-1.1,0.56-1.67c0.26-2.01,0.95-3.86,1.79-5.69c0.34-0.74,0.69-1.49,0.86-2.28c0.81-3.74,2.93-6.92,4.41-10.36
		c0.11-0.27,0.27-0.54,0.48-0.74c0.99-0.95,1.57-2.16,2.14-3.36c1.01-2.14,2.44-4.03,3.67-6.03c0.21-0.35,0.67-1.08,1.14-0.57
		c0.16,0.18,0.17,0.51,0.18,0.79c0.17,2.95,0.43,5.91,0.46,8.87c0.03,3.77-0.18,7.54-0.19,11.32c-0.01,3.92-0.01,7.85,0.17,11.77
		c0.21,4.73,0.12,9.48,0.92,14.18c0.27,1.6,0.41,3.23,0.7,4.83c0.41,2.26,0.95,4.49,1.33,6.76c0.17,1,0.29,2.21,1.23,2.54
		c0.53,0.18,1.02-0.33,1.65,0.1c1.31,0.89,2.79,1.24,4.41,0.79c1.29-0.36,2.61-0.33,3.95-0.09c1.66,0.31,3.36,0.46,5.05,0.57
		c0.87,0.06,1.78-0.03,2.64-0.23c1.3-0.3,1.69-1.45,0.92-2.54c-0.51-0.72-1.27-1.27-1.65-2.03c-0.61-1.22-0.18-2.52,0.84-3.5
		c0.1-0.1,0.17-0.25,0.26-0.36c0.68-0.83,0.85-1.77,0.33-2.69c-0.75-1.32-0.61-2.39,0.61-3.31c0.16-0.12,0.34-0.34,0.36-0.66
		c0.06-1.15,0.28-2.1,0.09-3.38C385.34,251.4,384.29,251.07,383.75,250.47z M217.24,188.89c-0.29,0.52-0.58,1.03-0.89,1.54
		c-0.65,1.05-0.93,2.1-0.64,3.37c0.33,1.42-0.14,2.81-0.81,4.06c-1.22,2.28-2.11,4.68-3.27,7.02c-1.16,2.34-2.11,4.72-3.69,6.8
		c-0.22,0.29-0.4,0.64-0.47,0.99c-0.13,0.65-0.14,1.3-0.81,1.74c-0.25,0.17-0.3,0.65-0.4,1.01c-0.3,1.06-0.68,1.92-1.49,2.86
		c-1.2,1.4-1.61,3.35-1.79,5.22c-0.1,1.08-0.38,1.99-1.18,2.76c-0.35,0.34-0.54,0.85-0.75,1.31c-0.43,0.94-0.84,1.89-1.25,2.84
		c-1.05,2.44-2.09,4.89-3.15,7.33c-1.8,4.14-3.61,8.27-5.43,12.4c-0.26,0.6-0.65,1.94-1.45,1.38c-0.33-0.23-0.35-0.85-0.25-1.18
		c0.43-1.34,0.28-2.63-0.07-3.94c-0.12-0.43-0.27-0.88-0.23-1.31c0.13-1.36-0.26-2.43-0.83-3.78c-0.55-1.3-0.26-2.82,0.7-4.02
		c0.32-0.4,0.7-0.77,1.09-1.11c0.33-0.28,0.79-0.45,0.82-0.97c0.04-0.7-0.16-1.34-0.68-1.81c-0.49-0.45-1.04-0.83-1.57-1.23
		c-1.66-1.29-1.7-2.14-0.17-3.53c0.22-0.2,0.5-0.36,0.64-0.61c0.6-1.08,1.43-1.82,2.64-2.19c0.77-0.24,1.5-0.99,1.32-1.87
		c-0.09-0.42-0.6-0.7-0.97-1.04c-0.54-0.49-1.42-0.72-1.68-1.4c-0.55-1.42,0.35-2.81,1.53-3.9c0.91-0.84,1.03-2.08,0.43-3.28
		c-0.2-0.39-0.48-0.8-0.46-1.26c0.02-0.91,0.78-1.54,1.51-2.14c1.25-1.01,1.42-2.07,0.76-3.71c-0.24-0.61-0.22-1.17,0.09-1.7
		c0.26-0.44,0.56-0.88,0.92-1.24c0.89-0.89,1.4-1.84,1.17-3.18c-0.09-0.53,0.17-1.16,0.38-1.7c0.4-1.04,0.04-2.15,0.54-3.26
		c0.62-1.39,2.11-1.87,2.77-3.15c0.79-1.53,2.07-2.66,3.52-3.61c2.01-1.31,4.28-2.02,6.49-2.84c1.89-0.71,3.9-0.56,5.9-0.06
		C218.12,187.03,218.23,187.1,217.24,188.89z"/>
	<path class="st0" d="M516.98,112.98c-1.06-0.82-2.19-1.53-3.57-1.7c-1.32-0.17-2.65-0.26-3.96-0.5c-2.27-0.4-4.53-0.6-6.82-0.09
		c-0.27,0.06-0.59,0.01-0.86-0.08c-1.63-0.53-3.32-0.54-5.01-0.67c-1.67-0.12-3.3-0.76-4.97-1.07c-0.86-0.16-1.77-0.15-2.66-0.14
		c-0.74,0.01-1.74-0.1-2.23,0.75c-0.26,0.46-0.36,1.2-0.25,1.81c0.24,1.44,0.07,2.97,0.84,4.32c0.24,0.43,0.31,0.99,0.37,1.5
		c0.26,2.05,0.37,4.1,1.09,6.09c0.33,0.92,0.39,2.02,0.13,3.08c-0.13,0.55-0.11,1.18-0.03,1.75c0.23,1.48-0.56,3.06,0.42,4.47
		c0.07,0.1,0.04,0.31-0.02,0.43c-0.42,0.84,0.43,1.53,0.31,2.4c-0.15,1.14-1,2.06-0.7,3.12c0.34,1.2,0.06,2.29-0.08,3.42
		c-0.01,0.07-0.01,0.15-0.01,0.22c-0.05,1.15,0.38,1.81,1.46,2.19c0.68,0.24,2.25-0.29,2.36,0.73c0.06,0.57-0.72,0.5-0.97,0.53
		c-0.66,0.09-1.33,0.08-1.99,0.14c-1.32,0.13-2.09,1.24-1.75,2.52c0.08,0.28,0.23,0.54,0.36,0.81c0.33,0.7,0.5,1.39,0.07,2.12
		c-0.25,0.41-0.2,0.81-0.09,1.27c0.17,0.79,0.39,1.62,0.28,2.4c-0.13,0.91,0.34,1.66,0.28,2.47c-0.02,0.29-0.23,0.4-0.35,0.46
		c-1.04,0.56-1.22,1.43-0.87,2.46c0.28,0.83,0.91,1.6,0.9,2.44c-0.01,0.78-0.89,1.34-0.86,2.09c0.02,0.47,0.81,0.75,0.67,1.29
		c-0.4,1.54-1.04,2.15-0.61,3.36c0.35,0.99,0.28,1.84-0.33,2.68c-0.21,0.29-0.57,0.69-0.5,0.95c0.38,1.46-0.51,3.05,0.47,4.45
		c0.12,0.17,0.02,0.54-0.04,0.8c-0.26,1.13-0.72,2.23-0.75,3.13c-0.03,1.11,2.03,1.22,1.39,2.11c-1.17,1.62-1.78,0.94-1.83,2.98
		c-0.02,0.88,0.04,1.76,0.06,2.64c0.01,0.44,0.08,0.9-0.02,1.32c-0.22,0.94,0.28,1.59,0.46,2.34c0.26,1.1-1.04,2-0.8,2.92
		c0.37,1.43-0.49,1.68-0.45,2.56c0.02,0.44,0.02,0.89,0.1,1.33c0.07,0.43,0.39,0.84,0.34,1.31c-0.15,1.58-1.17,2.89-0.61,4.49
		c0.09,0.25-0.07,0.57-0.08,0.87c-0.02,0.51-0.13,1.06,0.01,1.53c0.25,0.81,0.15,1.56,0.06,2.38c-0.08,0.76,0.24,1.55,0.06,2.38
		c-0.24,1.07-0.31,2.17-0.43,3.26c-0.22,1.91-0.29,3.81-0.05,5.73c0.08,0.63,0.54,1.1,0.59,1.61c0.06,0.6-0.43,1.23-0.48,1.86
		c-0.04,0.55,0.41,1.12,0.31,1.61c-0.17,0.84-0.61,1.98-1.4,2c-1.3,0.04,0.34-1.3-1.09-5.64c-0.45-1.35-2.02-1.7-3.21-2.31
		c-0.67-0.34-0.81-0.74-0.63-1.47c0.12-0.48,0.46-0.94,0.39-1.33c-0.04-0.24-0.18-0.28-0.23-0.31c-1.59-0.83-2.24-2.22-2.41-3.94
		c-0.08-0.8-0.16-1.68-0.54-2.36c-0.42-0.74-1.27-1.22-1.77-1.93c-0.53-0.76-0.29-1.85-1.15-2.57c-0.81-0.68-0.81-1.26-0.11-2.11
		c0.97-1.18,1.54-2.74,0.58-3.8c-0.86-0.95-2.87-0.17-3.64-1.25c-0.55-0.77,0.37-1.9,0-2.66c-0.43-0.88-1.99-0.83-2.15-1.71
		c-0.09-0.51,0.69-0.75,0.68-1.14c-0.01-0.79-1.05-1.23-1.15-1.88c-0.1-0.64,0.56-1.35,0.48-1.97c-0.18-1.36-2.26-1.2-2.79-2.18
		c-0.43-0.78-0.01-1.46,0.63-2.05c1.46-1.36,2.93-3.19,1.79-5.03c-0.89-1.43-3.77-0.46-4.25-2.16c-0.41-1.43-0.72-2.95-0.12-4.52
		c0.1-0.27-0.18-0.69-0.32-1.03c-0.53-1.28-2.15-1.66-2.75-3.02c-0.79-1.79,0.22-3.96,0.6-5.9c0.24-1.21,0.13-2.16-0.54-3.14
		c-1.25-1.83-1.83-4.05-3.26-5.78c-0.09-0.11-0.15-0.26-0.21-0.39c-0.94-2.17-1.94-4.31-2.27-6.7c-0.17-1.23-2.01-3-3.24-2.96
		c-1.64,0.06-3.21-0.38-4.83-0.4c-0.73-0.01-1.48-0.11-2.19-0.29c-0.96-0.24-1.88-0.24-2.86-0.06c-1.45,0.26-2.9,0.45-4.39,0.45
		c-1.84,0-3.68,0.22-5.45,0.85c-0.53,0.19-1.17,0.22-1.74,0.16c-2.7-0.27-5.27,0.46-7.86,1c-0.25,0.05-0.52,0.3-0.67,0.52
		c-0.52,0.79-0.4,1.93,0.26,2.64c0.55,0.6,1.25,1.1,1.65,1.78c1.86,3.13,2.48,2.35,2.7,6.17c0.01,0.21,0.15,0.42,0.2,0.63
		c0.3,1.29,0.59,2.59,0.89,3.88c0.17,0.72,0.27,1.47,0.57,2.14c0.34,0.77,0.47,1.55,0.48,2.37c0.02,2.3-0.03,4.6,0.08,6.89
		c0.07,1.39,0.24,2.82,0.65,4.13c0.62,1.94-0.15,1.64-0.17,3.25c0,0.41,0.71,0.64,0.67,1.04c-0.18,1.5-1.1,1.05-1.08,2.08
		c0.01,0.29,0.15,0.6,0.09,0.88c-0.51,2.44-0.2,4.86,0.19,7.26c0.15,0.9,0.41,1.7,0.33,2.7c-0.05,0.67,0.3,1.01,0.03,1.43
		c-0.8,1.27-0.75,2.67-0.19,3.75c0.26,0.51,1.47,0.47,1.06,1.15c-0.17,0.28-0.59,0.37-0.89,0.58c-0.87,0.62,0.24,0.44-0.11,1.73
		c-0.23,0.84-1.1,0.95-0.82,1.8c0.23,0.7,0.75,1.37,0.66,2.03c-0.08,0.54-0.83,0.94-0.74,1.15c0.42,0.93-0.5,1.77-0.15,2.61
		c0.29,0.7,1.01,1.03,1.75,1.25c0.2,0.06,0.73,0.2,0.62,0.55c-0.27,0.83-1.78-0.32-2.27,0.27c-0.38,0.45,0.2,1.11,0.07,1.55
		c-0.13,0.44-1.12,0.65-1.02,1.43c0.08,0.68,1.41,0.58,1.44,1.16c0.06,1.24-0.88,0.87-0.07,1.61c0.14,0.13,0.49,0.26,0.42,0.54
		c-0.08,0.37-0.61,0.28-0.84,0.44c-0.77,0.54-0.82,0.83-0.26,1.63c0.16,0.23,0.63,0.33,0.6,0.64c-0.08,0.69-0.99,0.72-0.89,1.44
		c0.11,0.8-0.04,1.65,0.15,2.42c0.17,0.67,0.03,1.08-0.36,1.6c-0.37,0.5-0.09,0.88,0.6,1.09c0.35,0.1,1.48-0.06,0.99,0.58
		c-0.26,0.34-0.87,0.1-1.24,0.28c-0.3,0.14-0.68,0.45-0.72,0.74c-0.04,0.26,0.26,0.66,0.52,0.86c0.32,0.25,0.98,0.15,1.13,0.54
		c0.07,0.18-0.08,0.27-0.11,0.27c-0.14,0.03-0.3,0.02-0.44,0.06c-1.29,0.33-1.49,0.56-1.26,1.81c0.07,0.39,0.16,0.69-0.1,1.01
		c-0.31,0.38-0.39,0.8-0.1,1.22c0.25,0.37,0.14,0.71-0.06,1.04c-0.54,0.92,0.25,1.35,0.46,2.33c0.12,0.59-0.76,0.94-0.75,1.47
		c0.01,0.51,0.94,0.83,0.77,1.34c-0.18,0.57-1.29,0.17-1.61,0.74c-0.43,0.75,0.18,1.72,0.26,2.59c0.06,0.66,0.2,1.34,0.12,1.98
		c-0.19,1.56,0.71,3.12,0.28,4.64c-0.11,0.4-0.7,0.57-0.84,1c-0.09,0.28,0.06,0.59,0.06,0.88c-0.02,2.21,0,4.43-0.1,6.64
		c-0.06,1.38-0.44,2.76,0.06,4.13c0.07,0.19,0.07,0.45,0,0.63c-0.58,1.5-0.47,3.07-0.37,4.6c0.1,1.49-0.06,2.95-0.18,4.42
		c-0.08,1.03-0.18,2.06-0.24,3.08c-0.04,0.81-0.06,1.62-0.04,2.43c0.02,1-0.13,1.88-0.98,2.58c-0.52,0.43-0.47,1.06-0.06,1.6
		c0.51,0.69,0.76,1.51,0.58,2.31c-0.33,1.48-0.06,2.94,0.02,4.39c0.2,3.54-0.06,7.09,0.28,10.62c0.08,0.87-0.09,1.75-0.15,2.63
		c-0.02,0.36-0.09,0.74-0.04,1.09c0.38,2.65,0.45,5.29,0.15,7.95c-0.06,0.58-0.01,1.18,0.03,1.76c0.19,2.59,0.43,5.17,0.6,7.75
		c0.16,2.29,0.25,4.58,0.41,6.86c0.17,2.49,0.25,4.98,0.74,7.47c0.47,2.37,0.39,4.85,0.75,7.25c0.46,3.07,0.95,6.14,1.94,9.11
		c0.32,0.95,0.87,1.52,1.82,1.73c0.5,0.11,1.01,0.23,1.53,0.28c1.61,0.17,3.25,0.05,4.83,0.58c0.33,0.11,0.74,0.08,1.1,0.02
		c2.11-0.37,4.23-0.71,6.32-1.17c0.8-0.18,1.58-0.3,2.4-0.3c1.03,0,2.13,0.06,3.08-0.25c1.75-0.58,3.38-1.5,5.11-2.11
		c1.76-0.62,3.02-1.87,2.92-3.5c-0.09-1.5-0.88-2.8-2.38-3.43c-0.52-0.22-0.66-0.77-0.65-1.32c0.03-1.92,0.1-3.84,0.09-5.76
		c0-0.8-0.01-1.66-0.29-2.4c-0.44-1.19-0.3-2.07,0.58-3.02c1.04-1.13,0.96-2.38-0.02-3.58c-0.28-0.34-0.76-0.54-0.9-0.95
		c-0.81-2.45-0.06-5.09,0.49-7.58c0.11-0.5,0.18-1.05,0.09-1.55c-0.16-0.98-0.05-1.92,0.12-2.87c0.28-1.54,0.76-3.34-0.27-4.64
		c-0.71-0.9-2.26-1.41-2.19-2.62c0.04-0.62,0.76-0.97,0.84-1.37c0.18-0.97-0.29-1.77-0.46-2.56c-0.3-1.41-0.01-2.66,1.01-3.69
		c0.82-0.83,1.13-1.83,0.67-2.83c-0.5-1.1-0.95-2.35-2.38-2.7c-0.17-0.04-0.43-0.24-0.49-0.54c-0.1-0.48,0.33-0.95,0.46-1.43
		c0.21-0.78,0.68-1.65,0.5-2.34c-0.31-1.22,0.36-1.96,0.84-2.84c0.21-0.38,0.89-0.61,0.81-1.14c-0.13-0.87-1.42-0.93-1.84-1.41
		c-1.1-1.25-0.38-2.87-0.5-4.24c-0.06-0.73,0.08-1.32,0.78-1.68c0.06-0.03,0.12-0.09,0.17-0.14c0.58-0.56,0.74-1.35-0.05-1.88
		c-0.73-0.49-0.96-1.11-0.61-1.91c0.3-0.68,0.48-1.34,0.56-2.1c0.07-0.8,0.17-1.51-0.01-2.34c-0.16-0.72,0.13-1.61,0.91-2.13
		c0.48-0.32,1.44-0.54,1.18-1.47c-0.19-0.68-1.38-0.92-1.48-2.08c-0.07-0.83-1.51-1.73-0.64-2.68c0.34-0.38,0.99-0.49,1.44-0.86
		c0.39-0.32,0.95-0.91,0.37-1.48c-0.54-0.54-1.61-0.52-2.16-1.06c-0.68-0.67,0.05-1.6-0.05-2.27c-0.18-1.16,0.25-1.77,1.13-2.4
		c0.78-0.55,0.66-1.25-0.16-1.77c-0.25-0.16-0.54-0.24-0.8-0.39c-0.89-0.53-1.07-1.13-0.43-1.98c0.34-0.45,0.53-0.85,0.46-1.4
		c-0.04-0.35-0.21-0.78-0.01-1.06c0.5-0.69,1.52-0.45,2.19-0.73c0.49-0.21,0.82-1.01,0.48-1.29c-0.9-0.76,0.15-1.82-0.38-2.6
		c-0.9-1.32-3.67-0.84-4.1-2.74c-0.15-0.65-0.34-1.47,0-2.22c0.13-0.28,0.52-0.43,0.78-0.67c0.94-0.86,0.94-1.14,0.07-2.19
		c-0.09-0.11-0.24-0.19-0.32-0.31c-0.07-0.11-0.13-0.26-0.11-0.4c0.04-0.36,0.53-0.61,0.48-0.98c-0.05-0.38-0.45-0.5-0.64-0.72
		c-0.39-0.45-1.4-2.38-1.28-2.67c0.4-0.98-0.24-2.25,0.87-3.05c0.18-0.13,0.15-0.55,0.21-0.84c0.14-0.71,0.54-1.43,0.41-2.23
		c-0.07-0.44-0.47-0.84-0.7-1.3c-0.22-0.45-0.73-0.9-0.6-1.35c0.64-2.18,1.22-0.99,0.61-2.84c-0.1-0.31,0.04-0.7,0.1-1.05
		c0.17-0.96,1-1.39,1.76-0.82c0.51,0.38,0.95,0.92,1.3,1.47c0.72,1.12,1.39,2.27,2.01,3.45c0.93,1.76,1.74,3.59,3.05,5.13
		c0.05,0.05,0.05,0.14,0.08,0.2c1.11,2.09,2.11,4.25,3.36,6.25c2.05,3.26,4.24,6.42,6.42,9.6c0.67,0.97,1.36,1.94,2.44,2.55
		c0.67,0.38,1.05,1.01,1.37,1.7c0.76,1.61,1.69,3.11,2.92,4.42c1.19,1.26,1.96,2.77,2.34,4.47c0.1,0.43,0.2,0.87,0.36,1.28
		c0.13,0.34,0.26,0.75,0.53,0.95c1.38,1.06,1.93,2.63,2.42,4.17c0.5,1.57,1.21,3.02,2.03,4.43c0.33,0.57,0.7,1.19,0.77,1.82
		c0.24,2.05,0.78,4.07,0.69,6.16c-0.05,1.18-0.16,2.43,0.15,3.53c0.52,1.81,0.72,3.61,0.72,5.47c0,0.79,0.4,1.45,1.11,1.81
		c0.78,0.4,1.59,0.83,2.43,1.02c1.08,0.23,2.21,0.24,3.32,0.31c0.36,0.02,0.79,0.05,1.09-0.12c0.7-0.38,1.4-0.27,2.13-0.31
		c1.4-0.08,2.79-0.29,4.19,0.02c0.2,0.04,0.44-0.04,0.65-0.11c1.21-0.45,2.47-0.4,3.72-0.55c1.08-0.13,2.21-0.38,3.18-0.85
		c1.39-0.68,2.68-1.58,3.97-2.44c1.19-0.79,1.62-1.96,1.09-3.29c-0.61-1.55-0.52-3.2-0.86-4.79c-0.11-0.5-0.06-1.07-0.29-1.51
		c-0.55-1.03-0.42-2.09,0.03-3c0.59-1.19,0.48-2.28,0.06-3.42c-0.58-1.57-0.38-3.06,0.49-4.45c0.57-0.91,0.87-1.86,0.87-2.93
		c0-0.44,0.1-0.89,0.23-1.31c0.23-0.7,0.14-1.31-0.34-1.87c-0.58-0.67-0.69-1.45-0.63-2.29c0.04-0.52,0.03-1.03,0.04-1.55
		c0.03-0.69-0.02-1.33-0.7-1.75c-0.65-0.4-0.79-1.09-0.72-1.76c0.06-0.65,0.23-1.31,0.48-1.92c0.28-0.7,0.55-1.33,0.32-2.13
		c-0.14-0.47,0.01-1.02,0.02-1.53c0.01-0.36,0.14-0.79,0-1.08c-0.64-1.31,0.13-2.74-0.43-4.08c-0.17-0.41,0.12-1.02,0.59-1.36
		c0.24-0.17,0.61-0.23,0.68-0.42c0.4-1.06-0.29-2.07-0.86-2.74c-0.36-0.43-0.98-0.45-1.41-0.74c-0.27-0.18-0.61-0.44-0.63-0.72
		c-0.07-1.1,1.18-1.69,1.62-2.53c0.47-0.9,0.34-1.39-0.57-1.8c-0.85-0.39-1.94-0.83-1.93-1.74c0.01-0.7-0.11-1.51,0.62-1.81
		c0.95-0.39,0.57-1.26,0.91-1.85c0.1-0.17,0.36-0.23,0.54-0.35c0.3-0.21,0.7-0.36,0.85-0.65c0.38-0.75,1-1.04,1.74-1.24
		c0.64-0.17,0.96-0.6,1.02-1.28c0.07-0.75-0.16-1.31-0.81-1.68c-0.32-0.18-0.66-0.38-1.01-0.44c-1.06-0.19-1.62-0.98-2.17-1.76
		c-0.49-0.7-0.8-1.44-0.01-2.18c0.15-0.14,0.29-0.4,0.26-0.57c-0.25-1.29,0.82-2.1,1.13-3.19c0.34-1.23,2-1.71,2.25-2.92
		c0.1-0.5-0.59-0.87-0.5-1.44c0.12-0.72,0.94-1.22,1.41-1.87c0.31-0.44,0.15-1.09-0.34-1.33c-0.53-0.26-1.1-0.43-1.64-0.68
		c-0.32-0.15-0.8-0.29-0.68-0.75c0.17-0.65,0.9-0.7,1.43-0.95c0.86-0.41,0.87-1.19,0.03-1.68c-0.44-0.26-0.95-0.39-1.43-0.59
		c-0.61-0.25-2.21-0.31-1.8-1.27c0.36-0.86,1.13-0.95,1.1-1.8c0-0.17,0.21-0.43,0.39-0.51c0.64-0.28,0.78-0.82,0.9-1.43
		c0.05-0.26,0.24-0.62,0.45-0.7c1.2-0.47,2.1-1.36,2.5-2.49c0.17-0.48-0.17-1.02-0.17-1.53c0-0.96-0.47-1.53-1.36-1.78
		c-0.92-0.27-1.85-0.52-2.79-0.74c-0.67-0.16-1.47-0.41-1.4-0.95c0.19-1.51,2.75-2.06,2.59-3.56c-0.1-0.88-1.48-0.92-1.83-1.61
		c-0.36-0.72,0.31-1.26,0.99-1.57c0.47-0.21,1.15-0.55,1-1.04c-0.27-0.93,0.96-1.27,0.77-2.03c-0.17-0.69-0.71-1.28-1.2-1.81
		c-0.48-0.51-1.49-0.59-1.7-1.26c-0.48-1.48,3-1.58,2.86-3.02c-0.1-1.05-2.14-0.79-2.37-1.73c-0.16-0.68,0.71-1.11,0.81-1.66
		c0.18-1,0.74-1.52,1.6-1.95c1.18-0.59,1.37-1.1,1.14-2.31c-0.12-0.6-0.36-1.11-0.84-1.52c-0.5-0.42-1.43-0.64-1.56-1.41
		c-0.1-0.57,0.41-1.13,0.77-1.33c0.94-0.52,1.39-1.37,1.68-2.26c0.42-1.33,1.08-2.38,2.28-3.15c0.82-0.53,0.88-1.34,0.25-2.11
		c-0.31-0.39-0.76-0.69-1.19-0.96c-0.86-0.53-2.57-0.43-2.79-1.6c-0.14-0.74,0.76-1.13,1.2-1.46c0.79-0.58,1.22-1.24,1.1-2.25
		c-0.05-0.43,0-0.92,0.17-1.3c0.39-0.86,0.19-1.55-0.32-2.27c-1-1.4-1.37-2.89-0.6-4.56c0.44-0.97,0.28-1.93,0.06-3
		c-0.39-1.87-0.31-3.82,1.29-5.31c0.43-0.4,0.9-0.79,1.05-1.13c0.49-1.08,0.41-2.15,0.28-3.07c-0.13-0.9-1.07-1.67-1.05-2.62
		c0.05-1.51,1.34-2.67,1.97-4C518.42,114.94,518.16,113.89,516.98,112.98z"/>
	<path class="st0" d="M589.38,217.64c0.18-0.95,0.19-1.89,0.04-2.86c-0.12-0.79,0.02-1.62,0.03-2.44c0.02-0.96,0.14-1.93,0.03-2.88
		c-0.16-1.39-0.45-2.77-0.74-4.14c-0.23-1.1-0.73-2.03-1.59-2.84c-1.44-1.36-3.12-2.61-3.98-4.24c-0.89-1.69,1.16-3.07,1.18-4.74
		c0.03-1.71-1.24-3.02-1.45-4.67c-0.16-1.25-0.32-2.41-0.1-3.7c0.33-1.92-0.76-3.4-2.1-4.65c-0.24-0.22-0.68-0.25-1.04-0.33
		c-2.26-0.5-4.52-0.62-6.79,0.02c-0.85,0.24-1.72,0.21-2.62-0.07c-1.55-0.49-3.15-0.8-4.79-0.7c-0.55,0.03-1.01-0.11-1.36-0.57
		c-0.18-0.23-0.39-0.5-0.64-0.59c-1.51-0.52-2.89-1.47-4.61-1.29c-0.58,0.06-1.19-0.02-1.76-0.15c-3.83-0.88-7.77-0.89-11.65-1.36
		c-0.37-0.04-0.74-0.02-1.11-0.02c-1.7-0.01-3.41,0.03-5.11-0.04c-3.92-0.16-6.74,1.78-9.11,4.64c-0.23,0.28-0.4,0.63-0.53,0.97
		c-0.71,1.86-1.39,3.73-2.09,5.6c-0.28,0.76-0.61,1.5-0.88,2.26c-0.36,1.04-0.85,2.08-0.95,3.15c-0.12,1.22-0.52,2.27-1.05,3.32
		c-0.23,0.45-0.4,0.95-0.45,1.45c-0.12,1.25-0.15,2.51-0.23,3.76c-0.03,0.44,0,0.92-0.17,1.3c-0.71,1.51-0.68,3.17-0.84,4.75
		c-0.22,2.18-0.74,4.35-0.45,6.57c0.05,0.4-0.19,0.84-0.3,1.26c-0.57,2.17-0.89,4.44-0.47,6.59c0.45,2.31-0.33,4.57,0.18,6.83
		c0.04,0.19-0.05,0.45-0.16,0.63c-0.72,1.15-0.57,2.38-0.35,3.61c0.17,0.98,0.38,1.46-0.04,2.21c-0.13,0.22-0.03,0.58-0.01,0.87
		c0.08,1.25,0.11,2.51,0.28,3.76c0.53,4.09,0.97,8.18,2.36,12.14c0.81,2.31,1.72,4.57,2.74,6.78c1.02,2.21,2.41,4.24,3.97,6.13
		c2.09,2.53,4.98,3.87,7.71,5.5c0.79,0.47,1.63,0.66,2.46,0.96c2.85,1.03,5.68,2.17,8.82,1.65c0.14-0.02,0.3,0.01,0.44,0.04
		c1.39,0.32,2.79,0.2,4.2,0.23c2.31,0.06,4.54-0.44,6.77-0.81c2.62-0.44,5.22-1,7.88-1.17c1.79-0.12,3.5-0.69,5.1-1.44
		c1.22-0.57,2.22-1.48,2.53-2.92c0.21-1.01,0.38-2.03,0.65-3.03c0.61-2.26,0.72-4.54,0.21-6.82c-0.35-1.55-0.42-3.05,0.21-4.54
		c0.08-0.2,0.17-0.44,0.13-0.64c-0.32-1.81,0.29-3.53,0.48-5.28c0.13-1.13,0.6-2.08,1.89-2.45c1.13-0.32,2.18-0.83,3.04-1.72
		c0.82-0.84,1.71-1.63,2.66-2.31c0.55-0.39,0.81-0.84,0.9-1.44c0.08-0.51,0.12-1.03,0.15-1.54c0.11-1.55,0.3-3.07,0.97-4.52
		c0.4-0.86,0.54-1.8,0.56-2.8c0.04-1.61,0.12-3.28,0.77-4.78c0.61-1.44,0.77-2.86,0.33-4.32
		C589.28,219.09,589.23,218.39,589.38,217.64z M566.83,205.4c-0.33,0.8-0.52,1.52,0.01,2.3c0.12,0.17,0.18,0.43,0.15,0.64
		c-0.25,1.75,0.13,3.53-0.35,5.29c-0.27,0.98-0.3,2.05-0.29,3.08c0.04,2.66-0.17,5.29-0.52,7.92c-0.1,0.73-0.32,1.44-0.05,2.18
		c0.09,0.25,0.03,0.59-0.06,0.85c-0.3,0.84-0.6,1.68-1,2.47c-0.27,0.53-0.4,1.05-0.5,1.65c-0.39,2.33-0.77,4.67-1.41,6.94
		c-1.12,3.98-2.34,7.93-3.96,11.76c-0.88,2.08-1.97,4.11-2.38,6.4c-0.18,1.04-0.6,2.68-1.81,2.76c-1.96,0.13-0.58-2.31-0.92-3.54
		c-0.87-3.12-1.63-2.3-1.48-4.81c0.03-0.5-0.43-0.93-0.61-1.41c-0.1-0.26-0.26-0.64-0.15-0.83c0.61-1.06,0.03-1.83-0.54-2.63
		c-0.13-0.18-0.29-0.35-0.33-0.53c-0.18-0.75,0.09-1.5,0.21-2.22c0.08-0.49,0.19-1.04,0.48-1.42c0.93-1.27,0.87-2.45-0.08-3.66
		c-0.18-0.23-0.45-0.46-0.48-0.87c-0.04-0.53,0.5-1,0.6-1.58c0.11-0.65-0.46-1.06-0.92-1.43c-0.34-0.28-0.75-0.48-1.1-0.76
		c-0.92-0.74-0.91-1.35,0.04-2.15c0.27-0.23,0.88-0.23,0.98-0.72c0.1-0.49-0.44-0.8-0.69-1.13c-0.78-1.05-0.81-1.99,0.15-2.92
		c0.74-0.72,1.18-1.55,1.26-2.5c0.09-1,0.37-1.85,0.88-2.7c0.52-0.86,0.77-1.77-0.18-2.6c-0.24-0.21-0.31-0.64-0.4-0.99
		c-0.09-0.35-0.02-0.78-0.19-1.08c-0.77-1.43-0.26-2.54,0.78-3.56c0.25-0.25,0.53-0.52,0.61-0.78c0.08-0.26,0.03-0.46-0.04-0.56
		c-1.88-2.42-0.75-4.79,0.21-7.08c0.68-1.62,1.7-3.08,2.52-4.64c0.2-0.38,0.24-0.85,0.31-1.28c0.26-1.55,0.36-3.39,1.56-4.3
		c0.99-0.76,2.34-0.67,3.49-0.81c1.08-0.14,2.38-0.67,3.42-0.03c0.57,0.35,0.11,1.92,1.01,2.03c1.06,0.12,0.79-1.6,0.94-2.37
		c0.12-0.6,0.34-1.42,0.99-1.24c0.14,0.04,0.2,0.15,0.2,0.19c-0.07,1.44,0.22,2.91-0.02,4.32c-0.12,0.71-0.06,1.31,0.14,1.93
		c0.54,1.69-1.31,2.31-1.23,4.29C566.14,204.38,567.16,204.6,566.83,205.4z"/>
	<path class="st0" d="M384.96,119.13c0.39-0.85,0.36-1.51-0.3-1.99c-1.07-0.79-2.13-1.6-3.3-2.22c-0.83-0.44-1.81-0.82-2.73-0.82
		c-3.2-0.01-6.34-0.44-9.48-0.91c-1.39-0.21-2.77-0.37-4.13-0.76c-0.98-0.29-2.04-0.32-3.06-0.51c-0.75-0.14-1.29,0.21-1.79,0.67
		c-0.6,0.56-0.78,1.36-0.59,2.05c0.45,1.69,0.22,3.39,0.29,5.08c0.05,1.17,0.07,2.44-0.34,3.5c-1.41,3.7-0.64,7.44-0.51,11.18
		c0.01,0.33,0.62,0.6,0.55,1.14c-0.1,0.85-1,1.21-0.64,2.06c0.12,0.29-0.01,0.71-0.06,1.06c-0.2,1.38-0.59,2.75-0.6,4.13
		c-0.03,3.54-0.27,7.09,0.39,10.61c0.27,1.44,0.46,2.9,0.72,4.34c0.3,1.63,0.33,3.32,0.79,4.94c0.24,0.85,0.46,1.7,0.66,2.56
		c0.34,1.48,1.36,2.24,2.73,2.61c2.71,0.74,5.54,0.98,8.17,2.03c0.14,0.05,0.29,0.08,0.43,0.09c1.67,0.12,3.35-0.16,5.02,0.14
		c0.63,0.11,1.1-0.39,1.23-1.04c0.06-0.29,0.09-0.58,0.1-0.88c0.02-1.03,0-2.06,0.05-3.09c0.04-1.02,0.13-2.04,0.23-3.05
		c0.04-0.36,0.06-0.78,0.26-1.06c0.76-1.05,0.43-2.48,1.27-3.51c0.15-0.18,0.06-0.57,0.07-0.86c0.09-2.58,0.05-5.18,0.31-7.74
		c0.18-1.74-0.23-3.04-1.65-4.04c-0.18-0.13-0.33-0.3-0.5-0.44c-1.6-1.38-1.67-1.62-1.01-3.63c0.09-0.28,0.27-0.53,0.35-0.81
		c0.34-1.18,0.91-2.09,2.09-2.69c1.01-0.52,1.59-1.51,1.45-2.78c-0.05-0.43-0.05-0.93,0.12-1.31c0.41-0.93,0.28-1.85,0.28-2.81
		c0-1.06,0.01-2.08-0.42-3.04c-0.44-1-0.2-1.79,0.33-2.7C382.83,122.81,384.06,121.07,384.96,119.13z"/>
	<path class="st0" d="M204.88,31.21h14.98l2.62,10.63h7.65L220.07,1h-9.85L192,41.84h8.12L204.88,31.21z M214.31,8.64h0.42
		c0,0.21,0.05,0.42,0.05,0.63c0.47,4.29,3.51,15.4,3.51,15.4h-10.53C207.76,24.67,213.42,12.36,214.31,8.64z"/>
	<polygon class="st0" points="262.48,25.09 278.98,25.09 279.61,18.75 263.11,18.75 264.16,7.54 282.96,7.54 283.64,1 256.99,1 
		252.95,41.84 260.81,41.84 	"/>
	<polygon class="st0" points="296.99,1 289.4,1 285.37,41.84 292.96,41.84 	"/>
	<path class="st0" d="M313.75,42.47c9.22,0,15.45-5.97,16.34-15.14c0.16-1.47,0.16-2.83,0-4.14c-0.73-6.81-5.55-11.05-13.3-11.05
		c-9.11,0-15.5,5.97-16.39,15.19c-0.1,1.41-0.16,2.78,0,4.03C301.18,38.23,306.05,42.47,313.75,42.47z M307.94,27.34
		c0.58-5.76,3.98-9.22,8.22-9.22c3.56,0,5.92,2.3,6.39,6.28c0.11,0.89,0.11,1.89,0,2.93c-0.58,5.76-3.82,9.22-8.22,9.22
		c-3.51,0-5.92-2.41-6.34-6.39C307.89,29.28,307.89,28.33,307.94,27.34z"/>
	<path class="st0" d="M347.32,41.84l5.87-17.54c0.52-1.57,0.99-4.5,1.26-6.13h0.16c-0.21,1.68-0.26,4.61-0.1,6.13l2.2,17.54h8.27
		l10.95-29.07h-7.18L362.71,31c-0.37,1.2-0.79,4.45-0.94,5.6h-0.16c0.05-1.1,0.31-4.03,0.16-5.45c0-0.05,0-0.1-0.05-0.16
		l-2.62-18.22h-8.27l-5.97,18.07c-0.42,1.05-0.94,4.77-1,5.76h-0.16c0.11-1.05,0.21-4.45,0.05-5.71v-0.16l-2.57-17.96h-7.54
		l4.98,29.07H347.32z"/>
	<path class="st0" d="M392.61,12.15c-9.06,0-14.93,6.55-15.82,15.14c-0.11,1.47-0.16,2.83,0,4.14c0.79,6.86,5.6,11.05,12.99,11.05
		c6.34,0,10.32-2.2,13.83-6.28l-3.25-4.5c-2.15,3.14-5.81,4.87-9.53,4.87c-4.03,0-7.02-1.99-7.44-5.66c0-0.16,0-0.31-0.05-0.47
		l21.31-2.67c0.21-1.78,0.26-3.46,0.11-4.98C403.98,16.24,399.63,12.15,392.61,12.15z M383.82,25.14c0.73-4.66,3.88-7.17,8.17-7.17
		c3.4,0,5.76,1.68,6.07,4.5c0,0.26,0.05,0.52,0.05,0.79L383.82,25.14z"/>
	<path class="st0" d="M428.69,18.54l-0.58-6.39c-5.13,0.1-7.86,1.1-10.06,3.61l0.31-2.99h-6.49L409,41.84h7.44l1.94-19.38
		C419.95,18.85,423.56,17.54,428.69,18.54z"/>
	<path class="st0" d="M450.53,41.84h7.44l2.25-23.25h5.29l0.63-5.81h-5.6l0.26-2.93c0.31-2.62,1.05-3.77,6.28-3.77h0.68L467.08,0
		c-10,0.1-12.73,3.14-13.35,9.69l-0.31,3.09h-4.14l-0.63,5.81h4.14L450.53,41.84z"/>
	<path class="st0" d="M467.6,31.37c0.79,6.86,5.66,11.1,13.35,11.1c9.22,0,15.45-5.97,16.34-15.14c0.16-1.47,0.16-2.83,0-4.14
		c-0.73-6.81-5.55-11.05-13.3-11.05c-9.11,0-15.5,5.97-16.39,15.19C467.49,28.75,467.44,30.11,467.6,31.37z M475.14,27.34
		c0.58-5.76,3.98-9.22,8.22-9.22c3.56,0,5.92,2.3,6.39,6.28c0.1,0.89,0.1,1.89,0,2.93c-0.58,5.76-3.82,9.22-8.22,9.22
		c-3.51,0-5.92-2.41-6.34-6.39C475.09,29.28,475.09,28.33,475.14,27.34z"/>
	<path class="st0" d="M511.12,22.47c1.57-3.61,5.18-4.92,10.32-3.93l-0.58-6.39c-5.13,0.1-7.86,1.1-10.06,3.61l0.31-2.99h-6.49
		l-2.88,29.07h7.44L511.12,22.47z"/>
	<polygon class="st0" points="572.23,35.3 551.38,35.3 552.43,24.04 569.66,24.04 570.29,17.65 553.06,17.65 554.06,7.54 
		573.9,7.54 574.58,1 546.99,1 542.95,41.84 571.55,41.84 	"/>
	<path class="st0" d="M590.87,28.75c-0.79,2.04-1.57,4.35-1.89,6.28h-0.16c0-0.89-0.05-1.83-0.16-2.83c-0.1-1.15-0.31-2.3-0.52-3.46
		l-4.08-15.92h-7.59l7.86,29.01h8.06l13.41-29.01h-8.06L590.87,28.75z"/>
	<path class="st0" d="M619.3,42.47c6.34,0,10.32-2.2,13.83-6.28l-3.25-4.5c-2.15,3.14-5.81,4.87-9.53,4.87
		c-4.03,0-7.02-1.99-7.44-5.66c0-0.16,0-0.31-0.05-0.47l21.31-2.67c0.21-1.78,0.26-3.46,0.1-4.98c-0.79-6.55-5.13-10.63-12.15-10.63
		c-9.06,0-14.93,6.55-15.82,15.14c-0.1,1.47-0.16,2.83,0,4.14C607.1,38.28,611.92,42.47,619.3,42.47z M621.5,17.96
		c3.4,0,5.76,1.68,6.07,4.5c0,0.26,0.05,0.52,0.05,0.79l-14.3,1.89C614.07,20.48,617.21,17.96,621.5,17.96z"/>
	<path class="st0" d="M647.89,22.47c1.57-3.61,5.18-4.92,10.32-3.93l-0.58-6.39c-5.13,0.1-7.86,1.1-10.06,3.61l0.31-2.99h-6.49
		l-2.88,29.07h7.44L647.89,22.47z"/>
	<path class="st0" d="M675.96,43.36l13.2-30.53h-7.75l-5.97,14.72c-0.84,2.3-1.41,4.03-1.89,5.97h-0.1l-0.16-1.99
		c-0.16-1.31-0.37-2.67-0.79-4.03l-4.61-14.66h-7.44l8.95,27.7c-2.2,4.77-3.51,5.71-9.74,5.71h-0.58l1.26,6.23
		C668.58,52.48,673.08,50.07,675.96,43.36z"/>
	<polygon class="st0" points="717.49,41.84 725.4,41.84 728.75,7.54 740.27,7.54 740.95,1 710.05,1 709.37,7.54 720.84,7.54 	"/>
	<polygon class="st0" points="753.31,1 745.56,1 744.82,8.54 752.57,8.54 	"/>
	<polygon class="st0" points="752.05,12.78 744.56,12.78 741.68,41.84 749.17,41.84 	"/>
	<path class="st0" d="M766.08,22.36c1-2.41,2.72-4.14,5.08-4.14c2.2,0,3.35,1.05,3.61,3.19c0.05,0.63,0,1.31-0.05,2.09l-1.78,18.33
		h7.38l1.83-18.64c0.37-2.78,2.46-4.98,5.24-4.98c2.25,0,3.46,1.05,3.72,3.19c0.05,0.63,0,1.31-0.05,2.09l-1.78,18.33h7.44
		l1.99-20.11c0.1-0.89,0.05-1.78,0-2.57c-0.52-4.29-3.46-7.02-7.91-7.02c-4.14,0-7.7,1.78-9.17,4.56c-0.89-2.78-3.46-4.56-7.17-4.56
		c-4.19,0-6.91,1.68-8.43,3.98l0.37-3.35h-6.81l-2.88,29.07h7.44L766.08,22.36z"/>
	<path class="st0" d="M816.93,42.47c6.34,0,10.32-2.2,13.83-6.28l-3.25-4.5c-2.15,3.14-5.81,4.87-9.53,4.87
		c-4.03,0-7.02-1.99-7.44-5.66c0-0.16,0-0.31-0.05-0.47l21.31-2.67c0.21-1.78,0.26-3.46,0.1-4.98c-0.79-6.55-5.13-10.63-12.15-10.63
		c-9.06,0-14.93,6.55-15.82,15.14c-0.1,1.47-0.16,2.83,0,4.14C804.73,38.28,809.55,42.47,816.93,42.47z M819.13,17.96
		c3.4,0,5.76,1.68,6.07,4.5c0,0.26,0.05,0.52,0.05,0.79l-14.3,1.89C811.69,20.48,814.84,17.96,819.13,17.96z"/>
</g>
</svg>
